<mxfile host="Electron" agent="Mozilla/5.0 (X11; Linux x86_64) AppleWebKit/537.36 (KHTML, like Gecko) draw.io/24.7.17 Chrome/128.0.6613.36 Electron/32.0.1 Safari/537.36" version="24.7.17">
  <diagram name="Page-1" id="jKNQO0t-c5yz9iRTXFJc">
    <mxGraphModel dx="1434" dy="835" grid="1" gridSize="10" guides="1" tooltips="1" connect="1" arrows="1" fold="1" page="1" pageScale="1" pageWidth="1100" pageHeight="850" math="0" shadow="0">
      <root>
        <mxCell id="0" />
        <mxCell id="1" parent="0" />
        <mxCell id="c8LNp2J76CMfWhG36EFo-3" value="" style="shape=image;verticalLabelPosition=bottom;labelBackgroundColor=default;verticalAlign=top;aspect=fixed;imageAspect=0;image=data:image/png,iVBORw0KGgoAAAANSUhEUgAAAxEAAAFECAYAAABYu7MLAAAgAElEQVR4nOzdd3yN1x/A8c/33ps9ZYuR2BnEpvaqvWpElQ46aBVFh/bXIV1a1VbNltJJa5QapfZWW8UmSGyJyJDIuuP8/ggShLZWWs779fq+XtznPM/5nnPznPuc+4wrgELTNE3TNE3TNO1vMgEWpZRdYSeiadq9ISJmvc9rmqZpmnarREQZCjsJTdM0TdM0TdP+W/QkQtM0TdM0TdO0f0RPIjRN07QHXoJImRCRcyIBOVL5zycv3yyYKBJSWuS8FJ0+eodI2dwyoq4OO5uUef7TDiJrr192KRwGbJcNuAEQJY4d/27ZW5AkUiJC5Kx4frBUwHgn+udebr/QvSZujUSOieOgLRKNS2Gno2n/VqbCTkDTNE3T/j3iTez5Yqhh0veLVB8SCyxiqhuLaeeXZGWYL72isJn/FNgMzPGwx8Erh5djiTDilTCKpLPpKOJxJAuAfZiNMPZvldU0TfuX0mciNE3TNA1QoLA37Xa2TQ3mw0UvWG9U0L7eGVZeHKeU+iI3zKNV7JS185SapZT6IuVZxgdDCoSlMffMRKXUFypn7M+qOrmTjpnKOucvyyrz9yK1yomsshdJF0PQCfEfPTjvm3/FzyJVK4gscxBJF4P/OXEZ+IV8ku8MhvG04VGRoZ4iCSKlTkup6X0EJFWkdKhIgvj3n9VN5H1PkcT8ywEWiIRUFPnVWSRVxC1N7Ossl8qbahfUHTcvm83HIl0CRQ6LeF4Q197fthT5WaThBXn77UoviHwrUvGidEqrD0CUOHYSWSPS7ox8QXBeLTZmifQyib1FQs70Ba4/YyDi1EXkQ0+RkyJ2OWIsdVgCxgwQMBIlhtdFegSK7BExZoixyi4JW9FaATQW03Mib3mKnBNDibMymyGZ+vhI0/6S3kk0TdM07TK/PpvaYlvG8S9eML2UXa7AMrZkB3pHlBSR4NxwCpKAO3vZS6IYAsfCtMPGNoHmsjXaPqOOTzIkfPIBdeI6AKS7GvxHw0+HDPUq5ARGPNNeJYx3yhjbly+mD4vzvPTZnjqrygzHZqV9YFQAcY7E/fQu31LcBhYj2Dj368OzijwpZeClUsRxeXmam/iMgBl7pVrdzKKthlQnvU9Z86Yy7PpopryVGZQ/z4GVbl42RRyDf4QxZ6SOI8Ur9G178btDm6EN2Cl83sp6Ema4sNfAtnWtrEDiuwTtgnC8mq9hECf+fo9FMw86/0qRIalFX56MyVK/iy3ud+J/GErX1Kob3qXR1zDpjMvzR/G3NW5niz7A/k+mGIakll2+hlY/w5upDpH78TzZq/VRiu6EgDv2ZmrafUpPIjRN0zTtMvNDlr4wPJBlTkz7/tW1BV32mzW5Ogd3HwBic8NwBO/zkXcuCcU+qLMLCaZo/18sMVvXTK7JhFqcTiRmUaQgsusidXZAGQKH/mQ5FT1jfhjDK8IjJO+Yd9wh92wCdDnF6uVDDg9jRAf4HY67s/hCMQW5j2a063yEOd9/vF3xU2tYBsfdWZZUfFc69bZCKAFvTOX0799sUzk/PwNTYEUgcxIezp9nrT03KTv3TPM9UO0Q+BEweCYnNk//bQCfN4XtIGByUHVq8UctOMS5pS1N0dEuy6H+UfxcKdXlFwU3PBlUECsYDWQYubAvArvmxWZXXP6BUtuKq18ctv0GHZMoYaLa8InqrNoyHsa6sdyD3/e3WA7NLuJvoMqXX6gktXiqIx+Gwvk79W5q2v1KTyI0TdM07QoDD69iRzeYyvlxj3YJpbbh2h9ltWtzAFePbkCn3FCdwbDyzuVgIw58bSgDJzu8bBJJl60c2wLFyDxekrhvHQ5DgBWTAcfS8QaAvSpni1JLVOYn6xrGXzr4di0eT20uEpVl84TzYAWL5N0I7eSfRGMyIUu5QipYITvLcBgCLJgMOFc4ZQMFRoLhjJEsIeO0X4rj5UmKjTM3K5t+0vcI+ChMglPpMzZQNMDiDfFXcticdeFh+JXs9RWYML3iMmgBD59iaPE1f9lNWZfzAKhMZ5jdhuwv3S7+3oTMZbPZ88gJcew1R15tGJACPnDKnvU+s0QkPRgWpyGOpP9ZNgW8wcdKgP05AK8BpBSB9Nt7DzXt/qcnEZqmaZqWX2NlHQafh7L7Aic8BmVeezbCLjyJpSm/KaXm5kbGfLW3yPE7l4CBIEgwYLDh//l4oApQxQYhKNWd4N7ZQZBgxKrIPFLUBtBN7BuIPCEOgyLHlOQ2fkzSkbJw1oTFRsbBYjYALMRCcStOCrfi8Z5ZlydVBoretGzJ+GBIBqsi85i/DWAdpvNQNK8+B56BOcXYbmXF/M57oSb+rZcQef1N7XZgBQXmUx4KSB5LkURwvFJAqYvzbbaXVoFfR6jWmvQv7bJ/asf8kT3c4ByUzCb8iz5AFQWVwVoex/kfeUIyJBo5m+MLkDySIongeut9qGkPBj2J0DRN07RreKrM2F4wzpCeGnoao/u9rV2oCJsrYjvO+d9aUaxBhbZQ1xXDNLxrd7SiVBhsjEDFcWZkd1NQ7chOs3h5J0zEq2aDhhf+2WVAV7MjwpUNNWE/Z0f2MJVo3bOBODw2GZ5BWh2ne4kl+fPcUvFmZYOXhMKfZVDnif+su6lE1R5txvLaCqiav0b/YRyoB5s4FvPMVoK9qdputrr27A8GIiDWDUsOJ9/vYQiQtpHw1hFwBSWY/OQNkWFiCD9To2yfR+fZofzglAGjBZNf2iPwmydxVmJ3ROJJYEd4HEpNxW9iSGNY6Uy8Yme/QeIurSMhKga8IP+ZDk3TrqUnEXdBsohHc5H3vEQOmEQyxeCeInY1l0jIb41twBGR1nZiNEvQqndshZ0sObws0k58f2h3K7n8s7bk1SWIDBP5SKRsprRIbXELVWuapt1FjjzvxuS6sK8wavdW1lPPwxNlLEuT7U6t+2Wh+I5Kd3z6TyI7/2wAfJXtzADoWc62/qjd8S3fzRW/QenOL35N355vVUnhtj5a3NJU4lB4tKLassXx5OIv1+M26ahdw73UeLOLepNT+cuO2X3zsn6KIz3gZV/bHzZOnvjyd/dOQdVhLQB2lyYKUdacrjDDZDF72EytY4ny3FpQXqX7sLkjjHHJmV+KhOCJK8qX3tsA9mM125GSIH1hYm32L3U+PGkUZuO276Vo/2y3gaOICp1adxirnob+/he/qyApsnyeBPXCu+9sxpTc1Ko6iyLhc5fsmZVID5q8oqzHwdpwBGuOiXR9nKRpN2NWSqHjDoU/Lrk3sNlbsa/yB3Z27xeDL70hAUJTaXTs4cPQ2oTBTMmV71hvtz7bba5fF7dmEI3/dxNRSv5p3YfBzwgdCF5R4Z/VhQyDMCjVjvoXfAv9fXuAQu/zOnTouJfxLTjCQH+bUqg+2PWAhdA+kUWqeG4ZG+uhjTNkUmJJ1G1/LurQoeOuB5cf0KDdKYqF8bRZCs1wfWMhS/5sqnJy3j6p1AvzoaUT8Rs5vDYg+/IpUus0t5Yi3zuKpImx9h6pc7AeAI3F9IzIK94icSJ22WIM3yMVFjxiA7aLPGIn9mYp1uCjqiLbxHfcdIkS+xuVB5G3RboWE4k2imSKocwRKTq2n4AxSaRExB/ErIAI4nv1wfjsHlnS0utGz9IuqO5EqCkYZmOTR2251RX4nO6xQVLqqrpMvfZug+fBMAsn26VT2zfO9Z6/lZqmadptSw8Qv69gD/LnNkO5R9pHTqLbaqiLa9WtlOVcvIh/cTE83hc+yqD1eXo2/EEfmGjaf4f+VvKORRavwRfglUPVhO43KncYWtuBBUofxbvGB3VhnCNk4/rmSg4dcvgdOjtDNkWG/lDGhSZVYD90PsFPKvAwtLm07gm8a32A16fN592k/Fao5wcXcIpciyftmsN0CMykxuHOCuzfgZ6ekI7HwLnY9a78IzTzgnRcnp+PP7XawUxocZrBmWWvr/uL5nuhTd5ZFStzoadQJJOiL0dholYXGAvVT9JuVJ2r6nLuWOVlGAFlMmme0kIpxU1zLfT39v4Jvc/r0KHj3oWFsdC4JPxhB5ngmYx9hxm0SQpSSnESmjlCJhISR+iqR2yFnq8OHTr+TqDPRNxpjpIOnlDEiq/9Xz9j2mfoGhK3vrOhFf+rDXGkHy/BsXKue2BJBpTA/eM+h9NZXR82wokirMwoyuWbzXxeXUHi5nfU+ZeXHbph+d1Ff4VOCQTaU3XipypZ/fYtvOjE6W6ciD6klMp5Hg44gA3HavHkfLt7L7Qv8FnaC481v77ul5Y5XHPz2w2f071g0Mar6ro4b5cL+a/bzeamud6x90jTNE27d4z0V2r1MaXq5ijlpFRyEZU971G1sMgxgGJKrchUyknZ9gerfY3n6juZNe2/4/of0dFuQ5bywPE8nDcSf9EPPPItsyJiNCiVe+CsMCicy8VZwUYoZpfFpIDNB1OahEHp8vB53DGpJYJD7uU8tmyycy+DUhgUTuVz10Vxw/LWraYkCABvKyWMiQDFlDqfAQsKTH81hqufpW2zCYhCHEnbWyYDjl1d97UMl5/TXX31xd+fTINH2LPRIo5dfqP/d8+fvlnXRTka/lGu2i0RkRKASUT0vEzTNE3TtFumz0TcUfY8DGucSbFxePzjsgDn3NcVy8T0kDeOR6XohHfi8/r9+gO5LHe7n+GDQ1Sqk/Pw9s6RM3HpAz9fV04k9yB+kuHG5VVVmyckwnkTJ6y+APEi/j4ifcX3h0bXzAKExtg8bvQsbbI+dr6c7+W6C3Kj53TP29nTnL+ua0Vl/pNctVuklDoBWFTuTfQ6dOjQ8Z8PPabp0HHvA/Qk4g4Tmj7EsvbwGxdHtqBrtdVi7/x+oBjG9YD55yntSenmm/wL/Bb/kmwkGxzAbODct0XN3XhsETwE8Sa2/BaxF+yvKn/6JuU3xlQKgoXenDbz5wtDxEtaPg2fnCdgNCVqFjUARrAYwUbKwqq4PtnIB5YW+CztUo1D/6r1RuTGz+m2d053vKquDo0SrjoT5khHmHuzXDVN0zRN07R/D32T5Z0OcGkHr/vAHhNkgnsqdrV+J/T3BjaVe2P1VY94HYxTG9gMPY+w6pTPt9CsOBwCt4s4PD6rtDdNy0AstDgV6M4LVz8e1srNyjPs+/KvQI+isFcwZGEofRjfL/qhlFEphaqOc0eYYUCykKe2s6q6zxDo5Q8HBMlBguLw/vgVtim7gh5Ne+1rsRBQG753hnNgNCNFj+P22ofMVE5X1/X49odhXP4bq9UwDDfNVccdCb3P69Ch434KPabp0HHvA1ByaeezK8RJjKZp95CI6H3+QTNEnDqMYsUCqHP9wtBM2m1uffo3930Vqf540vBtP6g3OM9Aceg8lsW/0qU8q36prhpz9t4nrml/TY9phexm44tn9w0tUqbbltKljB5H7i8iovSN1ZqmaQ+MkEz8Mz8h/lhK3mtiQaUcXg3tk3AZhjF7ETj89dPlNE3TrlLA+GK/MsEB+hRiUtpdpC811zRNe2CUzmFm3BSl1Bd58ee4dxaW7N8TJsNaD4Z67JeQM33z1rEpukvbQJFDIl6p4v7OGFmN436Rog+JTHURSRLxSRaXARNlxKVH0kWJYweRDWKK3F9J5H2DVEyQ3qk1vxepVU5klb1IuhiCToj/6MECxniRiOIiyeI3YZqAECWm3iKzRB5OlfGUTRUpHSqSIP7P/dJFZJSzSIoY6+2WRvUaPCoyzkkkVYyNoqVlQuVC6lhN0woaXx5NmG265iEyqSJFmomM9hA5I+KQKcaQnVJiSk9BjC+LjBdpfU6+I5hJYve4yAIRJ6uU2zVIoVgv0tkg3plS+1xkYbVSy6MnEZqmaQ+MTAPjBhUXkeC8GByQDRNbwlKoepHKXbtjZc6VVWS5J8n1I884MTaU5FOkfduH4a+3fh++3Ex4+4wKQwY8wfk+gRnjujJ21lsCQhLKCDmohSX32DWqo3B9kz89zWNh2mFjm0Bz2Rptn1HHJxkSPvmAOnEd/ipr2+WHMiSsaDLHP/J0G5hgb/sjhLXHZ8ws+tjptvCFo21tKDtmvyIFPf1N07R74LrxJUjW4nNVkSgxvQKjVxLY94L/45OKGHO61LYdTOHk8K9pGNfqYVgHe5359kJo+tt47YVKBslK4PzyBgYMxuVQQ1Ejncd9txVSI7V89CRC0zTtgbHKjVmj/wBir4Sj49wRq0gsCYngYaPHlGgVU/TclVVURRvPr3hNZVjGvgrjDJw1cWRK3W1QD9cu25n92awfhvFrE1jLmcVtWY8nXDqSt1W20Xfhy0pt/HpNNGV2IcEU7f+LJWbrmsk1mVCL04nELIo89hefReryL6M6dDzMwpnjv4aJ5SAJU9tz/PrTuB+8mRgCiWQeDybmmifYaZp2j1w7vhhiOdfnI1u+iX3Ku5RYDy1x7rmdX3/8OMmiFn0P77lwVDi4NNIfoktxIpNje6vEJFBpJ3WcPZ35keTtlfmNgH1QDeeqB2jPmcJrp3aZvidC0zTtgVHtIuVlEIe2J+a9Jkm4kX3jdQLT6WSfAIrScM4A2LLPu1wAB9KHN6Die0kCGMEe29mLXMQVyLi0bhpdXOLBShz42lAGTnZ42SSWlwAM4Ejm8ZLTnbAn82+k7+idSnWyTWXJcDqMGSffZFzJcq6PwXkeZpTVQCIGyt1i92iadhuuHV9sCvtJZw3w8eUSGVAkGZxwDEigTu64UwTOu0P2xZzzfkPGcSKkP0dj01dX/wmcsa95rLH9xnmrL657MmksDx2DUDzrTLcEk1U4bdTy02ciNE3THhgBFr7etkQpNfdKZH66Vi3AeqWI5brLga7/UUwHv0x3yMbt+Q24uVUDqlghDMzVcMj/DeHlX0Y3EAQJBgw2/D8fD1QBqtggBKW698ok0whgSXcj91tLUwr43cmWa5p2t103vsxT7dmZv4QzJBeBTLIS/NiIA0A8+F0AR+x9z655kYxw2EzagsoLoDletTc/2YldVTkRz3p5bC/eHpRquN5YOA3UrqEnEZqmaQ+MI/Z0C+orIq/khd3LMnNkTXvIgUMOTBzYUQLWlrrpZuz7nasKm0hbFUGRLg2rQZnS8CUuNV6jGAV8vgsVYXNFbMc5/1srijWo0BbqumKYhnftjk5lOVsUkkmeXofSzXq0f5dBayAMVEGTGk3T/qM8h3GiPiwhY2o1uj47pIRJWj0L71ykgpmwdtMUNlsLWGfM2VjyIEUiCGy+tuMU0kNhCxmq3UXqZvJ8kT8Lux1aLj2J0DRNe2AcdCL++JvAyLwwjCS7fuNaMNOf00kcn/kWLo4t47xucvBu7mh+BfrVYO8yp+PffboDtzlH7ZpaqNp3rCpX8KVR3sp66nl4ooxlabLdqXW/LBTfUemOT/9JZOefy8VknesAb/nyZzax0eN+83gpsAnMB7MQn62f/69p94soZfkUXmrKqa/dT08ZeNLqOHeLMdyZoLefYpX/ShCqwM5gSIOaGbk3UFtVM1hrAhNuVfdRlYTCboaWS//YnKY9YPQPM2madj/RY5qm3XsiovSZCE3TNE3TNE3T/hE9idA0TdM0TdM07R+Rzp07KxF935qmaZqmaZqmaX/t6NGjmA4cOFDYeWiapmmapmma9h9iUkpRqVIlZsyYUdi5aJp2D4SHh1OxYkW9z2uadj9Q4eHhosc0Tbu3wsPDMQEWq9UKoJ9soGn3P7NSCr3Pa5p2n9Bjmqbdewr0jdWapmmapmmapv1DVyYRZ0RCvSX8iDx/sXL+AntEypQX2SOVVz+h7n1+mqbdLVFieEnkGX+RQyLGVDGE7JVSsx4VEMjifZGugSJ7RQznxFhri1TeXv/KuiIu3UWG20mpZGmT0vTK693E+LxIf1+RoyLGFDGG75Zyc7tYC6N9mqY9UHaIBNUQ+cVeJEnE/Zw4PjlVXkj3A0gT8Wko8oO9yFmRIqfE7X+fyQKcb2c9TXvQXZlEFJ3JoUj2rWbegqdzDyIgVaTIQJgcU3LaDKIbT7sjz3BSCj0Z0bTCt/ldGo+h2lsJdVY8yzBbkXHq4DDixn7C29llT4hTxU8oN/xMvY0vopTfF7atX7Br+ASZjD9DxKkVzJxRHMfSnE/K26Ji8SzaTaRR/8SGG7oMG2bz+sK27yMOj/vM9CmlCq+lmqbd91Qan8DY7Z4fJpv7qZJ7SKvQOvtHH+Yu/J+sFtOb8P46jw8wv6zKHCClctP0jyozaPWLs6LE/lbWsxV2ezXtXyDvcqZIZR0Ikzj7dSs+JojW4jAQPl/lOfIoi3qMUI3F8JzI814i0SJySIx118pDB6oDECWGASL9PEX2G0SOi6FqtFTZ3OTyZOGYSDNxaLO5hsgEMXRZY1iNTyG0VdO0fLbDGZw79uOPputUlLK92JHl1fkzi50JgbOhdbpX/+2sf2itQqmXBvNrc+akMTGlHhexLOHrN/Y/xjAvMrPybzMajuIZ2ce6pu6fUVHK9nQVllVit5ktFwIKq52apj0IjJyG76k2KEqNJz1cmZNawzKyj5Wd8D+81uDbkE6Dx6pPuVhB2RJfh0mc/K19t7I43sp6xo04FXaLNa2wXXVPRNhEdjzGyj18/e3jry/m1R/sBhVlxCtDVHhWzsg19J9s6P54crtT7ZXKLD/BtnEqW8eOkw247X+X2uOoNTi104nuNkXQJ2rnNA7NjTLE4ABWlkMFcs4X3V5z+3Sl5jRSjUksrAZrmparn1L71cV3flegQLF4HrW30yKbHl8eiIXyuITGWCH3C7c65JSE4yQdKK8mKrNSz+4KuW6LwlCldqvkF9cagDgRx7d38sRu2ibylLt+lrSmaXePOLNWqdlqhfMpABrbOa6BRnjVWt1yI/6HqGKit/PJS4WpBHHkHPYhSDnc0noWXAujmZr2b3L1jdV9bOYXYaL90acHjaBTZ54d/pzqQ2paBSefmfAc9ccMVwsCj4MjkbDW07bHhyzcQ5V1I5yOsM0pHg02VReOgLp0IsIke6ESvi8sYku1dYXQRk3TbsrGz2Ko3QvnkVR9/c2Zpo8SM8EJg1vGlUsYI7E5QCbmVJe/vhwxh7dFPioDaaMNdZ+n9kuvqrYk39UmaJqmXSbi2HsNI2Y7vGrjo8ZfOYFDFo4WTFy5PcsA2SYyTChMt72epj2grnk6k1DvIbZVwphMw4lvqQlOJwAuHqJMDBRnXcBXIhInInF+sCQF/2x4zDJIjJG+nJxtEOMWEcOmtjAK95AYypFDFA4xEEKx1msV+nYITft3EflAjI/1oPzk+KqLB9t21FwQGYnNCTKw5ZswzMKQBc4YvdP++t4oe95X6o0t4PyK7Y9XXTZ3mSLtU2ve1WZomqYBZ0R8m8GM79xed+G9T55QkaQLZDmRacKC8XI5GzhacLUgWG5nPU17kF33iNeETZTYT10TvX33XX7NAk6p9DrCSmuEUipYKRVsUypIqZkVdz08PWQ0VT49V3/lCIuy1lLDqN8OtuJRb4cClf4DHkcJCqSu675r69I0rTCJjBSeepvmg2mxKlLtaLAid4JgVuXgAGn7KhgvjxHzcTwGwQSWOXjjSUQOA0QaiP+vdRRQXSnzyGH83pYjRzlwsr7+BkHTtLspTcS3K0xfGfjVVuZ/9Lx6jTSAgDBOh7DNzPgLQbklbWyDsjiWi6cEabe6XuG0UtP+Pa6ZRCj2QIUMY6XzlOP85VddIa44a5z4PCYEYL1IyZISOEWeTi19Gooh1VJ4uUm0EZEP36XtEvzrUcovBiA9luB9VDPT3eXUvWyYpmk3t1uo9jq1X6bnL0+oJYH57lkw0RkWeaWMrkKd9U27dRPjx1N5bAU97OlbZP2Nt2igAlQn8YevDG2iy4OZye9S8w9cwihWdP8debqbpmlaQVQGQ+DjPwKmbudU3+Gqcb4zBZGkNCFlBb9/9pK8lui2QYyBH0NfSnb8ZdV3YrmV9WzBZBWUhqY9UEJDQ81dunQxK6VQKpso+BCv0dNRypD7mkKpTD6ALj6wB+EwlNxJ4MSnUcqQCt6NYAbitQuKziekdPf2sAieXM/8Uz6z4Cmc31nGNmWXtz0dOnQUUphz9/lO5nfhAxAzkJUXDhmEJfZWKpvh0CEQ9oIpGWO9DdTcX0MpxUmo6wnJQJaAFSQbHDIJOfusAqfO8KEbHAdSkKAY/EcPQCnjv6DtOnTouP8id0xrU9kcAWdyx6N8Y5qxzzY2KfcU8GoM3zjAOfA7jUfU+xxSDhedKHYr6/0L2q1DR2GGCgsLUxIaGmoOCwvjl19+0T8Xr2n3P3NYWBh6n9c07T6hxzRNu/dUeHj49fdEaJqmaZqmaZqm3YyeRGiapmmapmma9o+YRATA1LVrV/3wFE27z3l5edns7e0VYNT7vKZp/3UhISFmZ2dnA3pM07R7pmnTpgoQCQsLU0ajEavV+pcraZr23+bu7s6FCxfQ+7ymafcDPaZp2r1XrFgxTp06hUkpZQkNDTXNmDGjsHPSNO0eCA8Pt4aGhhr1Pq9p2n1AhYeH2/SYpmn3Vnh4eO7PtlutVgugn2qgafc/s1JK7/Oapt0v9JimafeeAn1jtaZpmqZpmqZp/1DeJCJKDC+KfC/S8YR8Rom8ImY+EXlL/L7/UuAmPzprY4RIXYlIrnRpe/aRIoskNLbP3Ur+zrumDZp2H4sXiSghkiIilqvDYJZi7WY3EdmT73Vr3r8dzFJ61+CTIhGeUueEjKds/u2eEylfTMKOyUs5EYXVNk3THjQWBohMETFYrxvTvIct6ivyrQRMG3/j4xjF9yIRoSLTXUTiRUxZYix2VJwf/1S6pfleOhb6n7i8vUJicLi81g6RVgaplCKPZdS+sqknxOVhkW1S8egzd73ZmlaI8iYRF3A4BGWNzM/kyz+62S6/PsveeADCKVJ3l7p0+qJA3YxOyyGKMiYPAKJycs5CTwylvrt76V9DqZsk+Ddc24a76dpcbzd3TbsFaTyUxjgVopQy5YXNTp36rcsqpSoqpeN87gcAACAASURBVExqMG6tYSuhiX1zl2fbqaMRo/R1A5qm/ev4//gVStldNaadf6+tPdhuvJJilRhqD8W48IDvgCMZVedWBavzUNvpjg0yp1VgzpAFMs7OuxusImN9WRYTmLueyGxootiXwaa9DS5/hidMpewmavvStdi6u95eTStEVyYRSaPw2UN9Nw8fRnBk8qPG5eQeSG/G8QiUpnzAPqLEMECkn6fIfoPIcTFUjZYqm5skdBPXVrNYvByXBsytOEnqpTQ5IvZN19NrJYPEr5HITmmU1OZyXadFQvylVIx0/azucyLPe4lEi8ghMdZdKw8dqF5gpuFi/6TIm+4icSJ2iWLfdaH0zixxTKSZOLTZXENkghi6rDFMk6DGItvy15cgUra4BB62d5bh4th8e1mRUQ4iKw3icVBKTO0nIFzbhroftnxCZKiTyG6DyD6RypulyqbG6ia5gGKzSEcx9d8sq3G9lLdXVfHZJ49l1L4210ZO8uhVua/Gh8ZiulGfHBFpJvZtt5YXec9ZZKVR3GKl5E8vCcgNc3pFXG7UH9Ihqd4d/WvSNE3TtP+avga7r+GNeN9JC0kY87ba0fG0Usr2sVK7f3OjV13rZEdGb37CrRV7G7A6hW9P5Z51GILjJqiFm+17EhY3NIAJrPwG9S86NYqjl8PxQm6Zpt1VVyYRF6HUWamSmjSUBS34NpPXY1sApH6G/14autLb7cj+d6k9jlqDUzud6G5TBH2idk7j0Nwo/w8PmV+DcTi8sJXYY9XUBrdVK6AiHqHHKEdiMTjG2fPBAMwS43AYlOA/ZNnrs195aLKh++PJ7U61Vyqz/ATbxqlsHTtONuB2dZpZjNzHwB/tezdL65RQRxW3lIg0z85k6bzBCyCEnPNFt9fcPl2pOY2UPSdLw2FOnQhVAFFiGAEDTnm/tnZoJslkZwccab1/WrZSTTdxoR8nf36VWQQy05Z+pQ3Hj1f/YONb1aba922RNUQ1samcsB/YNYboL8cYNn7uVWAuSxYOEgyyEqpQJOwwjbkIcHofwTupJfRNOLYcKuTlOqvRU1l4X5V746zEkWvoX3CfbHBbAaGY44vH1Fq/6qKyNV1D+hBOLH2WjZ8XuWFO7cguuD/eXst8r0334o9M0zRN0/6t0pfhtRf7SoR3+VVdc8bC/ULW+aawhPPrmvj8TkY1+IPTS5oJyJlRlFrJI240YpZ3xrIS/IwfUSbTWmiMT/PV1mCyCqtNmnYvXJpEKJZCRbzCjvIKiT3gR/Z987TE4JAAZc4bKicRRFKosm6E0xG2OcWjwabqwhFQCgayHirjHnaAYLLBJLuhEu6Vd9OY7FJwhLToMgJyoBtVvqR+Q5oM/H45PEP9McPVgsDj4EgkrPW07fEhC/f8SaYFOvlMR3rTaOTHao7vGU6ozGDoTbXH3joKFfF9YRFbquWeNozMsYbAHi5sDTOAHH+X0K+p2oJHXT5LhhCKDf7JsihkG0BpOOnHaSE22xUsV9qwqhUes7B7igYjPlKfkQh2tITNRdntyvcvhxaYi32NN1UUxoNQEfda0TZQoNgH5XCodI4ypVL3QqW8XE1y9f8hrYKTz0x4rsA+sW7y3AuVCBg0m831VguCG5gxOGfz9cueN8ypcY6lwP7o+vSnCvRDtR9wrmxypb/sEZGsvCh5Qeontf4767uwyYUBxj9E5OzlCID1p/HwvNu5a5qmXSf+8X6I2ERE5YbJJsUnjLHc5J7OjFhckyluooTd+euXGvGFc2SnuLF3j6EDLCN+Q01Wx3msg4fwbBJTtD0H6rPuDOOSa6T/iNefuFaiau0V+sk12v3u0t+4lT0QgVut3TaUrYs/8ytljirK68dqLIWKFKl4hKOSPUiMkb6cnG0Q4xYRw6a2MAr3kJiwnYvVQQijSN1oBYohOB6BCvjW3K2wqBA4QGZcaX4X++Hwsi3orWmx05EYKM66gK9EJE5E4vxgSQr+2diTkz/JC2cot4O2Drzkvevya58olaaqY4uBEIq1Xpt3v4YdTWAXqQfLsFScP4aBaYFv/TrRt0/sEShLUON1xkvbyAbvBAJtRDhcIMredLkN5fZROpo2Bt7w2H25Pgu4n8ML41ICC8wlLjiLczgehbIUL70nd7QyswEicA85MHgWXJVrFA7X5n7xEGVu2CdJr3AYKhDQckNueQvLoSIeFWLXfkvRG+Z0g/7gK4f9d/ZPSfsvSuehdMapikopx7w47q7We/3+d9bPoGoGkaM6AFUux3B4xJcLqXc1cU3TtIL4T52AUgallOSGxaBO9htousk9nc6lSfPmuJVjWX7XL7WSAH44FEkhPNxSxZGtZVnqxnfzQ5ZDI/xbrDndJyejNmzkyPJGO49SeRcdc3jdbc/dbKam/RvkTiLUBQ5AOUqW2yuA61nOdeHiPNZ+/+wWiMCz9q4d3ag/miqfnqu/coRFWWupYdRvB1vxqLdj7zwcYzGUplyxvQAXf8TzCGUDaOS6H4w0hMOkxvr1aE/zH4ksxzstJ5nAMZVeR1hpjVBKBSulgm1KBSk1s6JqwLlr8nSGIll4kA1ADbETeTZ0yny8jhIUSF3XffkLl4YYQ85eD+MAGnxJq1r06zy+5wTcj+FdjADTpW8aLPwKD+Fc7QhlSOIwzpfboMAR3Mw4Y84ta2UZ1LQ41oj7LJbMgnKRWRgTJhBwmOoedPaKAWCgg0M01Maz3q73xuGeP9f0H/C4NncLON2oT9L6khNLUFHqOuce/M+yyz3r4VY1uhg43SinG/XHTW+S17S/SeGgaDgwUSl19nI8DYl2KP33pWnaf4LrEyRVwrKTvTO6ChjzL0st4ei1Bh7Gt/EKG9i8nuRsDU7uY8tPzXbgH07L0n+AHZGwjnMrqo+F5vg03E4dkgurPZp2r+ROInJSOEJEAF3cD+W+rFQ/mOaf+FHDn3GoR6kSexOgGFIthZebRBsR+fBd2i7Bvx6l/GJSp+FznDB3qtrFA6QkUuoQ1bNpY38awBlOuKglzqutvEKl/423Pc05V4grzhonPo8JAVgvUrKkBE6Rp7NKX5ukPZzwY50zI46G002MUdt5AXH68o9dhO6jmpnuLqfyl/fuyalaLBZDDMMo979vrG9yKu0cQSe44MXm5Q0FDHvErsRkeJLyPb5R5cjO3wYXOFyO3+x4c08NgM1iKvUp9CWs51ddIaagXPDFyQh2OViMxGfbESWGD8by+O+UrE4Zv/3psQTnz/Xa/wPcrE/SEwjeT3UzkS4nAdiLw1EoR2DEXjc4fqOcbtQfd/KPSNM0TdP+s6KU5Xn4KOB8vxb4vvSxVJsXKCKGoSLhj5xkynq7F9N5o/o0AZhoNjeEFcTu6rmddhl0s48F8Athd4RtitcCaE3xdsv0F3XaAyE0NNTcqX6wGZ7azDbloZRCKYWaibEvfAetzvOlCk4F70YwA/HaBUXnE1K6e3tYBE+uZzBlm8EaqBXLI6erT4VncI1aTO7j1VBP49YYDuLw8lq2KefcOjL5ALr4wB6Ew1ByJ4ETn750GpKrYhiGN+CZInAU7M5garmQhw+XmwVP4fzOMrYpu2vKm3rCXEzPb+dX5amUldnwJF6PL24LnxthP3jF4DvqVZQyKqVQRfC40oYu+2t8Cu38IRqRgxC0jcCvn0IpQ8G5JJRTSqEise8B48HrCHgvwY//BVDrIN8mB1+dq5WCc79Rn2D4BXrh/M7Sy+WTIbg4lQ4zLCvkpjkV2B/X9K+OBynMoaGh5i5dupjPQkRxSAEs14Wh117WqSJKKdRgnFrDJkITn8m/rbMQ4cFDJxinyuZ/PQHKBxJ6jIHZEf+C9urQoeP+jktjWkdzf5iC/9Tx5F7KlK8M0h+mgFivHuuaJDM8q3xuGRtToHIIzHKGc2DMxlDsKE69P+YZ5ZV/ewlQNQBSCZg27kpdwzA9DTOgTQJfquB/Qb/o0HE3Q4WFhSkJDQ01h4WF8csvv9w/j30PF9fm+5i/vPb+8WpTyGzI5k1x/HR40TnKcrrTq8a/3sL95br+0B5g5rCwMO67fV7TtAeVHtM07d5T4eHh3H8PDwgX+xf38dZy149PMyVkAQBRjvaHIQTPWvsfwAnE9f2haZqmaZqmabfhPppEKFaJtHXcJ3ETnF4oQf+hA1T4pac87cMpDqcgyrvHFHKS99BN+kPTNE3TNE3TboOEhYWZQ0NDTYWdiKZpd5+Xl5dty5YtqmzZsg/cSTlN0+4/ISEh5sWLFxuCg4P1mKZp90jTpk3V+PHjRcLCwpTRaMRq1b87pmn3O3d3dy5cuIDe5zVNux/oMU3T7r1ixYpx6tQpTEopS2hoqGnGjBmFnZOmafdAeHi4NTQ01Kj3eU3T7gMqPDzcpsc0Tbu3wsPDMQFYrVYLoJ9qoGn3P7NSSu/zmqbdL/SYpmn3noL76sZqTdM0TdM0TdPuhSuTiDEir4jbsOWy/ZqZ/Cwx9hOZKN6d5zYRWSGhsX3AxgiRuhKRXOm2ao8S+64iiyU09rkClhleFPlepEO8zKH4Vcsai2MnkaUi7RNkOiVute5uIr9J2LFnCloWKbIot62adn+KF4koIZIiIparw2AW/4gl1UX2SrW47teulyISXEZ8YqV9WqN4kYjiIsniPW6qXPOlxFGRWv4iF6To9NECcl0CdcSpq8g0qbDkBUFklkgv03W5iEXE0SwV4vqdFfETef+R3Kuec3hHZLj4ffdVgdv+lzskUttO6sTJa9kVrl6iWCnSQaTdwTCRaTfqu6v74nZk84bI59fXY2OWSC+DuOZIhegXrv7pXSuTRfqLeGdL9aRut173zd7DG+X1950UKV5GXNdJk2P1bj1H7b9kgMgUEYP1+jFElDgN3izRuFy9hshbIh+Lx0dzZa/Y565f84L0yqh+VbEoMT0r8rNIqxSZTvCN6j8lUqKUuK+VtnPr3jCXIiMWtvhUXNqIrL29/acAUWJ6WuRnKfrz2Ov2myhxfERkpZRaMzRGpEygPHSk4Lbk0EektTySeWvHVpck3LAOkdvt5780UBweEVkhlROfuG7ZEHG6/b5XzBNpItJpjbxKwK1v57/vyod+S/iT9P0lycAzb7FiQzfqTqR6CzoMf9sCXTGU+o5uRqflEEUZk8dt1T4Dt8N4BRHhvfu6ZRdwiIFysDGDb9LL5i2wMX0NnRdCOHalYgkl6ZbqXoLrYQKCqee787plUTk5Z6EnhlLf3dK2Ne0/Io2H0hinQlTur8tfCpudit/dqgPMIeanHld/sWBlJnQ46tDrJFFuW3O3QSpJs2vxMSXzyolMhs4JkFpwzTmM2cSzs50/tGNOyykKqwKw2g3Yxk7lcXU+WXbqYPCEE1Abd+cnTHfwDKqIFMrZ2PID2NmBTYf4ZVMXW/4FUQbTj/AYRZ9a6AYvYHZ6S106bXyZiBjuRl8URBmzEzn64yOGjTjl5WhynAuPQFLC3avZASsMK6j9f1dxZTs5lovDWR01Qubm/1zT7mv+P36FUnb5x5AkCCqf9a0P/0uvlb/ohVC8lkE7yj/xowrHnPvq9mSWLIvMP0FPeZcSiyDCQHbmDeuNEtMbMDwueM4CFnbaeKNcVPLQtktPY7vhdm5HlM3yFPzI2Vkt+A7//Iti3qXKfOoH81Tt2eUgFiy1OcDxq9ZXVmYNcXA6DoMwWkpyV91iP9+uz3MyrfAIF7zm3fpGhI6K1VHMXck3X74n8MA+GezKB5AvHCrDVhM/ZOT94dQxOI2Ad2wl3vl++3ehfuvptZK+4tdqFouX49KAuRUnSb3EJptFOoqp/2ZZjSsA4eJVVXz2yWMZtYkSwwCRfp4i+w0ix8VQNVqqbG6igDMHKB1NPejjHnttYkmj8NlDdbeikriZmFPhl1+/4G70/hQG2pnYgFtIDMmSfaPtX8rF/kmRN91F4kTsEsW+60LpnVni9CaC/6SMNWCKSzdXkf0ifvFS8qeXBOSI2DddT6+VjMf5iEgzsW+7tbzIe84iK43iFnu5HACNxfScyPNeItEickiMddfKQweqX9seTftvUaovzPBInxHBtzkhV17uZnKaC5EE9fzJVp0MgAvUTS3H6gN8s6N93n5HkUV4N/YysRGlrjsITA9w8PsG52dpNWD03/n9khMitdrCl6S91xzpsUw2zvPKXfK7W2ORKY4ix0XKxUrIiq4KQMS5s8gIB5GjIhIjdq0WSrtz5SCb/4mMEv9Gk2uIrMV79GQBuVn5V0QmSOAvn13e50+JNBN59k/ZPsnjTZGR4tv6m3CR791Etom03CilpXlZkZ/cRXaIocsqGZhR/LoGjbFmd4OpxP3c2bgBt8svn3uXUksp8xAtQ39uClHYZX4giFyVs9F5dwuYmNcXk71unCMe50XcW4lMsBOJM4qcELsWy6RVYoXrcipIkYh9lS1fFmFsxpWzzkffJWIh1V3D4cq4fdM6RFw6ioxyFDkh4n5WXAZMlBHk+wLq+vdQEDHCu5fb/6bISPHr9HUlkUnOIutEShyQkJWRN3+vhTbDWNGF71J4c3e3W5qJaPeFIsM42YLU5Wyd2SPvjKliwwGabOEpKyOLr7hS2MNxDWenNTMt4dIYY2UWtDnjW+xwSdLTblTHnnep/SNdI/jk4e/+6d/aVpHSVUTmiZgOi5hixKHnVOk7quhQkc+l2IKPrQCTxK6nyHxxf39x7hc7Obwn8p74Tx2Xd9ZBaFSXdU34NZXPD7XKq0Hka3hUeT26gSjHowlQCkybCaFkgkgZX6m939Fd3rU3FDnebQzrV2FoxNzi08RbPvOWBrGy9tIVH7lXcPwuYecvXcFhYZxIy2Ii20XkmIj/UfEf/fLfOqj+m/28SaRcJZHfc7fveFycX5wsY3AH2CESVFVknknkrEjxOPEfM+hy3QoU5x8uGyKyzEHkrBibbJUWSRUZYu9khLm4J3UkShzbiKyUYr5vB4jMzh3DG2yWNrlX2ewRKVFTZJaIKVbEKUZcBo6XqNy6Qan+MLls0vC6PHkx4h++5feNK5MIr8EkViDuNFtSLx2wW/lmE90X8KQXH5Qbuw3C8Qg9xsCZZ16DcTi8sJXYY9XUBo9VK6EKRcIO05iLAKf3EbyTWkJf52P736X2OGoNTu10ortNEfSJ2jmNQ3OjDDG/O2yEUJwjzhBA8rWJXYRSZ6ie2lqxgaQNlXJ3EpHxafTZ7v32/k4WMvGstWt3E2oVvH0cIIuR+xj4o33vZmmdEuqo4pYSkebZmSz5bdAfEAYX/M9WmL3poiJsFude48Sy51i/23MFVMQj9BiNJW0FhGKOLx5Ta/2qi8rWdA3pQzix9FnW4wlZjFxD/8mG7o8ntzvVXqnM8hNsG6eydey4e/UGatrdEjCRg23ZtYP5q658W7RrFjV+p5UfL1ZdkHeu3Mfm7Mwcjky99I21YtU+GkQ7Pp3QyUIcItdcjqKIjqdOtKF3Ju+4XX8msAAllHnLW/AFnsNWoH5qrup0TBIQzp2us7pR9KQsRdBoDo/m6PxXDXtfdP0EBvxq17tezjNpddQwKrxnWbKelaPHysYnnEyQTYKx4fY2sQNV4sCnFdnqxuUbO90sLxNYSHKvtW/AxTfT+lDnMZYmcuLJEUcGqsEXBlCnq5qTw+Ijna8/qDDQ1oXFVdQkF95MunS5jZmp0PG0S88D/K/SrmvqycvZkhr+Lnye1xdP3ORs7HZmQe8l9i9WtXysKlurU/ppy7LTbJ/19rWXnxXI2j79YTJWsHpxt9y/AZEp0InStVaUhkvfFlpvUocYRsDA+Y5DQrKHqopJpFVolTGuNBOWDBIc5EbvIXv7XXXZiQksnLM02tMnZUSGsjSYzskRHJ33yk3f69U4EmXJ6QjzOT73EcO1l+pqD44oZXsOpnFuVmMmUAyASQa7afAYJXr8am1MypWyAX0PtGVWEsPONMld1+Q4FzoSdGqugeu/EMmVxU/QEb/2G4gk8Z/lJvYjYUy033cHWWUJUUHWSj1zfoJfXd6vA2tJ+qOGKQaH9LfxWg1ehrRlnpzFmygH++1Qi1ItVl11tm5DTloHmMXRqY9JDA4A6QH4LkVaUq3HVMXVZ0HswOzDFvdsl7GO5okXyqh2NKuIexyPnOx5Lomvb3Yt4YVQO+8f4PPTlbeMsilb0EoSHvNM+GoQvS9W/st2/51+jhLTRPhgj883R1Cq9BmX7Bp1MidUZ8KBHnujxP4TGLMz4Me91lWq+GpOtS6dMPRFmqY2AzCAgfMRDQ52v/hUdhgln7StPsKuRf0muee7zCsJ5QCQ+kyt+B/Uk2nDqNWP9bvZseiFgWPE4UMYs81zdCKLLCGKrMqdM8YGMGX+a5c/D72HcaYpJ7ezZmu7v2zvfSrvQ+RzssrDLs5tjLACF8UUMBaGUPuN4erJsKTdUAn3yruhm209VMY97ADBZBNlbzoIFXGvFW27NPnbB+VwqHSOYFJClXUjnI6wzSkeDTZVF46AUti1kc1QDfdKu7lyGvEyK0uhIl6V456H7ZzfU4Y4HBKEMiOpEsmj748+B6UoXnpPRWX9o8DtA2mBTj7Tkd40GvmxmuN7hhMqMxh6E9TtrT+hCn5D5rC/81yFUiFwHoNTFk4Rtry2ovZCJQIGzWZzvdWC4AZmDM7ZCJa0Ck4+M+E56o8ZrhYEHgdHImGtp22Pz717CzXt1rmyyZX+skdEsvKi5AWpn9SaPjbzEzCVEz93MK3GkygxfAPd8XtsBQM5lbcVA9Gvsr62bZwbn12oyiyD8UfoQrmuc0pA9vW1WlgN1fCK2E/l3LMZV7ZkHledKnL+6nweOSnLDgcW2ACfxzayOmIzKNUVtmOOd+XgBM/10IbSb/+oJrvGE6VsA2FGYOaisvzxZgkBRZGO0SwMzj1Qj3J0vHH50X99XbDXw1sY43yKiVnm4nAU7+abGE0CY8gpDrFknvQv6NoF13TOtUItZPfPPQUMtLB3WQhdKfv4NFUu66p+uy7nv606ITCenOCH1VBS/8/eeYdHVXwN+D27m03vFZIQCERS6KETukpTqUEUERAFxQL2boKfDX6CYkGwN1RAQEREeu8EDB2SEFqAQCCFhLTdne+PEEjbJBQB8b7Pc54HcmfOnHNm7uyde6ew1VzYFdZw/ngNdlP1IaPKydILfuXE9M6G+XjRCLcF+HXmnrlz9RcfXPTWy/gRp3XQjbpjZ6v3yHRXKrMh9MOSNUGRX5S/ojo83c6unC1evTYxzfUg6GkPiVXW9eb8QNBzJ+wgOz6Ic1zd9FuNfwepD4xGxCIiqkgMFqnxy+SNMWztxV8pfBTfSwFnRlFvAU0a06/jjFKjadN9+dEwm33T7xXQHxxHwz8ZZo8PG62WGWtvPACN8L49rtQDvRVbSj7IZoyj5iZCIhgw4CfVCROHVN7z8Aun17fq25ukGnmrvNiE95FTNDju+kxyNGv28FFmw7Pj8d1C2xqM8tlc2hgb7oc5/jnT6/H2+QZgYXEqd8TrHsvkVY91ZU1XoEwEFNDpoTlqZNlnscpx2Ws+UxtacVuLnwWh87PsasS+syQV1Kgyc3XiHKtMQTCUtOHPKjD7ZXO6KcSTkxxoeA//jdRvyH0Df1adMHVUBXtrkteSLNcVxX4R9OZM9bPDcXYXFjSBbRSc9lvjVHqtiAJF4BPz1RByiC20hMB+Ck753fMG/huo25j7R0xTPchHWc4/Cz+QuvR2Q/HamliTpSlsI2tLs8uJ261EiXvHrFrANs7tbGhIENt34Mm/nd/dx1eh83kGuySoj3eLnSoW/X4Ix71tvALFaewOQj0CgncV1Uwh66ARLqH72CKFY0Uf7c2x2TrRbxbRbewFH+ASmvD0HOQAROAdtb38nFeD7IJGuETu8A7ioL/a6sbeEK8YeDY96J3Z8fNIS6CpN/1mJljTTwgFWScI2UYvW8Z4XvzhnaDUOdUN814Ix7/X6qKyTSyBcNzqH7xjBaYSvhoToT5+3dYVp1sKDXCtn0w7cnIOUDcBAljjN1VEDonIIR9YlIFvBQ9OGho3H9m0zuYT1UApZXdJjriotR4LQegexPI2fKd45XintAn4LcajK1F9p5e7Z7t+ldmLwoWsWzhwyxCCfqVTKM+al0iF89mNkga+2NU8aSpz3WLzRBx/K8/S9vwWoO6od7ysFgUKcSg5vcACFshFnwvuJDT4v+L70g2WH6fAns1GDwUKg9tZisvOriy9nUdl8VOg0DtcnL+rBzM6uwv/z1P6IpusvMxT6jH4WX92ZmveygvasoQ2y4h25NWQRRWWU9LmyyAHQurx/Bci+q0i+o2j4UV01V1LIQz/ht29mZPKm8ldl++kfbzdyFQanNxfrTLOoc8GVxwdL66NmaDUOXU0OveiXxXVod6m/A+92OWUS1dpXed7AOjgrCeptuRT6VcljVsE3x+noJROKSVFYtKpE4PGjIw1ne8PP3N4+r26uFEOX0D/DLf7t/OhbUJpBbbcbsfCgMzv6/P6X/W+gX4EDFl0YCNWpzJxAsNZcMfNvvQ6IWu2ZF26j/PBJQNfPV0cL87I8IZMyLRjGBlt2HCYrw42ngtt8X1g/e2whT1xrffm0fCE3e1HaMTJsub4zORQTw6uZfHiez/6SG87A+6jzpBZlk5kV2S+CTcTDfVW1q9VQie9wQ6Gu8yS1aLTb9ZPYsVGvGqhqrMZQnXinI8OOvshv4vot4iw4UfoDhaRfFzS8TbQzphVlNaGNUqlq60lBkK2Thf7jKK+WFVsl9HuYh+uK+puxD4Tl0KS3Jjq8ntR36I71AE+pvCsLeeLvvCAjtvgBLlpnpcTtlsJXcl/doEdZO/20/elzUdE9KfvE/+nIijI+QG3JOr50dFpL4k4JKMLJsR/N8CpKfglEulKP4+iG/EpW9t4aIVbux07BhI1mSbvn45aPt6kzC1VDFF3wRZc220b9xlOCdQIpIX7rnJWxWK7D0IIvG137WFkRLDmLI8npVGViwAAIABJREFU9pnKwMa82WOqVwq1k2lyrtfLj4VZ03/hIccB3PNwvfA2tLnYiDwc9uUa3BMJCKKdw96i8mx0e6Ehzs3iv/wI12Jfsz/DNZmgGrS9kG6WjX4/NMC5abwZLCawz2RYEsvNjZRStZVStS1KBSk1s8E/WWkaGteNQ3kZd8Mc9v80aHouPfbaPXKc55y3lUtnfkgNh9mc/CVqbD6DznkN2cbQtidugMVgj9ke0ohIeqH4viySXf5qRt0Lb7lKTEtwqix9/Y0CCnWpr0wH+/JTtK6MWjHs7MvqA0yf2/sbGEjNwQtM0ZyuOLW1qRQXvlRUZOMZsf0aJid6f32caeY2SplaT4JJWKzrKsvhYRTcC7+SNGnANIgm5ME56miJL0yxYrRahjNmJ8giM/3ij+znIl5iPzHwmqxRqKyuf3XZdC2K0LhV0HOPPX/clvd9DSZ83nYR3EP4gz8qMJVNuf57jvdi52Zmjhs0H79O9Iv6zT/3yhb4V4UtZLlzwsTSnIsvLE6CG7jn4rUmux2s5/DE9muhOR3qb+4FWzn5R7PvoBN+3ddYIiv4ehCtzCNgOidmdfu/j2k9j/b1eLj1nEo7LUOF/imwKDIvDgp0+VwajG9ZxR0/0GlsVt89o5TF3NI8nK7NSUupQE+FVBXns2IX+BMOn55stuwrip7x2t4LSy8YluXBCfOluBUySCRQAndX+uKnuuS4kmlD+FleOd+tuF8xKRWo1I9NVZsr3NDnFqTU2yi/UJIasdTGuJeYbP93fuE7p50AGWnUOUBkPj2NxzOn43WEcBea2qQC6MGmAJOe1HwbYkX31sc8sJBakdT12Hsc/JFmGTzbOV6PyNvj6LUI33bU8UnISSR4N63NDHM4XNao7M9wTaKhH33c9xNLfigkkez2Ik3e+NjyoPnMMgjHLfxIdC4u1vQDGOGoD2scGH8wgoGij43jMcT+szXrCN9JSwv9HYsbu91BCMG/wS79UWoX+5p9itp7iSwk2vEYALuxPQgh1Gy0Wwc4waEAVtkzKSEUYK1IrVpS8yt5KC/4H6sxDY3rii2PwCyXs1OavAUPEzzkZ0sbKtw5IyCGff347cR6PEbSvN8sRYGVHUgKlBekknfcz3AZ23fqwUxhphNxVSza8/4zvz38xf63BsszeEAhn4l0ERn9vsQ96VAufWx+nvX07zp4wgnOHwgmDgPNxWYS9L1WgwhizQWDYTpHn3vgN+pE0fP2X6qzzUfpWOiwamM2+hxwxb1ZkmUkhWvFUOtb6Ic51468akxnAkDRG/6qm/5J/Zn0bMoLdReXupxVSRlhkabWsITk9wfJE3imiTj/Ad/iVX+UDturj2FldX1hRykLeJzBJx8H8q66PI1/NZ4vcKIHqUv5XffKSobDJN8VFaUbEK3MD8NM3YGND8XbjTzJg8b9FaW7SA1MHpBORq7P5drkFsPxViTtZu7c+wX0BIr9+3AfPh1XExWV0R/WkPJd17/o78Fgh6QaHUmIMH3kNx2HTrRuvMraTdTqDtZ14adzZw/xer7n/et5qcxOTNZwwmLgnI4zhc723mT6scfM5+l1QLFsHI22Q3hRQkU6uCJ1crgv7DgDRf/y19y3Cxsf8k3l+9kKqCrOFnDIINBA81aJCpP6YhztlkNLTNmOn07meAuS9jD7p6HyOTarxBgSD4sJrtG6Wn5WwcgPOdGaPTv4/IeHJA4bRPRjRR4Tv28fv7SQ3cIBqIGd9392UFH6k/a9nAsl/XCuDPfijXs+KXqbb2ElhOEUlsLtZLq6cyaUXUd5q8Of0jcz0jOapG7E/8G7NefLOM+Fr/vg64bfKe71SmoDizqqr/fRz3O1SI15r4UG27chdRuLnoiNhk44NT6GQ4kFTRfIOUWdBJpl05HTYFLNYCf2T+zkg4i5gkG2X5jq1Br+qlj/U7EyHy/vGBJHcOht9z/qfi+zbI6NM3TrRtexj/TLJxCHBidwLtp+MmMcPgdo7Elv055LvsZmroMwHBocL5luPw096Wa/F8BN5R56lOTXvObf9qXoJLE9tX4/WjN2HV/bHfqnK05D41rgzEZnnpB95fYy1w/fLWtxB/CKIbEfyTvSiK7ByxF/WH3yizUXDIJZ6Aad4jW3zdaSgYFOsI2zO+sTT6kfG33hx81pIpnlzq3wmvpTLVgbkP1mfZrf87fM2V5+x6NizD3U8/BJn4JPt9l8IJt1YkweLY3eI7T/Ikvkx+fLZzBiPX3s+UHwY8OsV11p5ble4gJnzLLjAJbcAs4Zr8FAQkfXGixuk3Pc+YTLiCQeddxddR4DbWD1xVjMsvG3aqPH3NwuMMntQJPndTqHHe31vd874Mu7tfMneXLnu5Nkt52xOlY6xHCyB2zAO3otD5SZPjGpoJIy+k8a35opPQum7rT9VHZ445Aw3/7R0zxw18SLayKuhsrqug25F9bXNcKp8ZGKfms0/mPEKssomO6RZ2lOnSHzzK3Ispa0eUc2dIRUbhsyV1X0tr+U3tyCUNjB6RXNLvtck1hV8Aw81Th1yG2Ifp8cs9nxs91D54keGqNABXVkT4eCHBe8uhymE1k8zrmWmI+e19/nyCgH64ObxYU5A+BXiymkDS0HlVtQbZV6nG+AeSmrak93sh0/sisZU3R/+H8uOsfFt9t3vrcubEKZ9CC0gsWd1TdJDHTZJrO817xX50XTYAq/Zssd7/jWo011iqsszl4xJN3F/h90n7vPE51b3EjHF3p1hnGGk6P6fzx54bDh8FTj0yNDdKPkWCf8lu3znvgtkzyWVMvPKjg8TBW8BmOanXqktjTXHdChS5ps070njXsuujidN9ag2w7NcI0s/3X+P4KEhYUVhoeH8+uvv2o7V2ho3PoUhoeHc6Pv+Ww/8WmX6rx4R/Sxx9RMlw03yg6NW5xYMQ4Yx5zZ9bfPt+xrMu1fdyqhRnW4Kfq03SJRDRj4MXNm3K76cuZG2aFx/TjjIP6tc/0XJQ49MFR96xB3o+25zqiIiIh/9qAiDQ0NjYpwOpl/agTnvmLhlDGym2q9DdfQuDwUf46j62yGevBGk5naAELjnyQiho1DmLmb51cM/WdOktO4uRD5JJeHEz1e2cC3DtXaqvxWRBtEaGho3ACMPNWaL/tnv2ym/18PmavOoKFxWRwTXcBT2L9CxzdfUPeXP4tIQ+OaEqtM78ErQUl9++h7HLsm8/I1blYU84ROsfTuwqND31Dwn/0Jk/Dw8MKwsLBqLrDT0ND4N+Ph4WHZvHmzqlevXnXW72poaGjc1ISGhhb+9ddfutq1a2t9mobGdaJLly7q008/FQkPD1d6vR6z+T87kNLQ+M/g4uJCVlYW2j2voaFxK6D1aRoa1x9/f39SUlIwKKVMYWFhhhkzZtxomzQ0NK4DERER5rCwML12z2toaNwCqIiICIvWp2loXF8iIiKK9gk3m80mQNudSUPj1qdQKaXd8xoaGrcKWp+moXH9UVBmYfVKkdpNRL51EDkiIqdF3I+J7cAvpV9OjX/WFgvjRdpKo/SGFV8XeV7kzroi8+xFUkXszos+ZLt4T3xYVlb3wKQrLfsf0BkrusdFvhPRF4hInoguV3Q+J8X+4U+LDky6xYgVY7TInxKWPPIa6tSNFvlWas55X/uAfaWY+VQkqo7IEoNIqk4kTXT+ieL0UqzMunQqaXkUm0X6iu0z6yXuuMOlf1P+gKGW4tlEau6X4ZktSqUbJTa3SYtBxQeCaWhoaFw9ih9EGoSJ/OIockrEkCf6gCRxevRteQnXy9NlYpLIi+L58c+XffaDhsZ/hEuDiDvF8T34Md77vbO595yOUEp5LyKjWa+CWZ6s+naC/BM7OSlVNJQZqLdfCrHUNZS/yWNF97zw2vtETj7o89SMvIbTQyeS7/mwJfHNoLTnXuGRpU9e1XZq1soutu1a6iwmC9uDEEr4kVFKKTulTPbfqdMtO+Z9FcaPX40vFeursaMs11LX5RBbUHASBqOr8+0101kcQ682O7XVdFfGeTHU/Ay+OhTy3UxzjPK3qEKvL9Txfg1yxvfn5VWjq3df1cQRFlDAXeZIKjjI7QJmG1UyXcbn+B/Heyz5OF4rfzQ0NP7brBdd01dh4T6vJ4+dbzy/6UjMzo9aUgY3z5nWnilvfisrsbvRNmpo3FKEhYUV9u/fv/AMBNajRjL9M9sqpSiW9WBPd2WbCF0x3B4XDJOcYD1Ebqdty/Y94D0X2AAdt3FPVrhSChWD7gkY7Qp7BY4gTeJpvLGzRSkOQVeMPTZFwhTou4rPqN0NVoFjLtTaQ9v0zpfKt7AM7oR2iQw6E1HSLqXMxEBzan0buSsc4wPwoh3sFNgDjTbReEMni1IkQldsem4JgTftYbkOp2QCp49BKVHROJUs296Wt0vZtkJ5VeaLCsc4BF51hkNgSMOm/wKGEGbdnyIpirV3Mn2yokr6MxeGoBu1bTj0LWdHJT4qsO8L422QRHDZSa3I17rAKlqeiS4X70XBPlb9KY5XNer5ctpDInSBYdtZodwqrY9K/KgohnUJOsiwnBZlr1VaZ1W1Cas2nIreCL3RP76JFcpJFdW/RxM89zAop1VVZVbqW0cMD8Oj7hAPHEDXZjWt9kaW8+vaSGHxPX8KmtrRPpnPVO2S99xIqEHwEtdin1xgD7AfguMJmnEfCtkEfTE+vZ6tKQ6X/q0cVD1sB8EEPTZHwGMLtXijPv4JDMtocTHdwwREwWZwyIWGu+hMz8YY9nFH2p3FdpyGUHeaJvJyXug/FAdNNNHk1pCiPq1fj8Lh8DPuk39gq7IpmeYoBMDDA/lT2W6AkAawEDgMtkewH/0lk5WLUhZmQavasBVx3I+u428tYCoeH/2MUrITApvDLNAng10CDk9+SoxyUUqhYrDrAcup6fW6L8x2gq0QtYkeZxsqpYiDoCYwTw8nwf8QPpPHopS+Up2aaHJziwoPD1cXBxEqBuP98Cs27bfg3PdBwlf4XUpsYho8AVFHuX1vc6WQJ+Fz5I4ddE9qpGLQjYTvqLXqdbNS7IE20DKBvkcbK4VMgBewf2kVyd/YfQmjoeURWsR1KNJtYRlEY/vcapKVXSkjYzAMh1/wnzvBZNUR5C14GeOoZTyjvJQq4HsYDA/uYM0O9yK7I0/Qcm1ni7KwBvrC0J2sUe6ly67Itsp8wW4CPIdx+HL6nqqhArCPhl+pMXPiPBhYoT8X5Ah0gG7HmK0CSsb4MxiD/TOrH4NnSttRiY/rJ3q8By9hfHwZLyl3FYnNCPgE2qbz2omIsj5Z9eeAsq1+PS95/VN4snrtwcQ0eArX8b+h0Futj8r8eDkvvOIY9k1gkfIpe616Pl6mDa8lRLwDMXh9Oh2lRClFCjSDHntZofwqLzMX63o3RUyAsegGreWulFpK5TIFRqIbveEfuvEvDiJUOE69YBnGdhtx7v4QPlOCi31TRXG5AzoeIPp4uFIW5kE7JxomM/xs44oHESkOC6Ef9N7DM+cDVQy6t+FZaJJZahCxVTmkQDuI3s0K5aUUMhY+xmva1yilu3gvOL39e9mHAU000USTMlLUp/VuUdgaDtAiva/VtDEYhsEMvL7+BKX0JxzxaQPbqb/30SNPY38XrCZo/itcGjTswPPjX+pNxnYQzMVt8mf8qWwVOPSD2QTMe8ukFOpJbPvAchxfnM/3ylHFoBsNX+L745QnJ2N7L8zD74d3WKEMKyEsGLsEejxzV6U6NdHk5hYVHh6uLk2biVUF02FIz8I1X9Y8N3eozZ47EsQYtVQarW0tGGQ3NKTG2FksCY0DMIEN/mP+MC0M3kEEYgJbbJxzBQhT5g1wvJFlTkA8WFRbSAKlYDi7oSHej/3J5mZrigo2sRYa4xK+j9rkl/pMchq7RGhAYKcN1qasZPvhPQubobQf/66aSBrY0A021WCnE1vjfXZDQ/zGzmZTu5WC4AyF6BzyEUylyx5eUN42677UewavX5DhdPzfe2qO9wmOqtzaMJygWa/9DY0q9AcAM4uhAfrgU/iSCYCI7k0xtPsQRhEc+bMRQkraUamPfzwb/AcMpOmrU9S7pLPVUng/rIa6qfSJSS3rk/W6Aapbz7a5efuq2R70GGQnNMSl8U5AWa2P5c/aW/XjbtuTFcbQIewYdS7EsOTXter4eLk2dApJ2w8NcGkZbwEFij0Qgm3D09Qmo9Iye9i7WNV7vlXhTHiEqI/eUfNrHgE7omG1m2WXl5Umf+3YrbK/ht5dC9Z973vur4GOp0bHoa99SJwee0tiv3NbCHfiNWgTM2vsBeGeGOK6sPMQ69LaVqxwFKsgCq+em5hof4xYZRkNc4LIrOKgL6UegZmkzenAFPx5ymC7EHoRPPBXFUnhtXdcQ0PjlqOwgAw8bfDVn7WaJlaZgmAoacOfVWD2y+Z0U4gnJzkw6wP8txMWSL875ytQDVTe0TthMcBXL1BzA3Ubc/+IaaoH+SjL+WfhB1KX3m6IL5qSqUAR+MR8NYQcYgstIbCfglN+97yB/0bqN+S+gT+rTpg6qoK9NclrOXP5pH1V6dTQuNkpvc5BqdwFSk1LUarrbEx17i1cF8fO8T8xgXqJUJ8anTcqUDyD3UGoR622G/UAm7BLhrrUrL1XYkU3VvTR3hybrRP9ZhHdxl7wAS6hCU/PQRIgFP8eq9WFld3EGg37IRz3tvEX/1ZMCoZcjLY4S441BzJTqRdPTx0vu+4s/psJXE7jAf5DzIlQH79u64p0m1gKDXCtn0w7ckqVHYuxvG3WfZk1l6Bt9LJljOeO4nInKHVOdZtVaNUfAAyyCxph/jKCKDkqIhmC4XSMrt7k/b4f/o8XB3+fVMaOSn1chM/fRHkwosa2oisWksAX55BkDn6eV8qnSvwhhAJisa1WPdf+MjkJbqtOe1DPYJcE9fFusVPFYrRWHytew9uqH23IqjCGzuF7CKGg1KXq+niZNrjuJP8g1CMgeFfRCrtC1kEjXEL3sUUKKysz9S9qW9M7cxI+CRDAGr+pInJIRA75wKIMfCsYgF57fJTKXqrUlJNKdc8G7xGWw/dH5kztzKfHP0oFLwyeZ0okNzlDBvkn3QsqUmb4Q7LBDYNbRvGf9E3Idia/wuQlCR9JXDcWpfLpzp5HP+a23+nmx/P1llwDFzU0NP4L2Bhx40whqXm+1hPlo4POfsjvIvotImz4EbqDRWzAMQtPPZ2NF15M6XCFswB2+bgWkuTGVJffi/pp3aEO8DGFZ205j+1F9Ua73OJ/6orGFWKfiUs63gbaGS/8jtmwRqn0Dvk4VEunhsZNjA5A5Z1F5N67Je7S9mh3K5U2FT4L4m8dy4hIJrgGUU77AM5PxSOBBj7c5bAPIHMivvto7sYA9307x9F+Mk3ePx21fLxJmVuqGKLugi24ttv25ie4HCSoJm2d9ly0IBGHZHTBhPjvLmddE/J8KTjJwf0NSj+NK34S6ShO45/YDU7gXIhD8RtLM0ughcmu+aH60zElE1SDtg57AZhlo98PDXBuGm8GS8mys7/HtaxtlfniDXbgnofrha8NzcVG5OGwl0/hbNUfgFhskyCcoNUxFqXclFJuShV6KnNCc3VyzDfnYnAqa4cCO2s+TojDko1vIaFkAzDKYLMc7sApYveOF3EsqasyfxSo7M9wrVY91/r9RHXbQ84PuCVRz4+OTnuL9FdcHwHgZs0PE5jKxjARwioaqFXPx8u3Yf3TeCcS6Uo/jwQAnrK1jYdWuLXbsWMgUZWVWQge1vQ2BJtMhiWx3NxIKVVbKVXbolSQUjMbVNh+riHviISL06TOFxdQK2X6UlnWvQ2fkn44PAOyMaWV/CJiOAfu2NU8Y6xIoeku5QBZmDLciv+U+zeu6dhV/YM4rfB8L5jD0V/6TIA+eEZv4gFSr8Y/DQ2N/xB6b8JhK/u+GCS7KdVFpYgEivSaKFF2jX/C4dOTzZZ9RVFf3fZeWApggvPOnLWwqsClKJdRzoAPQJ4rmTaEn+WV892K+2mTUoFK/dhUtcH6lw8g15YsD06YWZpzYefFQgaJBD7uhf5KdWpo3CwUfYkoPE0dfv+I6MmjZCD2oPhexPMpeOwwXc612ULhXpoW0Nd4HCAtlzoHaZJDG9tTAGlQ5wSNMml15vRx8EeaZfBs53g9Im+Po9cifNtRxychO5nae2hWyCDHlGIDMqfjdYRwF5ralH9giDXl9YGvSRo5Rld3cl8ZGGucKOLVX3RjRuHxA3XbpjWAfSH8YcOru5oDbBJDnfdhFOGDpy6dh99eIguJdjwGwG5sD0IINRvt1pUpu7xtisp8McJRH9Y4MP5gBANFHxvHY4j9Z3+tppZVf4Dsz3A9hH0AwWHbKtozrqIYOUKiNR8HQYon8fZ8ePw2YkUX8znD/kTa49Vmp3cpXZX7A5B9itrVqee7fsaxeu2B0xlp1DlAZD49jceL9FdcH06QZs2PslPZimLo6U+o157SV6rr4+Xb4AuGAkx6UvNtiBXdWx/zwEJqRVLXY29VZRoq0esHyQGssmdSQijAWpFataTmV/JQXnBF7edaEgH1yPnqB33IpwNkFDZgZqroak+AB/GI/HsQzCft55YMOhEKFmaPo+ViIgPp4rO6Yo2xtIWNpP3ZhlG5gQwU/YcwMAXncruUKbBAti2Hi9+4GRgEvweeGx8xBeeHaNr316I0GhoaGtVA7HkU/lfr3KstiXr0Y2n0dXAnEbvHRNr3glm4dvSK2Y3KINBA81aJCpP6YhztlkNLTNmOcc9yvCF7TjBzUW8B3ToheBHcCTDiTY63Zs8OPv/hIYnDBhH9WJHHxO/bx6va/vXhqRxvQdIeZv80VD7HZpUYQ+Jh8ezGL9a6Up0aGjcNRYss+xVOhM5BsNIGMkCywP0oxi7TabM19FcYhsMbi4sWOZr4Fkbh8u48lNIrZWIKjMVt4iyU0mWCZ0eYgXjsgBq/Exo86G74Ex5Y2w6ew+GNJaUWS7rj2hVWQctk+mSU35GmaIeYB2rCVhs4D27pGFr9QcSytkU73xTwPtzlC/GI7IegrdT8YigKXWm7FelQO4CGicRc2PHlYtnNk330fFzWNuu+PLiW2Y/6vAwj3OEg2JzA0G0Bt58Kqcqfk9Aa7jzEzyqw/EIVM7NgaLkYWfVR6VQMuqfgBVs4hvhtJ4hXb6NGAg+ktSqrq1J/fk/xqlY9u//v12nwUPXaA7ofYQROsX+hYgyV1odVP3JaVRRDd8im6AvFBTEUEvD7O1vBq/o+XoYN0Rjvh0/BIwk8F+HDK3603M83qnblcS3a4cu6b7m8Bf29YBdCItT6m5rTHkIp3T+0GKqwxGYKujFwbw3YoId04Czil4j9w+MZo9xUDLon4TFn2A0cgNviqDuvt1lZsLo7UwD2/eFjHfoT4LmTurzSGK89PJDZqmS6LCe8OsBaCDpG8zM9LtzrhqEwC/2oHWzUdijRRBNNqiWX+jRl4XtoEA4zHCEN7M6jq7sD5+efZqKyVzEYRsDbOmyOIo5xOL7w3sMw2IDrMYL/GPUldKgFOxGHw+juWNAKJuHx4UwuLLRuBrMESRZ0h7DpPp87U+sppVBPYtsbltHo9JAimwqZDM/hPnEuSunWQHBjWKCDVPA7gvfEF9mqbCrVqYkmN7eo8PBwJWFhYYXh4eH8+uuv2kmP/0oUSgly4b3FQZH2dek/jdW/dlTtOX1jbbscbgY//ikbbgbfLlIYHh7OzXnPizwjTP4g4K8z5qPdxl37g2k0NDRuQW7iPk1D45ZFRURE/AMHyGlcRwp4S3Qv6dw+/EJmYTwl4vQ8jMW372Lak3ajras+N4Mf/5QNN4Nv/wYszBbaTqFVZ6I7Ttc6Jg0NDQ0NjZsb7bf6X42R++GnpllP12SgIdkXx11zHB49xaODYyveGepm5Wbw45+y4Wbw7SYnVoz3iv6XAdSdnl8/9k3zJLvEG22ShoaGhoaGRuUYbrQBGldHsFJHtkGvG23H1XIz+PFP2XAz+HZTE6sKZsQyaMaNtkNDQ0NDQ0Oj2hikaKK2YcCAAdpbUQ2NWxwPDw+L0WhUgF675zU0NP7thIaGFjo4OOjQ+jQNjetGly5dFCASHh6u9Ho9ZrP5RtukoaHxD+Pi4kJWVhbaPa+hoXEroPVpGhrXH39/f1JSUjAopUxhYWGGGTO0yQQaGv8FIiIizGFhYXrtntfQ0LgFUBERERatT9PQuL5EREQUrYkwm80mQNsaTUPj1qdQKaXd8xoaGrcKWp+moXH9UaDtzqSh8Z8lVaRRoEiGiJhKi65QvD75KeQjsb1NWgySDdgDJIn0EMPjW2Qdzjfa9mvNBhH/ziJzRQYelmX4Wk3YXGyGirzmLHJYxO6UGPvNlUG5gVbTtxH7ASLTpf6ix1b6iNM9IhOcRY6LGM+Kof0qabO3WXX0VmbfGRGX7iIfOYqkihjPik2nZRKV3LhCe0Qcr9SGSvNauXZMJKCuOK2RzofbVVkJAFiYJTJML7pCEckrEpvzoq+/S4K+e+Ban+SbLlKricgWkdaHZHBOk2uVd59IZ5Huh+QbLsbvjIMENBJJkZAdYy5N3BcZIzJVvD//5vJ8y+dlkUlS45fJ1cpXoh0KIlcV41jRPSkyzFdkm4icEtGnib7+Ngn8drCAXH6da2ho/Gu5dNLjDT/9ThNNNPnn5eLpriehkSutj/KJqvCE1HSo7UiPjaxQXkopEqEH+tFbWKucr7T8GNCZb3wMSskpuM0L1016eyZC7wMsVb4VpzUzHR5EojcTnVJLgfEJmIjze7+WPmG+WPKZDE/i8PZMDtSzfQ9exvjABnoeDFJg8wy8g/HptWzd6lCZ3srtQ16Dd7F/dBF3n/RVYDsaJmL/wkrWK/uy9lypDZXm/ftZR+t6UxwWQA8Ytpa5yq3q+jAzE4Zh8+RG/laOSikU6GOgjyv+KXRL71QyPXBVJ7snQ3d4aAcrqmPbZeQNx6Ml7KUJLK9rAAAgAElEQVRVWr+iv1lYC/fo4ATO785GKb1SCnUPzh3gb5qk3H85ZQP6l2ASfj9PRimpPH2JdrhLGS83xmUlDrpCyyRa/RmFUqJA9xb0dSEohbuyopSycHl1ftVSqD3HaKLJdRcVHh6utC8RGhoa5YkQj7thZg6rGtO50Uq5O7MFAIZUaRolzzqJHBDxSBWfD9+UlRiIFd0zIsM9RHaLThJFGm6WsOV3KhQbRfqJa/81d4p8PY4H1+vX4m4tvSDynMgUqfnrxOI3oikiXUUe3i5xuO4QuUec+q1tIfKeo8hqkeB90rD7wDtEJjqKrBWJ2CMtD3Qo6coekQ4id++XH6lR9BcLs0WGiHHsOonDwQwZaRFbBxzLZQZYLFZjEqs3/Am9qRfzvWVmzSMoVfAGTPM4N68R6wkomzzbz9bnaxwepvuTk1VIYkECbMBz9ONqQZ3DKFX4LCyg4JAXZ5u7Vaa3Uvtikf2whFr/95T63TcVpfJfhvnkHvEmB4fSFtnKldpQad4cP0er187XdOwZw7L+fJvBqzsHqov12f9gpV98SqKUOXYaC3qQEse+tZ1eEvlAfDt+2VxkNZ6TvxSQNBHnXiIfGkQS9CIJom+7QlrubA5g7VqKSJvm8BnMqkfnyFVyb065rzdXnDeajKawicOLuhS1Y538Bl0sAT4zXc8tDWIB3gAnfid0LZ1dGVVzfWXlQT6vlPTba/yXBSW+GJwT8YoSWSm1f3pFyswwKNUOIyioMsZ7t3fc5CkuFdthYR/UwbbDcT7oEadAoZTlVfjNn9S2nHPeCkLZOtfQ0Lg10QYRGhoa5dmtzs6Ap6HXQVbs6KTmu24BIH9rve31Zh3JUdRfQXp/+9O/DGNlfvDGcXT4gMjX0rvvHKYspnoz2fUq+977SDdeanlAHlnbw5eELlpsUt+1VlGkW0vP++tqVWaWIxSSkxS+tevev3JUfof3SP6OXWc+Wdrz0OwclRv1JntmkbTwiZIPUuHRbOvKHxl8kNIegFi94Te4B//oeeZIzvspdUrtqne0yphkY5sCtagZkFj89Ob9ECduY1shi7KDSidWxKfSJl43PJc3nP8Gpb5UaqU63mZb0XWRb6ALLq12sZvzlemt1L5YZZmp1HK1z2s/KGaJeI+BYXhEred2MsrYdMU2VJrX9rl0q9ccyCDWVNAbfufIb310cdjoYSeo0RSUta8S4oqexBGjyQYKOKXvENcz+SmV9tRDijz1BYz9025MA3OMamFW3DbRsmEuWz/+TOJecrV2LWCj2r0JRqMfspu1cVFqhmN86ULzuOK8sWZLT1jKqbWtWYcTQ3DYDC3oEPhbO5ad4X+ZTcDEHIiyOLU/QHuOV1aexH3naoD8i36fHjPceGFO8peh4vQATFvnM2UT394/QUGJgWbZdliNGOvOmxefZUyFdmzSuXSE1XXz3w/gji7fi3OfPhKy0Bul1B6Ve1itJK/I/9J1Xu161tDQ+FehDSI0NP7DOLHRiSdk16W50ZInUitLos72qDhHl2N8MWCOQqlOUeyuT0Iu+5K9/oCeeI1Yz8IGW0FPdAxrerAklV/SovSgoN0pvr5zsR6AAqym/9kjqkqjpfUh3g7dBja0hQRs2iTzTlA8GGkKB8g740kc+ovpZ+Znd4EFHJp7j4AuYxwBy2jQkIHN519WB5iLFGCww0mfd/Fv7liM5BdwzmJfOrGJldAMj0Z7acz5UpdiRTdOGPYanfvS67GXVQKm6uu1QqzY9RHdsoEYT8wx3u/PXcNjFVjf7/JqbCibN5LCyq/puRN2kB0fxDlc/ZQ6pdScv1QP8qvlm4j+zc/pOZ+QRrQMXKoDC+6941lQe0dRmfZ2G+AOao+ZqWLJAKWGw7w6aqknX3zewOq1L8+HVB7TSvRWlRcdrWGDv2WZJz/l1D31I/VWM8CGJ16MbwObSFjVMXaWjXE9dMKr+zJLBAWVlje1Qz0BVcpvAN0W25X7mfi72//OsPyx11UnTKXtqKQdWotx+yfWbKnEb3+lDrwPHRrnrNjjlT3vRZvEnsliCNsu3u+PkJXFB9iWrvPKY6WhofFvRRtEaGj8h8mmdTafqAZKKbtLcsRFrfVYWGEGvX0uNhceTj1ROiwKy0ldJnhy5vm7EUkWkUMyjn2LIZRzx93NIOhdsrEUP2zaivX0ae7W5xNdwGBbgF2RDbZgRmdbwHksINiCBSyCXcnFoUaGwu+c/bMpPx/xWwBdTzjdm8BA28TLCpY9yhZTXqmH6pPo87Ez4iJlHtCMkga+2NU8abrwxhiAELEdMY63YqXvcO6e01/95JJweXqtEKvyflOq658UeIwq+Gk53z82V6ZIYDeRFSKSJuJ3Qlqm33XVNlSUtxrXdHDWk1Rb8qneoKhwSlOaSIqIZAiGtBhd+BvZwe+MZUb4JgUKg9tZiuOajT4bnHF0TS/O7h5FljupZk6bPKxeSyko/XD7jNiXiteq23pfcd6W6Xf5PMmxFhxIZNne9gugNR6d9tMmOqMfrOLkilbfTCNgGzXC6NB4pVTlx0lxK+c3wImPBv6E8V6cg04QUWIwdxEr7bCSGM8MPhRXld99lDr6t1Ixp5Vqsxj8Bpn3vRuY9vzrPLp1RHEhl13nGhoa/zq0QYSGhsZVUgN3OI3X5FkoVUcpVVspVduklK9KbPSpvuzDC/nKavoDLT7Rg0Jd6pvSwR6Rq9qVx/9J9t7NwuN89F2n3+Fu6gycXeoNenVwIj8ADnH8UP1ih85Mx383LWzo43yoyvzNxeaRRN7/2v7Zerwx5x71u1vyVeuNFcMdIv2kVUYdgB5KZU0M4pswFnmwem+gGQYADUA1Id19yVXZYC1vVdeuBJvR2/lb+Sul3JQqdFfm3ZEqacAcRf4F89SlNuWE2QmyyM70KP5Txlpcz1JDTw3SrF4LskmnJJPyc0vGy937wF9Xmpd09yV8VJDfBlZw5ucOS6ADvj1WKrDUCmbnbZZlHhl/020fvbIY7bCvSj+CLOnl/AZwfG3NYJeCrjWOPjKI9vu7XYsYR4PJqh21V2Y+KNJRghLCi691Uir7Z8WsaFhIxq7mumu8g5aGhsbNizaI0NDQqJCiudXZthzGttKE5prqbljI6e/a0+dgA4DVInU8pdE0GZNbwRoHI9bT76rlCSc4fyCYOAw0F5tJ0PdqBxF8ZMrvBb+z7+Nh8+kSxJjbFlcnW5pITZEBA2UldsSaTXfDbBJjhuj6Hwk+KmL/PDyV7d5/MyNIKZ2zQHlBKnnH/QwgYGJqHMO+NIypz8/vjyiaJnKBy9JbHn+4l73/e0+GZbghov/gML330lxoG3pkqVJnlFInlUpNVQmm/Cu3oRL7K71WhAU8zuCTjwN5J0S8RfrdIbsxVqcOqiQ2L68dLObw5GgZjyuxopsG/Q7pup/gvkd3Wb32gGOZL1FGSsbr7My8zCvNqxLIBxsGwgrSvmo8j/BI+vhvAHAawtnm7DxwLp1H8Om4kVacq9qP+QlUhFP9Qz9kEvcmmf/H2uf/V/5+K9sOrzKeQ/smBEA3Up6ZLg1/bS4giMhbQps/oDPeTTdYLrw0KFnn1SpXQ0Pj34e2NZommvynpNQWrwGQAZjKiW7YboYR0gHWQtAxmp/pUW6L1964NcNtH/2y2qkYdE/DcDfYBRwE/334fvQESukr3Bq2kvTJULshrETvsQUC5zjZ8SI8sIUVyi0RelzamtLCJuiL7XNrirYztbAY7sPh1eVFW1mW9v0UhITAKbymfYNSF7YGLWQyjNXBeYF8EDOQBy3PMCq78THoCv0OXtxWtSOGEfCSCxwFhzRsB//CiHMVbAlrYS30RvfEev5WjioGYz9YCrqCIv3F0vYMT+U3sK63cvuUUsRDQHP4yRZOgz4dfePNhC6601LWpiu2oYq8z3pFVqpXmfgeRuI0biFblU25mJaSCrYfLSX5vA7v4P3NVEpubQpOd8GHekjQQQKGTovpkNSwqmtVblt8NXmVQnXHpRPsxnbMJrYqh6K/m/gMxoBfHq3T+lavvLJ+51Fqi9cYDI/BVBzfmsUBZWu1HVYrxlXG074PvOwB+0AywHAWXfA2PMc/ygplKPaxZJ1frz7tJuhfNdHkvyIqPDxclRlEIM/BncEwzw5SwfY8unrb8Xr/4Uudw39NLCyEbu6QQs1575pKXovB2B/+IvTgI9esvBiMA+BPQg+OVMrMe9CWhmcbFl+Lhj8IOzTixsdFk3+paD+410nO+eLTCOe/ic5sc6NtuaFS1E/+Qf3to8oNbDT5x+WGtMPrW+cX+rTehU/AV6ArvDSQdcjG0GYFkVtbXdsyLcyFrt5wBP1Day/vnJFq5AWnXvCWKyQCp8H2FIaWiy/5YWE2NCYovnWV5T2NfQ9YTbMzA6/W72MQWBvn1fSc2/aqY12pjxZ+g87QZxXPKb/r1m41uRwpc05ErOieF157n8jJB32empHXcHroRPI9H7YkvhmU9twrPLL0ySoXPN6K1NW5voT743aOvEf63w0MFO8+AczAORGPIBp57rwmZSmFii0oOAmD0dX5loF6+6UQS11D0SK+RTgl4lebdt6Vb9WnoaFxw3E6mX9qBOe+YuGUMdds6s6/DsWf4+g6m6EevNFkpjZZ/vpz/dvhDa5z3+8/Ryl7pZTdVs77PG7asIK4d7+Tb/G7lMiCyNVM5y4kHrqc9pqyCtNXHVSny9iuuMq8hYyHMQtsh3bMvH1rF6WU9xHyg54wbV5H3Pvfyiy8oYBtcB861fa6ncMRK4aX4Z1DtefMZ0HfDUA1Y10RVfko3r0VK2P5bTlff/amUGK3PY2bi+K3ksvgTmiXyKAzEaVHG2ZioDm1vo3cFY7xAXjRDnYK7IFGm2i8oZNFKRKhKzY9t4TAm/awXIdTMoHTx6CQmdAkGBYDuwyQiE30XB7KqamUQnXE8DA86g7xwAF0bVbTam+kumKdFjZCb/SPb2KFclJKocLxaILnHgZntq7UlnKSxwQYS80/Xt0NITbcvbn49F6lFMehBdy9l6XKV4F9XxhvgySCy05qRb7WBVbR8ky0qiRuh6Arxh6bImEK9F3V2pGBMGw7kwnoBqvAMRdq7aFteucUaAbt4v2E8Y6wF7xTi+KhJBG6Yrg9LhgmOcF6iNxO25bte8B7LrABOm7jnqzwm2D0qsmNFe1LxPWU1tj3h+nUX/io6UbbcgPkKATUxX4NHQ9H3Whb/tNyHdvhDajz0l8ifH/8lBJT3bKa4N0EuyR6durdDVbhzVt+sJ+QohkEmyG4McwDfSLoEzDe/yNDs/2sX9vk9zY87gin0bmlI0MWVfQ14crzIqPhO2rMmkjpKXtGeCiImegnwGOOkInO9SQe/5v6HdzWABYCh8H2CPajv2SyclFKlfkSYWEpNPPCazet47pvhsDmMAv0yWCXgMOTnxJzIV8Z2QntYEA8M5W3Ukilse6ccWflsa3Cx5ii6aZp4F+PgF0MyW56w+8hTcpK6elMw+EX/OdOsN7BIG/ByxhHLeMZ5aVUAd/DYHhwB2t2uE+DJyDyBC3XdrYoC2ugLwzdySJ87oV5BK8fa1IKFYlNf3idkO29lMotekjXDVrLXSm1lMplCoxEN3oDa9c6X5nOAt6BGLw+nV7cOIsevnvs5S8Crecr7/MRqAc9ljBNeanROLXBbQuPFjdmM7PhQRxeXc4BbN+DlzA+voyXlLuKxGYEfAJt03ltWURlcfsSRkPLI7SI66CUiWnwFK7jf0PN1C+DaGyfW02yslPKwp8wGBqeJHR2XxQyC4bCsF2X4h91lNv3NlcKeRI+R+7YQfekRioG3Uj4jlqrXr8JGp4mN1a0QYQmmmhyK0nlg4h6eDfGKYne3Xv2huXYj1zES5meSqlLU4R9vp3ACmVQQdgNhh/x/PwLvsHO6jWFvsK1OcVSmd6q8ioz06G/Ae9TuHT9ANfBnbjjhGMZ/YYHYDZ1/352RQyGYTADr68/QSn9CUd82sB26u991KJUqUHETqgbAttotOreXTEYB8Fc3CZ/xp/KVoFDP5hNwLy3yj8H5vIyTMDnuylFNlsZRBTHunt61ypioKvSxyI/Lzy7rHjdfOPbmSalRYWHh6uLU3MSoQGBnWZY+2aU7Yf3LGyG0n78E2oiaWBDN9hUg51OJ7bG++yGhviNnc2mdisFcIZCdA75GCnwhJOcmNzdELh9HUfVVgX/B3CuvnjNhEeI+uh5Nd/7CEA0rH7Fsuv5DPNGtyvRSawY9kMDXFpuKdolQrEHQrBteBq/hWet5itLrBhi4AUav/OdZSRpxGKoQ8bhDeuzGoDjdtDLJmiGS8OdS17FbhwMpOmrb6t3SeddC/eLbvVX1L2dM10t1uO2ryhu3o/9yeZma0BkJzTEpfFO6G5ZC41xCd9HbfIhn7XQFJ9n5rC3328KpXYhZ9DZ52Hfx7IbGlJj7CyWhMYBmMAG/zF/mBYG72AWehPYYuOce/XfrjT+5RiMRqMZ0A8YMOC6fQnX0NDQ+CcIDQ0tpGjnKUPZa0dF7P8Hj8XTJ5u+P8bLPCDg6QWWd13OAGSMo+YmQiIYMOA11QkTh5TpeZFfpp9Z9y4/Emb12trpLjDYqk2V6q0iL+i4XxXMThbj4W+ylj10FqakL5kXJMawdQTHvGve12tFyXlYHWOVaeU4GUracKXATDanmwrxG3KSAy2EXpoHlNPX7yH4JiH0j6mm+A4zzgm1N1C3MfePGKd6kI+y8KzofpiTuvQlQ/w976rG5FwsJNbeeAAa4X37LFW0+1a5WWqlYj3S7e+MfpXFQLnerwqr9jHWZGk6zrCNrC2d9HTSlT6NXeNm4OJNl4vRFmfJsZYwM5V68fTU8bLrxfn/JnA5jQf4DzEnQn38uk0ramAmlkIDXOsn00llxSDPJubOGLXr2Iyvjuu/EKn71kuWA70W5BygbgIEsMZvqojFAiAgCt9znH2OK9Epp7E7CPUICP6mqJUXsg4a4RK6j8bqvNV8pbxVLBpH5zkwkPimA3XCJwB6MHJ63WFhwI/qKYwHIALvqOkNZxH0N1EejKixrSi/hSTwxTkk+ZfP8B5kNW4DzQkQin+PLxQonsE+Cerj3WKJikU/GMJxb7tMgSLW3rgXwvHv9X1xPJZAOG71D0bGfVaYCPWp0XlKsZ6DUI9abefqATZhlwx1qVn7h6tvMhr/dgoLC/UHDhzAbLZ+oLGGhobGv4GUlBSbUjtApw4fgTwwuOgvdiYMLbcQ+doQFfdjWh9Q2HulF6fOB5cMfPV0cbx47oc3ZEKmHafwtHot37fU2pI0kfrN4c/D4Ao9s2jBaJctV5h36YL2qqtNyqtKbX0VtoJisuh8VxZuGT5v/8vT9fd1vkfV5+K6SB0i46CzHzJWROcB/D979x0eVdEFcPh3tqT3BAiQQAiEktB7FUSRqkhVQVTAgoCgKCCiJiAWqgJKV1GwQAAVFBGRrhTphBpCgtRACARC2pb5/giBBLKhwyfO+zznEffeO3NmdvdmZ/feGZsXhID9i8v7YGDfmnf/piT4hh41Xmy7hTgfpngtlEnZn7+MYMSSnEQazpBrEHEcUzL44uN6Mk/nO+rrdpxOhOKO+w8nMFNgG79z2wQGysJx0pP8ScCJED1d8P+bS4OIImSd4OC+ioraSy+/HRXfiqFxV/ePKv0G+8HTglvOAk02fodaVpeaCeW++cMaT8mi1HfbA0C02bgPKuJZbbsN7AalUn+DsYiMG2/f9tSrsZ+PNaxpvfEwuKbwXBzLv2x65c1FqUWkSO2bKDNxEt4HqOFNe7/sebX7OTtvhzr4NPhRgcLBcaoRpy5VHmbw+hCGpDQ90Un9UeT3nL74QwxPPpyysyebO5rO/4pXLEWDqeUbY9mJXypFLJQnFYCXTObl0AyPiF1Vz2N21G8h3/9hOUjJYtT32A1wYRY+cZQJpLHHHg7gFo8hlLDiE4CLN3EHlaTBxf6IMhv2QCU8q2+f9wFerQgtSkOPvQBpU/CLpWJh2mQvYpQyliJ7qelDR9+9t/qC0e4LtgoVKhjnzJlzr/PQNE27VSo8PNwmItmfZ4p8+TknuvZVVy5y2e/q9W6c4Zwvx63nll3wo4P7IYAT4AO+6QSS5LvTwTbnxKzc5QTAgUyoCxjBYv99Px7POyr3Gse2GSyptTa7Prape+I69YXnKRD6K5XYP0omNB+2s8PSnenh5BpEHBGCHsLtsxPVF73J5qbRKkrkxWF8PT13B4Gi5PyPPznUPv7VdW+Mkj7zYpIhxUx4Mm9teVS957znpnreUV9fq2/XiNR6+BptxG3TTeWk3VWXfhV7HL4g7sX+htLj20nnKKexIgEdxND/JfxmUbp+UkXYG8bPZobG1ATYIKZSY+AlwrtOWfYTgXuoYaGT+xEAduF8EMIoVmrXKJFnxHvymwJGlE2VhNNgyiQTuwckBLHKlXGx5QHWipQoIcU+lx4ZoaknCbmZMo1gzsJqJDHTTJQYRkzk6V8pUYPSzns+KuC4y12SxfgDdF/lFpnKlCKrLz8uVIQE0nYEkYbPhQOE7qKujefcDpkgyZ/trnxyrCxRYoicxnOLkUYE1NtZGGId9duaBQTuprqFJ92PApxNotR+amTSyulYyjcE/EO4F9XMiQDH9xK6k9p2OrjnLD7lchDCKF4xxuUQJfdQLYt2TscAktIpdZCqF6jnfBIgCUodp3IKdXINlLT/KqtSStlsNivZP0nr0KFDx785bABKKSs3yCeSY3WI28UPP3QRMBIsrmPgKQo3Xt24C3sdbaNh15Q8BSllO67UKaXUCaWWnnz4VY7c7LGLQlHFSO9P9JBPpdbqYAUg4jRgGB2XU7UINV12ABjBTlailwXczxJsomadAwqrmj6MBsuhNtZU95wFBhUo/BvH9o9k7issXs5Xoz/xm8WZuuzewbRZPWQzZkSMr4q8LIEz+8jF4y4pitUPznA2vfDt6NvXUzl/PW0EO/uhKC6Fkgkhq6D6tHvk0k2WkRj6wtPFYJMZ0sDnDKY6PxPxR/3seZ6zGANtisB2RPZByU0Um/4sCsM8eA63d5fmLCpzBkKCqHSAyIzyu6BkZfgZnOKAGCR8LeWXNbNfvFlnBHQIgBiEA1BiG8Wm9rilMjvh1AU+A7848P+NwrwVSO19fKlCCs4lO05AaCnc9/PwqYeuvJHkNASXJuggzyTVngM98Ij6jU3KrCIx9INBznAECdxKSYaWpWgsT1+oU1C/RcOzuL37e3YbbcyGnnhELUEpk/LF+yFYBbXjefxYjR/hmSv7I5gqsYw8GZa3r6zMhJfw+vAnlDIqZWUSvIrP2GguLbCl4z8c17HYnFjwn/htmfE4h1HzyeyF3K5zca1/Y4D7ozDKA46BORljw1XU3V09331rYH4G3vbIngXlJOZ2P/BEWrDDsnNmxSm75OUVhfBwWE9B5V4rv+vM/zAEheK+hiYJDa6vb7IXJTMgueaCN6VhKBtDiZlPk+9NoTcfyVCiCvwNdRLoklr1th6b/fftucKwBTgJhiQMZbcQ9GXXnHYch8Iw/PFrz150xUJvt9LuXK+Pi7MO3nx/X6ONN/78/2uiwBurL8UrOLeFP6h8qlvux9dDqewZhAyxYI7FpccM+ij/grc5WPTwusq99rGboVgtmOoJh0HOgsspTNX+IOzHh7NvMLbwMfRwRk7j+fSCljDagPkw4r4Z90EfPQ9dTXgfIfTXl/66Yp2Is+DXCP4iZOHAhVCiOkQLEi8YEjC3WMQjiWWuzimdoTCKwjl9m/+N1dffB9fTRpXrxurl7+obq//vIr/F5nTcXNix2y//fxw0gg67Wa0K3fvcdOjIE3kGEd7UPcynKp8/GtkDVXdars+Z1vh2DCIiwfD/9ccgk49gCE5Pr6PVwZIKzAPgA5xeW3t5heGcsPENPIN02kinoyUUOPWFsXh+NC//VXkzGQ+v4Pb+XPaXcXZczyY3h+XG4FRwfjeSv51foCU8t5YfrmdxrHxWNgZjJDzuTfGjND/TJPf+wC19SREPLaDHjhtbuOv6jt0MD0HtOOosbohSosAwAtp5UfIobc41VEqxER7Fa8x8rvlly+0aROR6fcQopxvt7xtv440+//+a0DPO3YWIgYbQeSsLsgcBdyOSXClehuIxPHuhxr1uv46rQg8ibk9k8h68idfH05mrnBLBoz3Mp8jsT7jN39Tp0HEb4voGEeH4NYSN4JYOlWJoc7bWAWiJc4dN1SDKHfaDbyKFPh7OCmVSkRheg+6+sCv7V8WKGyn/xyN2ZWcdtMer/Zpm8AU8s541ytfR/ijkdZiUe/7wI/AQ9NzKJuW9HR7Dvd3amvCRG6yGUnup2LzzwzDWDdZC+G5q7Xsgd1t2wQPQZh+zVNHsx2zMg26Y+/9JTLhHT2hC0b8ufXN/FBpAu71XfQkQiakrzCcspm/Or5cnoawf9fYzQZW6sg/PF6FwFdy20/5cA6UQh/UspZjDcif9HFpwfgWUm9+XGDkrCYfveDGnruz+bX+QZapI3v3z+VCrFGoq5idhISUXRQ2Gjyn8wIwasBr/8V+glJwCz1bwiRFiDRCLod4Kau2oqZTC0bYjUM8f4sEzDapvp3NqlStzv/ljbXwDz+P8xpqcX9WUUiiQCriUpLFy+QdqF4IjiNc5eOoP/lJ+SeDVHCaZIMEAhzE1+53mp8pdOYg4BwENYCUlv3mrR30828FIJzgIxGJq/gutT4bl917M+/q4jv4usTxyvR9e+ffttdvo6Pm/D0IPIu5GRGLqBrMpvXzA3fkiCImCSPw+m45Sxnvefh1Xhh5E3K6IgxLV4BcwHgX3BNx6TSbyvvqmR8f9E9f9S0T2h9FOu/L8EkHJs5SJ7oFCVkBDV+r8Q2RG2XXQBGrE0WJnLaWszIVm0GwvH6kS+6AVlDpN+d+ezLlUxOH+o/8sWdAgIjuHysk8tKfJpW/hqXmSVt6VAh4AACAASURBVAn1lUpnOAzD75O55P42uRMeD8EGqh/prJTKmWM9mpC1g67+Y4iMgHfwyufXhddxbwJ/0/hsi0uP9cCzLs67aH2+Sd5y7KyFthj65P1AmF89H+Nz/eUWkN91bbfyNbyIx/DFOduzL+Np14LFyjnvvg4+1L6I+Sn4mZDf3n4bRsKD+2kVf/ESonQ+gHdw6b8s+xyIjIV+yAt/s2mwt8Nt65VXwb90FVDuNY9VHIGypSEe9wej8Wj7OGUWXzHAsjAe3sB37A/Zrx0rk6E/Tn3W8ZHyVjUw94CvCJg0G4UhZxAxoxyej8F8Ck8aySbMI2Ew5u5r6Xm+iIrEMByG4Dp0CSsufogv8PVxrf7++e3hBfTBtduY//N/H4QeRNylOAolSuK9mhaH697Zuuz8CA9C21W8lVr0XrdbR76hwsPD1S0s+67lCFXqny1KtVbKWlyp1BB1YfLLKurKpew17f+PB+s96CsxIpJxOUqck4bJLfM/oukRpndcoFCqSUN2lSM2nb3xAT9DKwJ6/sWvFTeBkU6RrGnJ74l8n9TQCAoanOSLR5Zmz1mehcP9v/NreM2kpW4C75ffAmbqQyzmevF8UHI7OFEN9pNx2p/Nl6dHZ25malP4hYQfHhMwnB1G0B9UrETnmovynACjxDBMeO5tHmxH65eHqBo5M6pdlI5kYXLBw3h5mkFf7E5kZnHe7po3SSsroTp+lfdQhbQ8m66sJxbrdZV7rfyutR0AI4/ADlK3l+Q83gCBSp1UasES1ZLMgrodABHj8Gm0WkRYZWoHLzOAHd+22/klJPtGyChXl3XQjJD+c7PPgUp1h59KqWX+TJ9W0eG2GWlhBdZbULnXOhYortT+MfBAlQsrdgek/jTYfKBVvJgqbJVCY3rKyqvXFwAj5eEzskIeVoNJYZPN8hCsIe1YUWIxA2D423nlPsYu9Bl9muUvv6MWYVwLrQh9Z5aa4ZFIlLL3gznF0heXYWNmcN7yC3h9OOrvRn3X/F1AH1xfG69+/jXtehVT6p8EdfYB9WvQ+jtbk9BWqRVK/dhYve9+/M7Wpd0KPYjQtP+wVOqm8qmqqJRyuRz/eKm1fr/me4DRNR1z9mwo+KMM2BX2E4YU8Of0wEcRiReRBBnG3qVQnvPHfG0gGL1Ssed8qHUWx/sn+V5zNSGTcxYu2Tk4gw2DcxZp2EFwBjvYBZfcs4s48SwsJHlxNb77J/AXeOi4xxOxdHY+cGmXMHHuOYwRUdKuO48u6KC+9Yq9ql5XlDPWjDwf7E9gzMTFCS+54oOgkyRBEVyKnbDmnv4wv3qup9xr5Zff9gHi2lxkhYgkiQQel9pn2gAYINmfRGcyuWLg44BlUjWqylEROSuYkiIN4e+mhn7wKnPCNyhQmHySyWljKsZU8MTd+9Lc8L4NOedLoo1TVj+H245m5f1Ae2Xuq8q2veljL7b7caUOb1Mq8pRS9ZZC4JO2vR8GJw18h16beua36uIFCCvDwOkixk0ixvW9YTCGXH8zj0/o/C1OT+BZ8jgRWEjFmA6+xFZ8T0QSRCTBB5YfI8uVjZl+eUt38PoooL/nhiZsvlYfXE8bb/j51zRNc0APIjRNu0VF8YVTBIyPRqlSSqkQpVSIVaki6kDlz4xXzSGeqRzuv7/Wp0ZQqMvnpjPgSp7VpG5c8VfY8yi/HmPCV00WwqOU6jz/0jf1NcX8wgHGfOH6ehneXfCYWugTn28hHmQGQQLHEsrlNOj0NxTfRS0zj3smXDMJR/Vcq9xr5edo+7jMdBt0BCqCqsoZ399vtN8AMPfeyjZVXCnlo5TFV9l21VBxHRcoMi+mqy4/vx7YPOAcqSmXPjSfXYt3MkWNFCXJ4baS5jPkdkXuvoX2L7nZYzH6/fGMSGMpGRues0sTpVK/U0R3gl85G1PTgDnv6ytKnL6A8QcKfXGMqbZ6SlnrjoNx2HO11f3tNV29sh4qeviFJ2m0rzke2FwhiYi4QTmv6eyIKa7meW241f7uBFaHfRCyMuXabeSW3kOapmlX0oMITdPypcAOqc4cunqRpjxsxdSj8CunvmrE4wcrAqwWKeUvladK//QSVx/ghOP9Y0r4w3HS9oeyGRM1xTwO2t3qIIIJ1szWsJC9E59bRNOS9C+7NHuDlSmbeW6GqX85vhvT88rLEJNEiol07CwrcSHKZn0U5nMgspuhwz+hh0VcB0K/VN8OG+nJ0bwVZqkASCTjWGD2XO0F1FNguXK0oPwKzt+JZUqdVkqdUCoxUcVmX65kB7/TFM7ELXv11+MihUTaN5NdOHGrojIyGsBSDo3vJCPxJkoMU6F9gqHFcZ7qFeNw29PuB/IWlDf35LkZKTd7rFpHRhA05+iAb6TSvJoCgoiMEOr9DA9SqNo6OxZlBBuWFA82Y+QcxgvgjW/1OPuLWNaKqcRMaI8t3YVzbbIvlfMolzArhc3DSXmPtQNHS+qfRRrBEvaN6CoD8AMLk0WaivQeI+uu/Nb/ytfHLfbts+1ir93G7MH8lc+/pmnaTdM3JOnQ8Z+K61gnAiuG53bxHGEPwFooeYSap1tedfNqW3yq47OX9uca5My25AMxwEEovpciE/qilDHfm14L2D8eQirBSox+f0PwAg8XBsPTf7NC+RyAlpdvPLWzAdpdnpHGzlJ4Crehy7OnzMzb9pMQFgYnCZj6JTk3Xkfi1B6WgSGLS3PzkwH1T9Mvs+JVMxc1xtQT3vSCw+CWhHPX7+l5vsjV/Zxz42zfv9im3K9Vj8Nyr3XctbZflVfOjbXDfs25sfaGZ2e6FA7muwePNrlnEDI1WcoDcZWute2aUwjf2rGuj8MQP9ibPSe9KRlD6Bb8R/ZihTIppdgMNYLgH3h0F/O3B42EJ3zgIOK6A2Pbb4sUoWkI7CPg3akvwfhLU7xGYnoZpuA+Ipqe+D0OI81wQCAeqbzxyrWI8n19XFd/X7Nvr9nG/J7/+yD0jdU6dNz9UOHh4UoqVKhgCQ8PZ968eea7O3zRNO0esISHh6Pf83deaqAUbpDouXRHpyMvq7le6+51PgBEiVPHYSyYX27rIvveqlP19S33zj15fdyfz78+p2na3aciIiL05Uyapml3gseJzJM9Of85v07qf1suFbplisXDeGg+z/rxbtW598kHyH+tu//60M+/pmm3lx5EaJqm3RFO9KvLjA6pQ2x0WNLDdo+zOSKGoH64vkXj4YNUF85c+wjtzrq7rw/9/GuadrvlMz+2pmmadlusU+nzoOu9TgMgSKkjB6DRvc5Dy+Uuvj70869p2u1mkuxZT4wdO3bMb6psTdPuI76+vlaz2azf85qm3RfKli2b7urq6oQ+p2naXdO0aVM7YDABxri4OLKysu51Tpqm3WFBQUEmq9WKfs9rmnY/OH/+vGtGRoY+p2naXeTu7m4AMCmlrGXLljXNmTPnXuekadpdEBERYStbtqxRv+c1TbsPqIiICLs+p2na3RUREZF9T4TNZrMCemo0Tbv/WZRS+j2vadr9Qp/TNO3uU5B7dqYoMfQR+Uqk7WEZS/Dl/SyMEnlbCn81Wa53ZU0A7Pwo0k3chi6X2GuseOsgvyUizf1EjkrxhR/e9MwVUeLUWeRnCT/UM79tnUQWS4X4F8HOSJH6UvlMpZut6vaUoWl3SZQY+ov0LCKyX8SYIobyu6RU9BM39j6/McdFHhB5erusxfdO1aFp2n9clJh6iXwuxud3yUp87lxFVsaJDBb/id/dyfOmpv2/ujyIOIfzfihjZGE6k//qbM95PNrJuBci8K2/Q10ceVwfo6yFOnhXiiGMG79QsbTB+018+7i48xFntlU0OZpJSqmCk/oNjwMEhtCg0LartkVlZZ2ArhhKzaSz0XUZRFHa5H3Duea42TKu1QZNuwM2DKPJBKq/fbLeH88Taff9VO2LJGHiKN7JLHOvc9M0Tbs5dr4bxuMzoBF2i75JQtPuoEuDiOSPCYihoad3ACOJm/GEcRnZH4Q34BIHoZQN3E2EOHUTGewqstMgslukygapur6JAggRl04io51E4kW8d0mpakO3QnUCGmxTTcT4gkgvP5HtIrJfjPVXS929NRynlcnog3TfXmzWhmUXWGJO31SEXN8mHBJ5SJxbbagpMkkMHVYZPpdiz4gM9RJJEDEniVPHX6R7ejDAsfWEbKW0LfBz984eIntECidKiW/7C0icODVdy3PLeUkKt4hmyTLcG/FjxWnScEazAvONEKer6ntGKuQpo0HSgxtE2oqp7wZZicfF4/yqScBueSqtzlVtiHYPvLE+0rRbsxmO49a2N381XaOilL1PW5bVYGsG27KKXd4ri6Eio6Vwu+mVRKa5iawRCd4r5Zd3yhn4Jol4thb5xCQSaxSJFWP9FVJ7Z02AkyKB9UR+EvGIFwlbVclI00tFi7i1FxnpLHJQRGLF3OIXaXMq7G72gaZp95dkMQYPImiArTCjwWq5aococWklslyKF3onUGS+p8gmkUYbpNXlKwj+FgmtKvKTiOmAiClWnLvOlucuBIJinkidUiKbxOCxT4wP//g9lMo5LkYkuJZItIgpXsQ1Vtz7fSZReN2lpmva3VehQgVLhw4dLP/AA0jfNYym8COwihoHOymlOAuh/jywix++Cx4BQ3B66Q8GqAClsvgausIzO1gzyXcUDMKp1wr6KH9VA/PzMBGqptBza+1R8CqGJ9fS5mgJpdKZBC9i6L2OtcpTKcWV8Q+UgZa/M1UFqN541MPnb3qlVsvebmUG9Iba/1Br8wNKpTMK3sCp+3LanSyqgnDtBPMoGj0WhSyGrlDpBOXnt0Mh0fAsPBfDmh2+U6Ef3iN/RM01/gGdcH5jNf8EuRacr6P65o79CTrj/MZq4pWLUll8AJEEfPYNSolSiqNQHVruYUV8YD5tyLfO/PpHh45bCEvOez7v43Z+hebQfgdfq8KXH8/kXfgQ2uznxbOllbLyPXTH3G8D25S7Uul8AO/g0n8ZkcpHKWQs9ENe+JtNNbzfhDF4Rv3IXOWqwPUJ+A55bg9/TfcbCYMxd19Lz/NFVCSG4TAE16FLWKFc/g/6SYcOHf+OuHxOi8T0LHxBmWX990Ed6LKRFconz/6v4Pw4LMd98CK+Vu4qEkNvmEGR2ZNQSlQkTp3gZwrPHMUKZVIlcekKs/GfNr3ZaNzbwGpKLnoLpWQnBNeEHfhP/L7MeJyfhB/wGT+ZxcpZgVt7mE/QTyOs976PdOi43aHCw8PVxV8iFEuhIn7hB3mDpC4wi91f9JBYnE9C6dOGKsl8+5QpGvOzNBr5oRpLEphpDhuKstODX3qXWQhdqPzuRPUpp9lktzwNa6DcafyrnZ8LL9BwwgdqUbF/wIVOsNrHHhNARj4j9CgxRcIgqnzwlf1FkihERinOHuKvcxWzdzDJLqhEoZcXs7H6mvPFXAO+R7rTePRHakGh4xxW6SHQHaeaQxXpai1Uo/CABexp/6NCqfJwGoNrBq6V7TuhEl5VdkJn+1qoglf43sWPHfEoKF+H9ZWMfnsbVMYrfC8hZBLlZNoHFfGqvd0OChS7IQznSqcoXSolTxvKuQY4rFPT7jg734mhznO4jabam0Pt3Th51S4BrTcw1fsgGGkEB7AkenAGV6JcXdZBM0L6z1VRnAWlusNPpdQyf6Zvr7gD6lDihUWqE+kolf4GfI+y2zn5gstaaEXoO7PUDI9EopS9H8wplr64DBszg/NJUtM0rQCKWcPo+JVhkB9fPzTNq4DLrxUogvsuUt24QJTFHgb7yDoZCMjZYRTbQFgEHTt+q5pgJUFlDITvOf1n3d9/ovxWKgTT/pFFClRFlXH4EVgK8Pkgiq2jdBW69JyqWpKJsqe9DrNIXPawaTvud60bNO0uujiIsBEDlfGsvdOOsncowsJK6R8X5c1DNZdCRXwrxm2Npth2WhkY4r0z52AreJ3CD36l8GYe8KZP0S3ZW+zsg0A8ysV9MYqAWAhiTeAUEUkQkYTC8NtZimTidOW9EorfhvHgAujM9mqfGkTOyjCS5kArTv1ZVUCIwjkWylO85WoF6txxwrbQ2pn+/jtyShml1HmVEJJBlKvTHgineOvV2fdzWPkdwvEpd7DZCqxxUI5CtXaqKIz7IBzf+turbSO0oHwd1tc82pJThgLFKVwOQhmCQmOy77ay8CdUxqv83teiIXcbLuyntMM6Ne2OEhkhxqe6UHZGYrUlr9m31Fp05d2BChTiciHXQ3a4eNdUKsZU8MTd+0zORt+GnPMl0cYps18aeOLuci5nWyCkgN1GOsZ08CW24ns5r3kfWH6MLFc2ZvrdyRZrmnb/URcOMpAy/ej8zlBVj/RrHuDkcmkfQ/ZpTgAywessRYw0db90TisEKZDiwln8zuFv5EGnlJwjvSEZwCUTbwtxPkzxWph9TjMkPAATsSQ7k3Yzk8to2v+/7EGEOsdeCKNE2C4BPE5wqgMXfmL1V89vhMr41NnhC87gacGNi9cY2vgdalldaiaM3o49nSJZlCb7g8Y0k3k1NMW7yo56YErhuTiW2yorpUKUUiF2pUoqNbeiasSpPNmEGbw+hCEpTU90Ukr5ZIfd5zfoQcrOymzGlPo13gcpWYz6HrsvHuUGvhl4k/2Bu6aYRZ6vINEYmYPnAYJK0sBtDwBRZsMeqIRn9e0zJuAdR5lAGnvs4QBu8RhCCSu+ywqu18g33/qGnMQzpwyAk5MIPEANb9r7xQLQz9l5O9TBp8GO4Z/ilbsNBdV5Z552TQMQGS08+w7NXuORFZ3UlkZ/3PD0Ih7YPOAcqSmXPvifXYt3MkWNFE8/7QZpXMi4+IujIh4CwGDECasrJBERNyjnNZ8dMcXVPK8Nt6+Nmqb9F6QdPyqJHCrN956/iEhCSfgRFlTmwXrrpU9WxPWW4wznfDluZdmFS+e0E+ADvumurpzxJNnOqqyL5zQnOQ2FATK8STETnsxbac1zzmdWpYKVml1N1cseaGja/SZ7EJF1ljgqB9LBa3/2w0r1hm+KJH34wHc4N6BESIwXHAjjZzNDY2oCbBBTqTHwEuFdp3SCRA92eTD+SCgihvde4qmfcXqQgAZbAyE+iFWujIstD7BWpEQJKfa59MgIzZtKFuMP0H2VW2QqU4qsvvy4UBESSNsRRBo+qfGE7Ka6hSfdjwI4weHCrHFj5MEIOosxajMvI66TKYTr8b2E7qS2nQ7Z+wIuByGM4hVjjIcJ2U+NTFo5HUv5hoB/CPeimjnRAxIKytdRfUtWUyKnDAAjmLOwGknMNBMlhhETefpXStSgdOE9V7bhWnVq2p2wU6j+JnVep+u8buq3YntvqpCojIwGsJRD4zvJSLyJEsNUaJ9gaHGcrsRUgE0kTHtUonE9KQaPsdAFRCg6N7MRLGHfiK4yAD+wMFmkqUjvMbIO19vcVE3T7nPuZR5QSmUVyfkAfwgeh/Y7WLGurvrMadf1luMTybE6xO3ihx+6CBgJFtcx8BSFG68e1Iq9ldh9nLm/tRUw/CmE/gaPAPQczrG67N7BtFk9ZDNmRIyvirwsgTP76OlftftWhQoVLO0ahljg2Q1sUt6XbpqYi/ElmAktTjNZhSiVxRhoUwS2I7IPSm6i2PRnUcqgIjE9DyOc4RQSuIcSRJYjaD89LtRUKp0R0CEAYhAOQIltFJvaA6UMuW/SOAGhpXDfz8OnHrryBo7TEFyaoIM8k1Q7Gp7F7d3f2aTMSilUJIYh0NMXDoL5OKbmv/DwyTClbPwIz+D27tKcfc9ASDBVYhl5Mmw29MQjaglKmZQv3g/BKqgdT4cNNQvM11F9uct4/GwN1QmnLvAZ+MWB/28U5q1Aau/jyzMhV7XhOvtIh47bEBdvQmxnGQYjQCxAxuVwTiM8qfvl/TN5Bz6g0JdTuDxBQAPotIsVKkAphQKPNvCJEWINEIupyVIeiKuklCIWgmvAEnA9BuU3OLkxBJ7Yxl/KT4Hb4zDSDAcE4pHKGym/rJn93veRDh06/j2R72QRx6G2oxur28IfVD7VLfsxC+PhDXzH/sDFv7nroVQV+AkMsWCOxaXHDPoof6XszIYHSsBOxO0Qhma/1IFx+H0yl4s3WleHaEHiBUMC5haLeCSxzP9BH+nQcbtDhYeHK6lQoYIlPDycefPm6ZUeNe3+ZwkPD0e/5zVNu0/oc5qm3X0qIiIi12JzmqZpmqZpmqZp10EPIjRN0zRN0zRNuyF6EKFpmqZpmqZp2g0xiYgAxo4dOzpcmEXTtPuDr6+v1Ww26/e8pmn3hbJly6a7uro6oc9pmnbXNG3a1A4YTIAxLi6OrKysax2jadq/XFBQkMlqtaLf85qm3Q/Onz/vmpGRoc9pmnYXubu7GwBMSilr2bJlTXPmzLnXOWmadhdERETYypYta9TveU3T7gMqIiLCrs9pmnZ3RUREYAKw2WxWQE+Npmn3P4tSSr/nNU27X+hzmqbdfQr0jdWapmmapt0XbEwTqRMhsl18P/pVbstnHMUskYoVRL53FzkpYsoQY1CcePR6X97E+5qHDxDXViKrpUZy5zz/vslcFohUkZAddW/u+NxEXhH5XKRxonRLrXj5cSvjRV6XQtNm3vhK21bGiQwW/4nf6VW6/xv0IELTNE3TtH85xXdiavcS9ccJbEap23KT9V9iqDYUft0b8MqRtCqLqr2IzbOX/WjXmhemNmLS8JmyEpfbUc/1yWILPIVB1b+xxtkRcfB5T1an8cMnwyUW59uRofbfogcRmqZpmqb9ywmbYBcDB7V4FbbcliKjxDQDBh32Hb+SJROGqG1tjk5VyjJZqfU/QBfOH/6O9OzLOv4WCa0q8pOI6YCIKVacu86W5y4EFlR8jEhwLZFoEVO8iGusuPf7TKLwAtgiUrKayE8mkRMiQQlSdMxrg8Wl7yfwMocaDzL4j5kiIA7rHSCuLURWSWEZUVSM+wiL75lvEiGPfl3vwjvF6LSlU34Dk4LbpZgnUqeUyCYxeOwT48M/fg+lrqd92v1BDyI0TdM0TfvXG6vUfjWqzfnbVuBKPPZADco8s0DVwJJ7U5BSR5SaPle1JJMocRoNE7YXnrmPFdbyqqStUtesb+Hnb997pJiDz1lR4vQ+TNjkMz6Jxdbyiowq7dMmBvL5wkETJojzKJiwLXDWLtsKFbSSoy1DT7zTe1Tz0fHtYBmlVo22n36jl4oSs6N6a5ZHXMBG6ou1TryZUl/tLzU93zwMw84NhGFsjxxkGErx3JuenSnOjsoXMDDA4PoVjE4ouWgB9tTyO+2rXlFQHxEpM8Fx+2y36/nR7jk9iNA0TdM0TbtC2kbcz+JvpogxuaD9zg6j2AbCIujY8VvVBCsJKmMgfM/pP+v+Xjz/+ybODqPYOkpXoUvPqaolmSh72uswi8RlD0+ZTZn1lKvEU52/U02wNlZZe4qRURuvgcuvt97NAXgLQNBrv9g/9DrtOHsDvpH8/hI/b2DajLcEszFnS59ejstnLd4nP6bYVioE0/6RRQpURZVx+BFYCvD5IMftM23H/fqfBe3/mR5EaJqmaZp2/4sWY3eRSSKScHWY4yX4l4H2XLu71eaCD6ctJGYUKajYTPA6SxEjTd3P5DxWCFIgxQXBydExFuJ8mOK1MLt+Q8IDMBFLsnPyOQqdoZCJBk7nsvc2s0apMyo8768hBdZrw6xA4Rpw5lp3ODeOUtYPYUTppP5NeHjHgzmPmzLxdFh+Jk6Axzn8jTzolJK91YA3JAO4ZOLtqH2k6fsv7hd6EKFpmqZp2v2vk7J9qVRvpVTI1WEppQ63Hp3nQ1ETUsNhE3unPym78g4GjooEi7QeK+Pwc4Zzvhy3suyCX872E+ADvulYycwvFSdIMROezFtpzXNysCoVrNTsanv3keDHcdvl8iw8KRIsS/DPXUaB9cINrbznqyyHBpM2juUfD18GHiilspwLKN9IJnDBk2Q7q7Iu3ufgJKehMECGt+P2qXoU+MuO9u+hBxGapmmapmlXilLWXjC6xPmhtWnYa6JU/iK0iYjLyyKNWkM03o0DaE6qTyTH6hC3ix9+6CJgJFhcx8BTFG68+vUTnMuvaN9Ijtdl9w6mzeohmzEjYnxV5GUJnNnn3fEcr0XcbuZ/+6xMw7xKnMK2w1LcJtUxgp2sRC8FFFRvp8Ok3FhjTbzQmG/aqy+TfxaeRkSiRjkunyakFH6RY5XYfZy5v7UVMPwphP4GjwD0HM4xR+3T07/eRypUqGDp0KGDRSmFDh067vuw6Pe8Dh067qPIPqe1b2l5FuYAGQJZYLACGRh6bmWF8rn58u18DRXDYY47JIFLGobSO/Ac+BpjlWvOfuuhVBX4CQyxYI7FpccM+ih/9RquLWE11U93zvNvpdgJwdUhWpB4wZCAucUiHkkso5RiDYRWgV8MkAiB/1Bo7GA21TB/DD2ckdO4D5zHCuXisN5XcG4Lf1D5VLf824X0hc8pve11e67Ht0G1YEii8NSvUEocln+xb2bDAyVgJ+J2CEOzX+rAOPw+mYtSUlD7dPzrQ4WHhys9iNCh478VeQcR4P4EfGAi5AwtzzS9tbJtzIXnjGDlqnC2UDa+991u73EoDMMftyqFUhm8CeMI/G48SsntrGcvBDSAsT4Qb4AMJCARpxZf0/ifMnnrRW5XDnnbpkPHfzb0FyM6dNz9UOHh4UpfzqRp/1UDxLUFzJ0ThEsop2/bNao28yub2Ka8lVKmy5FhVvtCJt2uOq7XYaiDl1s3ExjAGRtEYnF9W8FtWYgKIEXE7yX46U/XrmXPlpv6mL0xHkNVUv3mWUuyWNV/oby9Mvjy3uq25ZC3bZqmaZp2d+k/Ppr2X3UB629MH7LnKSL9SM+4K3X6ifdDIiul3JqX7QAR4tFSZIWELX1te6C4txcZ6SxyUERixdziF2lzKuzSsSLubUU+dhE5LOJ1QtxfmSojR3q/ITJJis0bm3Od7VGRh0Se39rcQ5q1Tb5JiAAAIABJREFUhsmcH94M6fK7rJvhZ4RhmNNHCEiSiGdrkU9MIrFGkVgx1l8htXfWhCyGioyWwu2mVxKZ5iayRiR4r5Rfns9iTDa+h66r5BlPPpndXe19cadaqawjlIpbUpdXSrJlBDuSc93gKOTOARG3/NtccA6HRWrnbRt+V6WmaZqmaXeQHkRo2n/VVGVR6vkd5e9mnckq5T0YKPvfetk4YGWZcbt5fonz0PN8P3Hqb4n0/cHcvUFWz/P1VCTlhlt/W8vy8RNlJS6QyUjot9BlQPnMwapiMufLtUj7NJTJYa/ZHVS1dNXvG9+GT/CJ/AP1bTNVr1uuX1tEpsOri136V7RFqlo2Rdmx9nU/sGniZNk809sEVk5ZG8e8eHZkmrI2+p4jIzn40xuGK+c3jzKZ1sMDBLZdan2RpDzb1qn0BJXwrVrYPjH/DIVR8Eq+bV73tGtBOQQryxVt07OdaP9Z+iZdTbtHTPc6AU3T7i8Gy6c17FUnns77l71tEkt/rK2acay+YtMIWTt76PRO09+imi+dBz+lFnnZH4NWhL4zS83wSARFv2EyZ0r64p7HNr4TzEqXw39Cc0q/Olt9RAofKSqJtF8S0MFmOMSYG81x7DicV0IzQvrPVlGcBUV35KdP1bJX46cMKANAQOsNTPU+CNAIDmBJ9OAMrsCF3M09Dz44l/j7Rr+RGTsOl5WO2vzXl8EQfb05aNp/mdHV1dUGGDt27HjbLlPUNM2xpk2b2gGDHkRomuaAjcli6tEX3rbn96ulx9vrWfleN1Uj7wJIdnPfzfw94SFVxdEHXaV6Id99l5rUP6bQB0v42nMfb+CaDr7EVnxPJG3I5X2zzGzM9COEY6ngjbv7pWkLRyl1fhSZvCEuN9yy4HMYU8ETd+9Liyj5NuSc79pEW/wJ8VGgEJfc+dsh39887B5wloy44gZqyo3c5xB8DqPjNjv53UAOmvafpZQiIyPDGBcXR1bWDS2NoGnaTXJ3dzeA/iVC0zSHjLys1Bcvwxe3tdhoMQ6DgTEBYStCT71W/eBDLRvTiHWukERE3Di1I3DmVcdE4eIB50g548/Fy/+niQS85NvJbQAo1OVBzhlwRaTASxwOe2HzgHOkpvjllHd2Ld7JFDVS0n6moGPz5mW11h9mWvXVifmv8P4TgQzl+KVtTcSl/ireXffg+jlvOsjBcZuzeHcuj113Hpr2HyUiCrCXLVvWOGfOnHudjqb9Z0REROh7IjRNu5vszO9Mqwk8VZv3F706nAsfsfytD8VvsWcjWMK+EV1lAH5gYbJIU5HeY2QdrkSlZ9SF34kf86T0xT9JxPNnmIl75xf94ARp+0PZjImaYh4H7XIGEUawYUnxYDPG3Fm8PoCMBrCUQ+M7yUi8iRLDVGifYGhxnKcWxV5/e4w8Ad82ITqJER2+ldAxtSRMnIeIlG22ihnrpOsjPJCU7z0Rrw8gw2GbN7/idu2a82+bpv3H2JRSymazWcm+P0KHDh13PgB9Y7Wm/WcdFanvK3JGRnNqA9by/Or3q4hLulRIfP5WyjVaJtakqqSIiPVyGCwS8Om3v7oZg6JgOPXfG65eLJfU9UUWdGPWQT5IHPpjfSY/nvXZFvPHstEgTvG9pfJHlO/wm70e6eDCizC+VdaUnc6fyY5CuMUucu11iqc7ju0KsyqdG+pNHf+/ZHPwnGgX9mNPz+L8w1IPVgelDi9Hzce2yYJ1QZezVAyG8W0yxscY35RNxmHse9PUpAUNB/RSDV49fyPt9VYqeQq0bZCxYItv/MB5HDCd+0iKLl3m0ukULae2UVEPn8j/SMVA+DTfNteYmFZwrSbytC2a4jeSs6bdj7aIlKwpMs9JJFnE65S4PDNbXk4tfGulKmaJVKwg8r27yEkRU4YYg+LEo9f78ibetyfzf5E3xL2ZyE5xfmWd/IrXpcejxNRNZL6En+55Q+VNE3MXkR+l3KE+tztV7S7Qi7To0PGfCr0wkw4dOu6nuLhi9SOWJ2AhPu9Pp7fyiAG/lrCEwO8/4RYWdvwzewXnwwS8MoYqi4q/COZeULcmrMZz2A+sUC7/B31w9+J13B+ErQLxlFz85qXFLiMxPQ3zqZDU84bKm4r5KfiRsgl97nnbdNxI6MXmNE3TNE27Hxg5Bl9R/dUo9RmpEcqS3BJ+J/NQGXJdfnFDosQ0AwYd9h2/kiUThqhtbY5OVcoyWan1P0AXzh/+jvTsyRT+FgmtKvKTiOmAiClWnLvOlucuBBIlLq1ElkvxQu8Eisz3FNkk0miDtDpTCUSGiDzrI7JLRA6IFNkvRSYMELIvUYwRCa4lEi1iihdxjRX3fp9JFF43U2bA5+LZTGS91D3dIbtxFj4UiZRC02YKyLVyyc2C2aLKMNr10JvPmrqmVrq642xMFGkaLLJODIZYEZ994jNsmOzCCUQis+s5IAbPnTKg4YR/wOPysXZmiDQoJbJWxBgnUmS3BE7sl18e2r2nBxGapmmapv27iRurlZqv/nA7CkATs8sqaIxf7ZW2m53WbCUee6AGZZ5ZcOUsdEFKHVFq+lzVkkyixGk0TNheeOY+VljLq5K2Sl2zvoWfv32vZjEMzgApPWsnfq2eOR9J7d6s3cmWxS9vjKDIQoq+lfL08R5KqTKbOPlw4ZMzKxOVVpQocXofJmzyGZ/EYmt5RUaV9mkTA/l84aCZwI2WefowRQtqamoohR3mchUr1Fi2czA7vuenccMlNjudHKfFFDQF0+Qjtf8aZ7Pbw/aQ8mCtlKhH6byr62Gh9BcUjkx5eO9Lyp5Sad6FtXPjoFrOsRfEWHQizEiosOgLlK3MVk62Ck/s9zyNTzW/qedQu6P0IELTNE3TtPuHiEv3VYyc7zzQzodNptzsB520jbifxd9MEWOBizmeHUaxDYRF0LHjt6oJVhJUxkD4ntN/1t0cgLcCRXDfRaobF4iy2MNgH1knAzeXItOf4xf4dXAXKTomvKZShxPVludUlNuRs8Moto7SVejSc6pqSSbKnvY6zCJx2cPdq+B+w2XCkYLa4OFHhqNc8j3AUtv+qjcTGlyILErHvzuvzLXpIFTfTbcMRtb73QCUV5nHWsBSElc02wlVjkjbFEaU+xsMdIhkXW3YnXPsbqi1gx4WJrVZoEBVVekJbeF39i1tLTf7i5J2x+hBhKZpmqZp94XjIoUegjkzPd90Z/iobqoTqZc2Rouxu8gkEUm4OszxEvzLwNw/WbjV5oIPpy0kZhQpqM5M8DpLESNN3S9ND10IUiDFBRtmAJxc0nO2GUCBkt4/R6b0hycqnP7a6H9i4EKMZQ6K/0evyWbMmeBlIc6HKV4Ls/MzJDwAE7EkO2O4+M3/jZRZ7GIejmyyO8zF0SHeZ+1nhkAUO4YPetDqHSygMFglAfxw9kvFmcyc7HwhGes5nyPgi5NXGvaLv+wcx+YGZ7P3s5MAfvB9GR6Ubdntdk0YBU9hOelTYP7aPaEHEZqmaZqm/eudFynUEb5fXmzK3yz8sJcaRN6Z1jop25dK9VZKhVwdllLqcOvReT4UNSE1HDaxd/qT2dfzX3ZUJFik9VgZh58znPPluJVlF/xytp8AH/BNBwpYAS+KDkrF7laqb5LKKPOxPa5LSPJ7fXgrpYkTpJgJT+attOY5OVqVClZqdjX1B6dvuMxfwhsLKKw53+Yr0iDXVNLiMBfHdQmtI1n2Ej+vZ0b3Iekg2E0qBJLJTPYkM+cyJxvJ4I/ZJ7k4pJB13g3DxcGJO6Zz4J+9n4HScBrptou1qlKudhdTp1/reiOLeWp3hx5EaJqmaZr276bSGAAf/RU4ezNHX/pANcF6y2VGKWsvGF3i/NDaNOw1USp/EdpExOVlkUatIRrvxgE0J9UnkmN1iNvFDz90ETASLK5j4CkKN17d6TApjopfIVJZ5OFf5JkzJcCZx9w56E/aOSyIbyTH67J7B9Nm9ZDNmBExvirysgTO7BPl5/iyHsdltrb7QTKn95W2A+fFudBKaIohu6zDIpUc5XKtPvoQRoQlftJoIVQHCIXN4XxlZvCGh+3ANnEpvhgeIajZ4jqwI1D97MdbO+uAla8/5sG/oXxOceXg74pqmiv9lre0AUkino1FRknVAw/e0HOn3RV6EKFpmqZp2r9bxjE2QitOdOuPSJqIZIhIhphe2iQbcq1ncINqKfvWEdAi/OxUH/edPTeuwiV5iqH0Z9s9B87h3UG9VARZRKmsAdCvSmK3sohxrxwx7/jOpUcanZ6NnJvg+KbuByPZ3YM/VnvM8lsuIvGlL/it3ewz/Ccmeq8kSmW9Df2rn3whRGoa9hswxI03t2hFlVa/RSU7/kbeYZmjay1tBR/7JzR42mjyXu1FvTE2WI3VKgDBjdnjMJdr8FWWQwNhjGAsBuCvrEf7YO8dtLHuG0aD7KtGwB9b/D+aw4yw6IBIYrtx7EPP5ZVniME39ln3x9pGwFpUphHAXdlOvIbqVXLLQ/1MIgcL4b5jtdsrrnQps+mGnzztjpMKFSpYwsPDmVdxvnOfYXw5iceaMuan+up1DmfvYmGUOL09uNDM4px8tvf1/5xk50cxdmvn+lZ3tr/fUoXlXBtXEBvTxNS7N3xiuzTAEQGVXafhuX2s+rKhasiZAgrRNM0xS3h4OOHh4cybN6/ga2Q1TdP+/+lzmqbdfSoiIiLXLxHncN4PZYwsTGfyX50vDZ2jnYx7IQLf+jtu7Ho0o6yFOnhXiiGsoGsC8xzDi0pNsirlpFSG6S34BP8Jc1DKrJQyKduXEXoAoWmapmmapmn31qVBRPLHBMTQ0NM7gJHEzXjCuOzicu4bcImDUMoG7iZCnLqJDHYV2WkQ2S1SZYNUXd9EAYSISyeR0U4i8SLeu6RUtaFboToBDbapJmJ8QaSXn8h2Edkvxvqrpe7eGgVmFuXidAAi8K693Z4zeHlD3JuIbJLGya1ydjspUiZIih2Qx5Ib7BRpLS7NNpcR+dhZZLlBvPdJ8OzeAkITMeWfgyJapGppkaUiEmMWOSBOnX+QnmnF7kB/a5qmaZqmadq/3qVBxAUodUKqpiQPZtEjfJnOm/GPAKSMpcguHvCg5y8H39/N67OdXnokY4B60K6ywr9mxwS2T55gWDvZd/Qh+s1z6lXT0kfVVDXOVX0+YWuR5VSNoM7pmNGr6DvD8OTTZ9ocfVSp9LKT7Otm8/fET+VPPB1mthK3BAghqMzOS3f11CEjFA5w9HAFBRAlhpHwylH/d1az0H/DKihHZmZgXMs932Qq1XQ953pz5LuBLPi1uMMcfjP4zYdhB0P/WmxVqqKlBhU6WKK3sGZ/NYe5adq/l55nW9M0TdO0W2bK/o9iKVTEL/wgb5DUZSCzlu7+oofEvrdwP5Q+baiSzLdPmaIxP0ujkX3VWJLATHPYUJSdHsd/+brMQuhC5XeHq085DXaeFsOaGZRrjX+183PhBRpOGKgWFfoHoBOsfsseM/BsBl5wxRRsF51cRcld1HWlg9++Sw92yrKVxymGc3+HG6gih4ZRYTrVHqFjjw6K3ra+EEHx1761Li6/CSAUjhTmmJxc2qqkwxyMD3v4s+wEx8e3MAVv/ZPDapOC9+5st2vaPWM0m802wNixY0c9XZ6maf9qZcuWTXd1dXVCn9M07a5p2rSpHTBcHETYiIHKeNbeaUfZLxSRhWMTP+67883nay6FivhWjNsaTbFqtDIwxHtnTiFW8DqFH/yPvfuOjqJ6Gzj+fXY3m15JIARCAiGUhN6rBFSkqChNAVERlA4KKr4iZqP4U5oIWBEUAVGaSBEBAakCSgsdQkwoAqGEhEBIsuW+f4SEuqGIIHg/59xzcnZmn+fem53ZubNzZ36m8CYe8KV30c25SxzshWC8yiZ+NZzAV6A4q4M/F3E4AAREUSQDs7O5EopdEHlOKp2mNicuvu5CY9hG+t6HWCIeH0C/jJC35vC5624G4JYIpQmLGWW8sHY2FDpOiMNr0dbCCc7q4DrjfCwycP/56d13HJ4+8YjxS5GIoW849rX8SZ+y1e5HNpvNmJiYSE7ODU5V0jRN+5fKyMhwz8rKQu/TNO3O8fT0NEDeLxHqDHsgkhKRcwXwOsaJNnJu7vZV33T7HcCv9jb/U7iCtxWPC08ZxM4vUNPmViN5RPwyx2sUySGCcwCMN7msgib4Vt5W9yymdJ5PZPnXTVRM3lMJr8fGaqiMX/lEal/ytEmgFCQYcnb6Sl8afkazWvRq/agCdW4qvgcoVIxg06m8GHOgDh7VEocfWJjZq6A6KMViGIXIh2McWzu8nDBxlGF1y99Vw0sHMJp2X1CAo0yZMsbp06ff7bpomqb9XSo6Olrv0zTtDrt4d6acNBKpFEwbn325i5TqBd8WOfn+A9/hWp8S4Tt8YH8kC1wYvKMGwAYxlRwJ3Ynq9Hk7SPFipxdjDpdCxPBudzoswNyYwPpbgiGpOCvd+TChHMAakRIlJGSivJBVymnNLGbTXqiAd7V4O5ffY7lQJ/6qxSIxJBBL5Jtf2QfzF0DGCcIOcSaADUsfEDDsEJfQCfAsZTp+1QH2XrMO3RMiPhB5Vnw/e0PAiLKrMDgFpmyynd/bWdPuYXallLLb7TZy50fooosuutzLRe/TdNHlzhfgwsRqR9ppEqh6lvqczFsQNIPEJ8habaVxIdr77vNXOQe7kzagyK8VR4jBsLcOYTN3hHw5hk0VZ4XFsu1pdn3tOjt0gUjwzrdLUDKYwilU997jp84n9yDprcD5ZSaIQfY3pMS8QyGWtXzllowz+/E4AKUpVmn7VU/DK01mBCrZauxhZnjDKbnLHfwGZc8GPPV7y79aBxlFdlYkYHl80Ohv2VJ+htM6fBGZ9DisrHSmVwPEdZ+IcceTEjWEct1fdTxU0GPlNU3TNE37N1kpEllJZJ5Z5LSI73Fxe2GSDCTw1iOK9BWZKGKwi4jt8lIjXbpm1rh9tb8Rih9EKkv4tjoADBD3FiKrpHpq+9uXI6/NjVKk89kKF1+3MUZkoASNnySXHETeGBsfigySQuO+u/n3av9q5cuXt7Zp08aqlOKeKFF4PQTLqb27zcXXs3gTRlL0hxG2u10/XXT5dxfrPbfN66KLLro4L7n7tCebWB+HZQSOGU6sctsMQQ/BcorOHn7rxwVIH5hIkamfoJTc/bZmMRg+oOTWAQ6lUCqHphBAaeV6+3JcaLOQhOe7P7AvL7aVj2AggV9Muvm+sDIKBhEw9rt/Rz/qchuKioqKUled6P9XixZz7128tdTrgyNMLDc///XcZ0qUw6/WbmMBb9c0TdM07T6kXPiToh/Tqt8HykJWVZVz4mFYStaBCNMlt7O/3XaJRAdJ2G55Mr0WQJJI2WApukeaHWm4QyS0pshMEVOSiHuCePb7RCz45L13s0hYVZG5JpFjIsWTpcjYlwMnivfDIuulzqk2uWtZeV8kVoI+mfSOuPX6CHpyoNHrhkIjP391pNnTCD/ik9oK4A+RUlVE5oqY9ouYEsS101R5/lwwFnFrIbJcigUNCRaZ7S2yUaThBmlxuqLThoU/NrnuuSEhtNvc7lq3vHKaCwDFLJHaJUU2isFrrxgf+vF7KJn33uv1i3bvuEcGEYpfRVq67ZLkT917htJnUF8VfcmdnXbhnox7GGV8Eu5iJTVN0zRNuxuMXmxXR+aoCaSCjXFiLjcDHiOkzs8O/rk5jlEqe2csB8fw03vvyCTxGwKWlNBPvm/Wotjv78HYjX5jTrLQVk6RVbl15rhgJs573Q5gEfNwGLs1eMpO+6+q+Ar+al7q+KDep34o3+TamVyYPoMJT8JSSq4c4Tj1ao+RRy5pl0XMI2BsfOFJe/nVVk6F2St2ypkGC6a9WyMEgytAetdaKZPVsxmx1OrFmu1sXtjT6eVFhrgzr0Ec8bGvGwZT7NJFz00SV2e5BAwMMLh/AyOSw+b/gONsue2OlX0V1ENESo8Vc4H9ot1T7pFBhNBYqZ+ylCNEZX7aSb3P6csWz1DpG1RmRfWj9+q7VEFN0zRN0+6y0yJhFcTlr374b93kH/sH/epO+9sX4ac8+xIi50UkK794D1kiOzGDmT7N+LqddcQZevLtt9I3kHGtR33Xn6LriKhMx65fqOZkoxyZA2EKKUsfMsXjmRZHyHrKVqRD++9UDLZGKmd3CFm12hXfveJWqpgWR8gGIqNp23aaisFGssp6Db7n1No6mwLxVaAI7TNfdeYcFqsjEvaSczwYp3MUDPjH8kt3Fmxg/IQ3BZf8Cz1693CeizX4Hh9NyBbKh9K66XwFqoLKOtQUlgBMfJ2QgvrlVtqu3T33yCBC0zRN0zStYP5KHdihbMU+43TEo6fjAnlj7CeSdzv7mWLsIvKpiCRfXVySJPSn1675k0WRyeNRyl0p5ZZfMt5tmn9FxM+O7P4wyS3LI4aoHt+rVmRkg4+VRD8+95mXG9+Q/ACMw5rqSiau2eBzmiAT9c1ncpO4sFqp0zOK5t1G/+Zkg08aRYw08cw/yRoE6ZDuhh0XAMxu5/OWGUCBKnB81ciibO/D0IiT/WN4aFvjvNdN2Xg7zZWNGfA6QyEjjc3pedl8IRXALRvfgvrlVtqu3T16EKFpmqZp2r0t+zS+Uq+DLMETjPRQ6q/PYSKn19VhKb4AtFP2r5XqpZQKv7pYS6pDLUfcykHR6QCD75vwWpZ/5kR2vtFLBmcWM0O6C1GpvJn5SF4Om1KhSk2tquqS6gpnAjhqZ+m5gNwoVp4WCZUVBAgobHm/ECgyweN6dXCFM/4ctV2MB8fAD/zPg7MH+16fv7IeGETmhywf/c5S8EIpleNaQC4j2cA5b1IdrMy5MM/BLKegMECWb8H9cqv11O4OPYjQNE3TNO3eJhmUZd1bdPuqr4zH5ZiI52Boj2fpA4Rd/tDa28oihpGneXWV7+gD/MDrA5i/ks8mvhswmZN12LWN8VNekE24IGJ8WaSnBE/qLSB+sRypSeIuZk97TsbjslLMkfGwBNOg6gGQyqm9EQ4gQ1yDVkATDMiu0ygjOMhJ8blysrNfLEdqk7iTOXM6ChgJFfeR0IHCjVa1O0T6rTfQxIuN+La1+jp1gfAMImIZ7jwXMaQXfokjFdl1lBmLWwkY1gqlFkNTgK7vcKSgfrn1emp3gx5EaJqmaZp2bzOH0h26RRzq2tzQXVKK4n7wG5dHilK3X18VSfbfip3SuQci1sufE+FmlbJ/9loaxwP/48EneL6HRcWorDgYVu10v6qM3vTYQOhf7fiL4VLDsM+AIXGMS7MWVG6xWIHConL6Qd/KJ16KNHSXwzEEL9sTNGoSw0otbAGjCyXXf8Zo8l3lQ92RdliFzSa8hL0K/Ox6qFkfo9frsyQK9/w6WlTOAOhXOaVzGcS4Rw67bPvO7YVM2j0XOyP5b04sX6Gy3oYhoQp/DMiifs5zKVB84cjsDINKHHr8aQyeSQ0MD491g0Uou2F/P5XzVkH9ot1TpHz58taoqChmzZrlcrcro2naP84aFRVFVFQUsyrMdu0fR5fvYdBxDEWQyMOEvfsOSe1m/J2d+V6RwK7wfzuh9Rko6pDAdFxqLKbu+HfUitD9t7Mx94qC+6Tw/v8Ttw8/CP7OyNEOL78hjMr9++mXb/X/cEykcFHeqWdTQ37Ut73W7nMX92n6OEbT7hQVHR2tf4nQtP+qDXHEjKXaW8frLutGrMP/Y7U3luRxwxmSXfpWY6aLBHSHuWvdO5VJK/vF445GeA1WJ+s9krMoh5X958lb50NvZxvuBdfvkxWX9InCDrFY3d/6OwO5Q1AbH4/O/+T98TVN07T/Nv0Fo2n/UZvgKB6tevFbk9XKohy9W7G0Oluy2JoTcmsR7XwPnVbKs958NLWL2vPSdrVC2YYqlbioDn3D2DyU3+3ZACdFvFuKfGQSSTCKJIix3q9Sa3sNyGGwyAgp/OSXFUXGe4isFgndI+WWt1MoporUCRP5TQySKOKRJB69xsvYCw8pEvFoLTLMVeRPEUkQl2Y/yaMnIm8p5vhhvq+KfCohs0blXaf7l8iDIt22yCZ8uV5dbqZPtqVeMulRMEIcLueHCsittClJpHZL+IyMdx5GOv4i6whA0zRN024zPYjQtP+oXkrtVufe/jn3jLdi0Vxqb6JpNu29d99SQIvJtB4eILjVEttLnLxs2Tp1PlklT1NLvI5DFl/Cywvd+lewx6qadkWZUY51c9g47jPZNMnXBDZO2BrteCltWKayNfyew8P4c+6rhp8M/vNh8MHIDd/bHSpCcT76ofOfneWrY9Uhm+HQd45Ll/o5XTPqqljKvmNbvIblY8bJumfcbzrmFw9VL7itBrPzutxkn8xrnXLtJHJLbSq1Y8bOt+Aj/GKXoaY9rO94ot3n9GRcTbtLTHe7Apqm3W0OvhNj7VfwGEHVNwY7OnP8FgMZMsAP1xJ/FHh2wuLutg4eJrz/VGUhDRRdkLkfq6UvJ30+IPdSqsCWG/jC90+AhrAfa4oXbpgD4ASHRzUzFi6+mXbqdzWDAbkxxW0NtKDUkClqglcKKPrFyfTPzy/seuS3r0Nh5k3GzOZVoa3TNkRjd1qXW+mTaxj1IW4rbqVNJ0q53WQqTbuXGd3d3e2AsW3btnpirqbdAU2aNHEABj2I0LT/NJGhwtNDKPMmVSe87Nhcc9nF03p2PhPTC33gLce1frX0ems9K97trKrnPxzJ4QVpZCUWM1BDnF7TfxbjWfDG0zf/QUX+DTjjvybFnnRM/BQoxO3cJe9wgAOMyv4+MmDn+Rl99p7no+MzJ5cQzydm0u/Lt5SVnPPgT0KFd0Uy/+/iW3Nc+N0ccNMxX6s9ZGBB3daugLq8z+lL1ryxPrmG0DMYb6lNmvYfopQiKyvLmJSURFZW1t2ujqb9J0RERBhA/xKhaf9hIiOE54bwcC+aTmqnFofsuXy5kZ5KfdUTvrqhcBabrV6caeU3x2b35b2nghnM0fxlMeJfY/OwAAAgAElEQVRWbyVvr2uQ+r16kH1ecIaz6QFcuFw/bQ2+qRQ1EuY47Sw8gJ9SaatgKKih34sh9IvMCZNXTHu674ouDHeHk0Qnfqi2BU+6/F05vD2Dx28q5jeP9lWgUBcHT6fBHREp8H3Tnu7reP/Bd/LfdCN90nj99DeuUa9DPthvtU2a9l8hIgpwlC5d2jh9+vS7XR1N+89YsGCBnhOhaf9V24Vqb1B7IJ1mdb56AHErjDwF02KYeZKhbaZJqZE1JVJc/0+kzMMrmbBOOjXlQf/jWLKy6sMSDoxpJ8PwxSKGL6B1sqHZUTrMT3Aafo341hLDXInZGqMQno4ipQQcAYc0tpDdEBaxd2gnGUAAWPlMpIlIr5Gyqa/zp706i+kwEADHyNxXik2YqCEuH8KT+YOISPFxVpeb7pMHTl5zTsTAAWTdUpsAI9ixpnuxCX2HV+1+Z1dKKbvdbiN3foQuuujyzxdAT6zWtP8oB3PgSQe/l+Nb33gRycotbpkSfarLrUb1VSr1c2hVP+uHzf5Jr81iv+nMB1J0yVK3dido/sWjysIxcGUQjHk0a8wO4xuy0RjH3jdMMc1oMKCHqv9yhtPgjRaeaY36qsjKqqMNYjwgu8x7J7t2dtCi7mcKpV6Dj5/I+WSzy2j53SDmpF5S6QPKtVnsqD4u8+ZjNv6sE0ypeGawL7UL/SabQqfPdGMfjvM5ZCAkZDuty5U71ev3yUPHrl05xS21ierUhVXFz75TlhqPb5WZFCvgX6Zp9x+LmHqITBRjt52yAr9bC2LnS5G+Yu7/m8TjefkykbdEPhDf93+UTdz4sykGiHsLkVVSPbU9KH4UebCwyEExdV0jU6XoxWW3SvGDSGUJ31bn8ly3i0hfkYkijVKk89kKF1+3MUZkoASNnySXHGDeGBsfigySQuO+u/n3andd+fLlrW3atLEqpdBFF13u+2LV27wuuuhyH5Ur9ml2pkFbI+yDZ7fwq/K71dipUKIMvom0yGh86evp5ShUC3ZQ41CbG49nBzA2hQBKK1elsrHAewR+OgWlDErlcHHZrfZFFoPhA0puHeC4LfGuLEgfmIiQhOe7P7AvL7aVj2AggV9MQim5uZhWRsEgAsZ+d/Pv1eUuFhUVFaX0LxGapmmapt0XUsUY+jrFB9gLMwJs1uu/wzn/WA43JX0pf8zoKPlXbijW7qHx7zxnZ0TxZQA7REJriswUMSWJuCeIZ79PxIIPA8S9mchKKSxDi4pxLxW69jTCj/gdfOJ/4tp7BLxE6puPYnj2Z5lqLmqEH/FJbQWwWSSsqshck8gxkeLJUmTsywLG9SKRFUV+FpEDIm4HxaP3hNzn09gYIW49P4KeHGj0uqFom6+AuXnx/hApVUVkrohpv4gpQVw7TZXnzwVjEbcWIsulWNCQYJHZ3iIbRRpukBanKzrtmPDHJtc9NySEdpvbXetOEU5zXei/WSK1S4psFIPXXjE+9OP3UDLvvU77UvtX0oMITdM0TdPufRYxDYC4w6UnTd97nG1/P55yvAjfcmJmDJ9euCxwvMHlW+hAaMc59hjSsIj5PRi70W/MSRbayimyKrfOHBfMxHmvT/JBuYGdsy/VPPZGej318MSJADi81Jsq+5MB8CWFRk/HMbmZ2kzaJe0wD4exW4On7LT/qoqv4K/mpY4P6k2z0c2+gKE7Ar9KRKlSRz2za9Q9/2l1Pt3TUWHitVi+fBKWUnLliIMd5vc25t0NziLmETA2vvCkvfxqK6fC7BU75UyDBdPerRGCwRUgvWutlMnq2YxYavVizXY2L+zp9PIiQ9yZ1yCO+NjXDYMvv1zyuUni6iyXgIEBBvdvYERy2PwfcJwtt92xsq+CeohI6bHO+9L+t/+Z2j9BDyI0TdM0TbvHKabE0fYbw+sBTH5wvM9N3E65IJVe4Y+WLPqLsfEtFXCqO6V/okplWjeabgDS4ghZR0RlOnb9QjUnG+XIHAhTSFn6UJfKeApA8Vd+crzvc+pGc6bFEbKeshXp0P47FYOtkcrZHUJWLU6+siQMnuNkl4EK7MFnOVEV4jmXFFrQzZ3T4gjZQGQ0bdtOUzHYSFZZr8H3nFpbZ1MgvgoUoX3mq86cw2J1RMJeco4H43SOggH/WH7pzoINjJ/wpuCSfwOH3j2c52INvsdHE7KF8qG0bjpfgaqgsg41hSUAE1933pemq+alaP8GehChaZqmado9TZ37k9co3Y/2Qwarupy/5kozxdhF5FMRSb66uCRJ6E+vXXUw/qHtfBv4jgPfPmXY1N3jS2iT5tdxCx+5JgBkg4+VRD8+95mXG8eQ/ACMw5rqigFXBQr3wNM3M2M4G3xOE2SivvlM7isurFbqtNqYbTVA42BknojxDxHWTYVmV98V7up4aRQx0sQz/xbaQZAO6W7YL0wMN7vl95kBFKgCYzayKNv7MDTiZP8YHtrWOO91UzbeTnNlYwa8zlDISGNzel42X0gFcMvG12lfZuJ6o/2n3Tl6EKFpmqZp2j0t8+hfksKBCL73/klEksPgR/ihEo3rrpfeOdEAtFP2r5XqpZQKv7pYS6pDLUdcfVBk5HF3FpTJmlyU4ePrLYbHiXp2qgIbgBnSXYhK5c3MR/Ji2ZQKVWpqVbWMG/714VKucCaAo3aWnst9kA5WnhYJfbSwW+VpeHxyrNqyiSh7LRVLvadg6Y3E8+eo7WI8OAZ+4H8eyLmVOgL4K+uBQWR+yPLR7ywFL5RSOa4F5DKSDZzzJtXBypwL8xzMcgoKA2T5FtCXdXMHGtq/ix5EaJqmaZp2T/Ms/YBSKqdI3sHnAXgCWm/j13V11CfmnX8ndqHXOdqclKXMM7y5gi7wYZFf85b5x3K0Dru2MX7KC7IJF0SML4v0lOBJvS0Bt3bLUr9YjtQkcRezpz0n43FZKebIeFjyUxEaphFqokbt/Qqb+jKO+suhFraznqYLlx4ZwUFOis/hK+LVJnEnc+Z0FDASKu4joQOFG61qd4j0W+8ZEy824tvW6uvUBcIziIhluPNcxJBe+CWOVGTXUWYsbiVgWCuUWgxNAbq+wxFnfalv//rvpAcRmqZpmqZpzliUozt8G5DlqEHJznPttTlzybKct6B/teMvhksNwz4DhsQxLs1aULnFYkvqLc7LsKicftC38omXIg3d5XAMwcv2BI2axNtMfJS9Uwzj/eeKwW/TS56vt2wMcaZj3dsQseglsWCvAj+7HmrWp95XD3+fwYWHTVpUzgDoVzmlcxnEuEcOu2z7zu2FTNo9FzsjmYKmU1zfCpX1NgwJVfhjQBb1c55LgeILR2ZnGFTi0ONPY/BMamB4eKwbLELZDfv7Oe9LdZvmuGi3l5QvX94aFRXFrFmzbvyBKZqm3ausUVFR6G1e07T7hN6nadqdp6Kjo/UvEZqmaZqmaZqm3Rw9iNA0TdM0TdM07aboQYSmaZqmaZqmaTfFJCICGNu2basnrWjafc7Pzy/HxcXFBBj0Nq9p2r0uIiLijLu7uxd6n6Zpd0zjxo1tgMkEGJOSksjKyrrbddI07R8WFRVlttls6G1e07T7gYj4ZGVl6X2apt1BERERJgCTUspWunRp0/Tp0+92nTRNuwOio6PtpUuXNuptXtO0+4CKjo526H2apt1ZCxYswARgt9ttgL41mqbd/6xKKb3Na5p2v9D7NE278xRcOrHaIobeIt+IiO2KYhWfuCWy6R/YOC1ibieyUMonvYRFzO1FFkj5A92utV5bkUVSPunFGw9uZ7xIL5NIzsW2GOz5fxu77JQ1+BdUt9z6/Hl1fW6jFSLhVUQmeYgcFJETIv6HxbX9BGl9rig4GCZSTyqdrnh7szr4UaSzeAxeLgm43q5Yt6du2p2SIlIpVCTt6m3eYJXAj6f9LlKluMhpEcm6WNzPiqnKOim36JHLnlAUKa4dRPoWFol3EckU8UkTl+pLpOy8Jtd8kpFFDP1FuhYR2SdiTBdDuZ1ScuZTF59KmsW7Im1DRHaKGE6IsdbvUnlTg3++VzRNuzfZ6Csy8bLv+bziP+wn+SduJDNA3FuIrJLqqe0v+7ug9Zxy8J3ICy6XHbPIJW15Zp+sIPCG66Npd8DFjeoMrolQlspHnldKmS4pLupMbFNVHettz27JyTkGnTCUnMRivPYTGE6doPir1puO934CwqhUaPuNBzfyklKf2pQyK5VlehM+otDY6SjlopQyKfvX0aoBp52+fTFe+ykUTq3gbbfStBvSVDw/gKnxQR+knn/8RLRSKmgxadVa5swsxMpJw6MtRq+lYCHC5Ht7ExtlDdTGt+IOIsm54bcpdY1HRl4SS7vnZFAng49Vucu3eYeLOtmnYxg4zlLnLB+rCkopN6WU2z6yCr1ij/+OvaPGG4dmlQTAIqZe+xn9vbFxjxOhH7xqaxfrN5KM0u1tm5e67Ov/rTHm4ENX5t0QR8xYqr11vO6ybsQ6/D9We2NJHjecIdmlAQ6Je4XhRP7vaP11vVGq8EeOPz5i2/8+lQkUucNdpGnavaTIlM/zv+fzyulBLRV/88nM1/Jhznk7PMGZgLl/P5iBDkp9ZVXKrJTDtAI6IN22s1EVym3H1DIqhpN/P4+m3T75g4jU0QTuIzKQJoWuOIhXbBBpJaY+G2QFXgBES0BVCdwlHTJrAySKPCjmln+UEXnHQ2S5UbyTpMS0/gKCiHtrkWFmMewX8d0uYTXeelBkpdRObZco5iZreH45n+BxZD3hWyhh8J3i2dlTZI9I0SMSOrmvgBzdQ6l46sNLPknEiOlFkR4BIvEisk+M9VZJnT3VC2ylxc28H6LxrRXvuPTR6dFi7iwyyF1ku0Fkl0jlDVJlfYwCcuvTQNHNI4lIcX1B5CMx91gg/QgqqA4F9sUVUn8hIJGixXig5yw1NzADoKlSxwdDx5oP9Hk5NI6fluLZkB8rjJf6aY2xiKGvSC8/kd0GkYNiqBovVTY0VtfLGy5u7URGmEWSRHx3Ssmqg7dANQLrb1WgCop7QORBcW2xoYbIp2Jos9IwVoo7i3UrH0Dt3hKpVPa7YcyIYqON9bYwgKQ4qn9N1BO0ntNFHRz0i5phyRmo1MnpsYx8jOSXOL7/6OVRFJvgKB6tevFbk9XKohy9W7G0Oluy2JoTAjZmQ/OzAX02sabOKoVS/V9hzsP8kMEXafXvRrs1TbuHWcTjYZH1UudUm9wXrLwvEitB4ycJCBZxayGyXIoFDQkWme0tslGk4QZpcboiKGaJ1C4pslEMHglibPlDjMgwCRgz89WRZk8j/IhPaqv8XIerVgkXWWkWOSqmR1bLYyfLXVmdHSKhNUVmipiSRNwTxLPfJ2LB50aa8odIqSoic0VM+0VMCeLaaao8fy746jUVy0SqBUnQTqm7udkfznIW2HZNK1j+IOIclEyi1jlamw9fvoqN5VAF/6j9xHAO4MguwrdSS+jucQDsLIPyWFOKJ9Ra8+s55WiykrMDOLSkG+s+9B8G/eeYe9ewvuGoqaqfqdb14Kbg5dSrRNOcXcugAr7lDxAzM2MrlIOcoPRKC3/JVJRfyLHuHP7uNb5OLb4OyuNR6SglJG3ESvpMMDz9zOlH/3pMqfNlPnWsm8of4z6WtXg7beUKPJIhnOKlt188khd5bxcDp5q7N80aoBo7VE7UZLaNJf6zsYY16f5boRxe1Q77DBV76/18+bXnmwGM/vxpNTbrhPM6rPV22hdr8LuyWgGxpNTi6CbmPTpGfFo/K9ErggHqKnX+9zmOU6/Dx7j2/IOkA9XUWr9fd8dR+2NqvZL+5KGnHYqw4Wrrt+z70WJInuTmPO9nfiMO0G+WuUcNa29VQ1U/U6Vb8pYiy6kSTY3cX3YKirsUypJzquimmpu+V+q7RsP707GgWNr9LVnEbcgBOu8ixk4zr31gYyHUy3J/LJHhvpf/amdRjtlKzVe7muy8PIrQS6nd6tzbPytQoFg0l9qbaJpNe+/d4CJJUAbP8gn2vLOHdckpAQdJ3VNG38NR07TbKhXlCpDetVbKZPVsRiy1erFmO5sX9hxvMXh8DSOTi//4I47Xyy5yLIw7Bm0xGO1XhjGCkfSH6x3okdEupzThXexL9rNmcpxEYMxfySLm92DsRr8xJ1loK6fIqtw6c1wwE+e9flXAK1nEPALGxheetJdfbeVUmL1ip5xpsGDau1derrVDDBE9YcLJSrPf2fFI9eUfOsk5CXDW9mud/NS0S1340CmWQAUj31agoaSKiLpQHOLXddVqqIZP3ll8xS6IxLXiCcJJA5PshIoEvzybDfVXCII3WDF4ZLN8oPsCaE/VwZ+q9znNRoe1I6yCiBSeeDplO1TEp/J2aO9YC1UJenUWm5svUChVHXYX5bCdP3f5bIBq+FTcvqo9PjPgRRqM/Z+aH3IQ3GgHq/wcOwLJcj6KP76SsJ3UcadNwN68184GEzQTl+doOOx9NYqT4MIjsKEo273YuKPwWqiG564DNZbw1ZxCI06w4b1uqjdnM8q6Bzqtg329n9O+EGxXVcyicr6Fzi2sqyeEZMx5zmXXwwlibrBUKq2po7CxBirjE7WHcLIByiv7OjhSyfFD8XhwqHqQCEpBF5zmXdrLcx50pNLb49THnGKjw/oMrIayp3jBI/mG4gb1XMjv1VbzsJvv9WJp9xYv1nvRR3ZcPu+hxBlpkNo8f3lfwyYRSTOIpJfEI220uf6DVBrUWfXhCChSIQC3QmmE38SlcfkcfCeG2s/jMYKqbwx2dOY4FuQ8uGPwzsz/BmuHwxXOY0331IMITdOcSnmmFyKOi8cxJodMavfh9a5lUqAI7TNfdeYcFqsjEvaSczy41PsUjye6OM83n6OwOB5RbGsOi50GKvHqbPWZ13ESVPYrMJO0LRUpTP4lyWlxhKwjojIdu36hmpONcmQOhCmkLH3IFI9nQXVMiyNkA5HRtG07TcVgI1llvQbfc2ptHdZczMG5J4NfgK8Tyi343Bb/wPRiBeTsUhlPZ21HDyK067gwiLCzAyrZQ+YNsykl6mIxqE5TWpyFEhQvtSP302RlLVTCp1zuwa0F1/1QluBH1uaeVbSxFCrgWzbp17cI2kqDALoW3Zybx0EiFME7MomtK7MToSxBNbcrCy67IYqSjy5TFy43soP/UYopqjQ8vw+iCWqwJXIrpRKgOKuDPxeRZBFJLgyL0yiSjdnZAUzuoOecVDpNbU7kvZqeQul4Whj4P9/8M+g28DlBAIQ2sCZAJVLmPrWcYg2o2HGJis6Nf24fEU7rkPoqzvqC+rm/4lxdPXX+J6W++EupB2djK/mUde0mtg+bZhjpXXIvROFfLz7vkqOXxdguiMOzDWL8XcSwviWMxqdcwis/IM7yroyj8CYe8KX3xf/BXgjGq2wiHqRdL24ClKNY81UK1PGlhBcYS7vnXDnnIbcc9FFrAn7OXz7OUV0p5eeIotgjZG6g+JAVtvg6G3IjCAGQSuaxQmzC7dpZshgg8qGInBQxnZCQH97NPeMmMlSMHTpSZkJK1UWvODbXnC8AFpQ7ZOK4ZMAwE0MWeGAslKG/1TRNc6rI1E9RynDxOMZmUM/PHHBDs6rNbufz/jTkjivEIwfPdIIMPGhOz12So4rCkWu93QEOvArnH2cUggzIMGO/eGOabPCxkujH5z7zco8hDMkPwDisqa5kFnyjk2zwSaOIkSae+fM5gyAd0t3Ixnyh3gb2rn77D8Ki8C/1l/F6OQ0Xcl6j7TfSZdp/W+52pc6QAOUIrL3beMUKxz8leD/VfWkdkABAP1fXeKiNX/1tCtTZz/BNIqwo9Tx2AzDTxbgXKuBdNb44+J2liJVynAWgu8llOTyMV/TO3XF4J1I6mEZeu1mIdzKeERQ2X9j47PwEtXGvmhwyE2sCRUOp6b/DBu7pPJ/IcnslpVS4UircoVSYUjMqqIYXBwiXs7EaKuNXPpHaF+oBKHADbyseeRPG7fwCNW1uNZIDFpGzH/cwan374hj+iuO3Ma/JJjxyozmvQ0Z3cpz1hf2KSV1HRAJFnnrs0rtePabUyc/hszC2GtiYHZmEoRSRxXYCbI+j4RiqjDzRYPkwm7LXUrE0eBT+wLf+5neG4eMsbwj4nqdIDhEXBjHjTS6roAm+lbfZqmMtMO7H+PxJWAj1vHYB5EBAQbFu6BOn3bt2Os4OgPf4852XTN2yy+e+aKI5rPXOnhPBW0drXv4Gkf4iPaTUL22OgwWoAPYK5BiHGxEZITw3hIdfoemv7dTmhssufmNZVSTsIWNXWWPePmoebgcgnJCIvfqbTdO0m3IGJaCw5Z1ZV2SS+51+PVmQ6UWqg9XZFy6ZNksKFL3WugJC5pn8S5fTwBt8z6MunuQ0Q7oLUam8mflI3jGETalQpaZWVXVJLagurnDGn6M2lp4LyHvtGPiB/3mMuVcsKFCEzR79EQf6se7V4dL7fFiBOZdx6kb6QdOuJfcLOieNZIKLUclr35UrGMElB5uRlGwXLGIYOo5nfqZEdSIK7wY4e5zw3VS30s4zdy7FTlz/hEhCKu30gpOFiHfnoyNlsIghdjzPL0QaElh3u/chwvdRPZsW5iNH/6BkEpmBbF7SUMCwSUwlPoUXKNPxqw3TCdlJHTvPexzwguTirHTnw4RyAGtESpSQkInyQlYppy20mE25B9TVLjuQ94T9kSxwYfCOGgAbxFRyJHQnqtPnWydQdAvNsxjWesVzxfm2bs5wP17a+yhAQXUoqC+uPAtiAr+SzBtLuzHdpT3uoJgsUqgf9DxAkwwOkHaQKB+quqSA4ggUQ6qlMbBxvBGR9+JouZgi9SlZOKGgvB6Q7sVOL8YcLoWI4d3udFiAuTGB9bcYrxc3ifBdVLPytOdfFz4sBcTS7n9C01iWd+G335j98dt5A+BSsWzuTNIsFrf+SkItT0jTVz3/J1KkrfDWWKIHE17t6FSlziiljimlUtTJVhnbhWpvUHsgnWZ1VotD9lyex0RrWBiQNqYKddc0ad9ejB9MpcMyOprp7r/mbrRc07R7mA/2AEjl1N4IB5AhrkEroAmG61+us6ovRyuw7QSTVzcTkBVC9CJ4+FrrCggHxz4hFnyIEdNYaEVAjW1RqZzJW8c/lqN12LWN8VNekE24IGJ8WaSnBE/qfb05CH6xHKlN4k7mzOkoYCRU3EdCBwo3WkUM6XBhEFGoUUL/WGb0ZeFyvhnxUcAUTjvLaQnQlyxpf0P58uWtTzYIt0LLRH5WRZVSXFbaYe4In0BAIhRaTGHeDKbWXr5W4UrZmQXP4/H2EjYqF6UUpyG8OBX3E5tVTsVi6Aevu8JhJHgLYQwuQ9EEnjlZeyp0xcuyCBVrmgFd8Hvup8dguAn2QMCfBH74Jr/GmqbDC3hZFufGP89QaBMIOxD2Q4mthHzxwoWfLrlm6YRPA9hO3dNPXL4sh5HwaBGIR2QvhG0k5MvnUBh+hGfxiL3QJhuToAuGnutZqHyc1wFDgX1xVd2sjILGYbDCBdJAzoD/IcxNvqXunnLKH98HYSXUSuKJtOrpUKgRTEcCtkHReZQr9fRjsBCeWdMQXivgf2DqBkNd4QQSvJsSxJal+D5eOFdDKUVBcevDq3i8/Ute3OvF0uWeKNby5ctb27RpYz0GlYpDGmC7qhie3xkezgO+1DnEx6r0pTGSIao43oeot6dV/utgfhr6FoFtRshC/I5jbjSDir9Vu7oOOcTBUBArkHWxuGYSdbJL7jrZ/A8eD4GdYDqNsf5aau7WnzNddNHlynJhn9bK2gcmUmTqJ+ReynTJOna+gYcKwXaMPqug7jd1YRQBn0xGKVF9cW0Fy6h0onPu+lbGwKv4j5qDwjARHgqBXRi89mB6cspD8CEBY78bOALP5rCKaqfaq1dwbwqrKeIdFwLL3OFPTM1/5bG00uoV3PPXU4rtEFoNZgqSJBiScWk2n6Ypl+xnHayAdki3rWxUvpe2ZT2UrAxzwZAALgm4vTCB3qqQUoor86RBQEP4jfB5r82DEtfMWWDbCzi20uW/XlRUVJSS8uXLW6Oiopg1a9Y/8KRHhVKCXBjn/inSMII2X7BqViPnlx9pmvYPskZFRfHPbfOapml31B3YpzkQMYhSKMjhHXEdGhv0ZVGOd+uWN49T0/5jVHR09D/wBMd8OQwVwxsGv4++lJmYj4t4vQYvU+TJJTTUD0zRNE3TNO1fziKm58U4jUITP5IVmP4U1yI/wyME1V3v0AMI7T/uHxxEmOkI06qeeSWE9qakInju+MGjx3F6dLLokbumaZqmaf96FmXrAu9GneoWTWPjgQh8Nqz3+r8VfBI9RU8m0P7rTP9k8FJKHdwMLf/JHJqmaZqmaf+URkrt3gkP3e16aNq/jUlEBDC2bdtW/zqgafc5Pz+/HBcXFxNg0Nu8pmn3uoiIiDPu7u5e6H2apt0xjRs3tgEmE2BMSkoiKyvrbtdJ07R/WFRUlNlms6G3eU3T7gci4pOVlaX3aZp2B0VERJgATEopW+nSpU3Tp0+/23XSNO0OiI6OtpcuXdqot3lN0+4DKjo62qH3aZp2Zy1YsCB3ToTdbrcB+naPmnb/syql9Davadr9Qu/TNO3OU3Dp3ZksYugt8o1Iq0MyitCL61kZLvKWFP7ms+s9TfGm5OcT2xXFKj5xS/KehntbWcTcTmShlE96CYuY24sskPIHul1rvbYii6R80osFB7QzXqSXSSTnYv0N9vy/jV12yhr8C6pPbh3+vLoOt8kKkfAqIpM8RA6KyAkR/8Pi2n6CtD5XNHcNB8NE6kml0xVvb2YHP4p0Fo/ByyUB19sV6/bUTQNIEakUKpJ29TZosErgx9N+F6lSXOS0iGRdLO5nxVRlnZRb9Ijj0mCR4tpBpG9hkXgXkUwRnzRxqb5Eys5r4rgqs5V3RWKNIucvj+1qlahTXQGwiKG/SNciIvtEjOliKLdTSs58Kn8fJOL5tMj/XKTkaWmR1uQOdJemaREWmegAACAASURBVP9qNvqKTBRplCKdz1a49PUxIgMlaPykWz+GEcmNfcn3e17xH/aT/FN3uhwg7i1EVkn11PaX/V3Qek45+E7kBZfLjlfkkvY8s09WEHhDddG0Cy5+8M/gug9KG5l3ns9+a5//xT/TbNwD0fjX23Zbb816BtdEKEvlI88rpUyXFBd1Jrapqo71tuXKY8nJOQadMJScxGK89hMYTp2g+KvWm473fgLCqFRoe8EBjbyk1Kc2pcxKZZnehI8oNHY6SrkopUzK/nW0asBpp29fjNd+CoVTK3jb323aNTUVzw9ganzQB6nnHz8RrZQKWkxatZY5MwuxctJwAQPtje5LwUKEyff2JjfKGqiNb8UdRJJzQ2/JfZJPwbG02yqDOhl8rMpdvg06XNTJPh3DwHGWOmf5WFVQSrkppdz2kVXoFXv8d+wdNd44NKskABYx9drP6O+NjXucCP3gVVu7WL+RZJRub9u81GVf/2+NMQevuKuJC0OUirMr5Z4Xdy9UdaPqZh7x/BVgQxwxY6n21vG6y7oR6/D/WO2NJXnccIZkl2aAuDeDGdOL41aKU6l3vNM0Tfv3klWZzPnonb9/8uoaikz5PP/7Pa+cHtRSwdXnSm6HD3PO2+EJzgTM/fvBDHRQ6iurUmalHKYV0AHptp2NqlBuW6aWUTH6GV7azckfRKSOJnAHDbx9AxlG4oSnjEvJPajcgFsilKJM8C6ixdxZZJC7yHaDyC6RyhukyvoYBSSKPCjmln+UEXnHQ2S5UbyTpMS0/s5G/qmjCdxHZCBNCl19EI9ig0grMfXZICvwAiBaAqpK4C7pkFm7wFwi7q1FhpnFsF/Ed7uE1XjrQZGVUju1XaKYm6zh+eV8gseR9YRvoYTBd4pnZ0+RPSJFj0jo5L4CcnQPpeKpDy/5JBEjphdFegSIxIvIPjHWWyV19lS/qsoWN/N+iMa3Vnz+A2gK6C+A3Do0UHTzSCJSXF8Q+UjMPRZI96CiznLeTD+n/kJAIkWL8UDPWWpuYAZAU6WOD4aO1OrdTbUXj2YzWbQUz4b8WGG81E9rjEUMfUV6+YnsNogcFEPVeKmyofF1/8fh4tZOZIRZJEnEd6eUrDp4C1QjsP5WZRFxFvOAyIPi2mJDDZFPxdBmpWEFgQXFutEPtvbPiFQq+90wZkSx0cZ6WxhAUhzVvybqCVrP6aIODvpFzbDkDFTq5PRYRj5G8ksc33+0wKDdxSUWYrPKjvraMdrtT1BsgqN4tOrFb01WK4ty9G7F0upsyWJrTgjnsC3my//b3YHYAM7rmZSapl0U/tjkuueGhNBuc7trnZT6Q6RUFZG5Iqb9IqYEce00VZ4/F4xF3FqILJdiQUOCRWZ7i2wUabhBWtzAr/QW8XhYZL3UOdUm9wUr74vE5v/6UWBsxSyR2iVFNorBI0GMLX+IERkmAWNmvjrS7GmEH/FJbZWf63DVKuEiK80iR8X0yGp57GS5K6uzQyS0pshMEVOSiHuCePb7RCz43Ej3Oe2fyyiWiVQLkqCdUndzM1VQzr/Tr9q/Xv4g4hyUPCZV0lMHMb8pX5/njaSmAOmjKLKTB7zo+tOf7+1i4FRz96ZZA1Rjh8qJmsy2scR/NtawZrv/MiiPNaV4Qq01v55TjiYrOTuAQ0u6sQa/ayU+ByWTqHWO1ubDVy+1sRyq4B+1nxjOARzZRfhWagndjx9wmmvdh/7DoP8cc+8a1jccNVX1M9W6HtwUvJx6lWias2sZVMC3/AFiZmZshXKQE5ReaeEvmYryCznWncPfvcbXqcXXQXk8Kh2lhKSNWEmfCYannzn96F+PKXW+zKeOdVP5Y9zHshbvy6q8Ao9kCKd46e1511s47y/8QbEVyuFV7bDPULG33s+XX3u+GcBn1g7Dx5986to513rfTD8HxJJSi6ObmPfoGPFp/axErwgGqKvUefUz2cxwnH0dPsa15x8kHaim1vr9ujuO2h9T65X0Jw897VCEDVdbv2XfjxZD8iQ357k/8xtxgH6zzD1qWHurGqr6mSrdkrcUWU6VaGoU2l5QzKVQlpxTRTfV3PS9Uj80UjHZJwuKdYufc+02SRZxG3KAzruIsdPMax/YWAj1stwfS2S47+W/qFmUY7ZS89WuJjudR1QsHs8j39MrmM/rT72w7dBLqd3q3Ns/5/76qVg0l9qbaJpNe+/dfKGsSnXbdtU3p6ZpmiHuzGsQR3zs64bBFLt00XOTxHUEjI0vPGkvv9rKqTB7xU4502DBtHdrhGBwBUjvWitlsno2I5ZavViznc0Le/7tS7lTUc5ij7cYPL6GkcnFf/wRx+tlFzkWxh2DthiM9ivDGMFI+sP1DvTIaJdTmvAu9iX7WTM5TiIw5q9kEfN7MHaj35iTLLSVU2RVbp05LpiJ816/KuCVLGJ21j9NQy4eL+4QQ0RPmHCy0ux3HOuqLZICck4C/rF+1e66Cx8KxRKoQEDUn7zKyY4whV1fvSAJuB6HiFOGyqlM62CaictzNBz2vhrFSXDhEdhQlO1ebIwvvBMqEvzybDbUXyEI3mDF4JGNYLs6rZ0lUMHItxVoKKkioi4Uh3jHLpP5Zo+9UAGfvLP6il0QiWvFE0SUTHeaa/lA9wXQnqqDP1Xvc5qNDmtHWAURKTzxdMp2qIhP5e3Q3rEWqhL06iw2N1+gUKo67C7KYTt/7vLZANXwqbh9VXt8ZsCLNBj7PzU/5CC40Q5W+Tl2BJJ1+aj++ErCdlLHnTYBewHOBhPktL82ZAdBNmuhGp67DtRYwldzCo04wYb3up0Z/pWr05z29X431c8WlfMtdG5hXT0hJGPOcy67Hk4Qc4OlUmlNndwzNDbWQGV8ovYQTjZAeWVfB0cqOX4oHg8OVQ8SQSnogtPcS3t5zoOOVHp7nPqYU2x0WJ+B1VD2FC94JF83ZlDPhfxebTUAD7v5FhTr9n30NQAv1nvRR3ZcPjehxBlpkNo8f3lfwyYRSTOIpJfEI220uf6DVBrUWfXhCChSIQC3QmmE3+Bla5d63uD2CfSl8stfqhjOXr2Cg+/EUPt5PEZQ9Y3Bjs4c/9uN1jTtPmbAP5ZfurNgA+MnvCm45B9g9+5ByAYio2nbdpqKwUayynoNvufU2jqbAvFVoAjtM1915hwWqyMS9pJzPJi8g92UZ3oh4rh4zGJySNHvx0zxuv7BsLPYpd6neDzRxXm++RyFxfGIYltzWOw0UIlXZ6vPvI6ToLJfgZmkbalIYfIvR06LI2QdEZXp2PUL1ZxslCNzIEwhZelDpng8C6pjWpzz/vml2IUc554MfgG+Tii34HNb/APT5To5u1TG87r9qt2zLgwi7OyASnjX2u5AOdoUYV7F86OL8saBGkugAv4VErfMJCSeFgb+zzf/bLANfE4QAMU62/dDWYIfWZt75tDGUqiAb9mkQfPFECOyQUROipT6Sx5Mawwm2QGV7CHzhtmUEnWxGFRG3INqEYY/oTTFS+3I/YRZWQuV8Cm355WZ4CzXr28RtJUGAXQtujm3hg4SoQjekUlsXZmdCGUJqrldWXDZDVGUfHRZ3jwPO/gfpZiiSsPz+yCaoAZbIrdSKgGKszr4cxFJFpHkwrA4jSLZmC89YMod5JyTSqepzQmA9BRKO+2vsq7nsLibE6ASKXOfWk6xBlTsuERFk3NuHxFOc6a+6rTt1M/9xeYqSp3/Sakv/lLqwdnYSj5lXbuJ7cOmGUYRisVs2gtR+NeLV6CwiOFlMbYL4vBsgxh/FzGsbwmj8SmX8MoPiLPcK+MovIkHfOl9sd/3QjBeZROxS0ZBMROgHMWar8r7PxxfSrjTWB6k/f2PvHapK+c85JaDPmpNwM/5y8c5qiul/BxRFHuEzA0UH7LCFl9nQ24EIQBSyTxWiE24XTtLFgNEPszdB5hOSMgP7+adEdv/DdXm0zaYdyOv8aUpMlSMHTpSZkJK1UWvODbXnK+/cTRNu55GFmV7H4ZGnOwfw0PbGue9bsrGO43/Z++8w6sougb+O7fk5qb3hEBIIARIQpHeq4DUDwVBFBXBgoIoRRT01QTFAgICNsQuqFQVQRSkgwgKSG8hJIASSggJLeXe3PP9kYSe4MuLILq/5znPAzuzp8zunMzs7swNNdPS8+xaxWDIgix38gs3c3Fzzy4qMxWM/c+lndCp76BqOjdmcZo0rceT9536k+tFL6PbIw/PLIJN3OqWVVCSp6Xg4OVOd4ELr5CjRf8PhJNw0u2s70Au+DhI9mOSz7cFYwhTalN4E0eGjTMlrxPJBZ9i20dwM4GJXStf+JXIOPzL/2E+77xibZoKbZbUrgY3LQWTCD3BToihbMw2AbwOcbQrp+ew4tOHfoFq+NXb7A828HbgUbTgOZ8foY7TvXZqpc9xphBZioYeOwCYaTXvgip419g0ahQns6AjUAW8a9DEbyWJ2JKgMkH1dpgv49SRdwjbQy1fugQkAfCEzbYJ6uHXaPOLo/ApzlYZ8DtFqIPKhU80+1qsS6A1XvHbdozAO5kKYTTz2sF8vFPxjCbE7WhRLN9BPew1UsNn4kiiVAR1/Lc6wZ7FA8ksya+mqlGqGuVSjVSdUUWbcPScx05WQnX8YpOpV2Bbwb249qIKxwoWb9sjqfv5wxP4YwSrJwyV9XiUZPNkX/KKiz3/ooVdB0WCRO7qdP4uV51U0yfBu5FsNPHLidLswSMFU3liSm8D2DKCJhO4ZczRxktGOTW/ribQuCP8im+jDSW1ezj4ZhOaR3ThRGayxboCWuJbffPPLahfrM638NlLZDgNvbYX+ZgHAcXpcv4Vi+0N/jzbXKcGw8vsffERy0O5sQUHLbSDn7xzv47mP2l1LjxB5EmRR6X8j12PQCJQBfKrkGceXdDv85gGbQlstZFOZFx87utCr+dpPYg2S7vphiaLjb84BgYGfxZ/dex7hjPjWPLGi4vAC1XNs3HCnzQni04HFNU7BH7gnw1X8Sa1iBOogOIserKunAGPP3NqDpzxIsPFytzCT6Td5DCUulxdAeHMibOfLmeCN/hmo+d8d4MsK3EZPHvmtqIxhFM1QnVqDW1wcZ69EBsltI+TXAUlcvYb49n3BD8/NVr6Z0de0eZijv2ZdjC4OSmYRORlkky1MLr67C44rNoPPg9Nf7Xpl9gaUTZqqw/siWGelee21gZYK5ZyY6AvcT0nLZpD2A5qOejmWbC+YRu2vRBDeLVtqur6TfWoqh5S3XREE3GeehffVMJKU81r9+WcMoM1D6eZw7lWEsU08k3u/Z6ytYgO2XHqCFHF2fKC9EA22Rl/sCKJYkqYzAPzkSYENdjifYCo3dTKpb3bwbRfKZfCmSA2LGwiYFovlrLvQB8q3vPR2umEb6N+Pg947POC1DIstzMuqTLAKpGyZSX8Q+mTU/4Chwue6FfBu+bZwbxnCe3liiInbSflf6NdDqO6LOtVhs8b5I3245FdHUuyWVLsF+8vZwG/cnw7kW4T+kp37KB8JhL4BDy2j5Yn6eGTlPU5QfuJ86GG9TAoB6E0UjOTIS02mRF5eQQdFhDaiHIhSSXZ9oAsL7Z5MeH38oiYXurL3fNwa0FQg9+yILxYnSlEbaemgx6ef5x3Qxajq9Fvl5twGlxPhDYJLOnN6tXMfuuFoglq+QQ23EfKLBZ0+UgiEm+XNk95viISeqfwn4nEP0dUzbSpqicKcoAe1vTOJwHoa7Nuh5r4NdzkumgSvEWoOYx6Q+g56z5dEL7zBgRrYGBwU2Ph4WZ83kU/zpgn3IuIJI7mYD2St/H11/cImIkQ+xi4m5BmK7odIOuqTfmQHwAZHNsV7QJOii14GbTEdOXPdVYMIK0Km4/y2cq2ArJMiP8BWl+uroCwf+LtkogPzcUyEToTUHtzXAYniur4J5BWn+2bmTylj6zHioh5oMhjEvZJ/yutQfBLKL59hhzihIIS2CzpyQRmDGD+Ej59fbwsw70km4kBxidL/2hiY2MddzSOckCvtaxTX1VFVdEZmPvCJ9D2GO9qlGoeY6BjKGxCZBdEriP8/V4oplnwAB4vLGSdWlWV4xBVhqp7SMipfFbfeXII6kOHZL7XUpcr12643QNvQ0AyBC4ghGfDqLuLj49HlWgrAdMT8LQNfkfCfiOS5ypSKol70+tNhQfxSvwBTbDMgN749fquE4y2wE4I2EvQuGdZmmCZDn3wSlxQoD+bkdA1CLYi7IGyGwl/r0/h68xz/vbEpzFsocHx288dL6691KSazzdwPx4JhXE4+QR6Y3psDT8+43t5m/9tOzsYCy0iYZkVMkFOgP8B3Fp+ToOdBfX98b0VlkPdFG7PrJUFgc1gOhKwGUp9S+XyPTrBfLh3VRMYWkK7Wx6CkTY4ioTtoCwJlSizmz6na5eksxE8hccLPxbpVFVK0nXZe8WQ/1YcsbGxjq5duzoOQbUykAk4LxHTA9uiomjqS/0DvKUVzteRCnFl8D5Aw52dzx4Htx4wIBQ2myEH8TuCW7MZVF1ds1hfEvBoA79S/ei9F5blMQJGgjiAnHNiO0Nceu/foaEfHAdyBPJBcsGWTeVDD/0N2tcQQwy5vlKY0zo7HocPid44xHVe+UaoEQHphLz3KaqyBspVhzlgSgJrEu59PqC/BuoAbJ1hMdWO3ldwroMJ8BT+Y79GMT8OHxI69W0KPmW6yId8PoVWgbAFs88KaPBpAxhLwNufoSpX0G36EFqFw3ZMXjux3DGlFYwjYOKXQ17Hsx2soOax7joIextYSaj3iHBYbIe9WNotpVNmBR2E/Ww9VbZARE2YKUiKYErF2nYubQ6fl8ddLINuyEMbLxj3qVJs+1xkIxMCmsBqor4diqoUa7PE2C8aSxlyM4nGxcWpxMbGOuLi4pg1a9Y/4JceFVVBCue9e0WaRNP1PVbManbh50cGBv9aHHFxcfxz+ryBgcG/nH9ATnMhYhJVFPJ4UWwjE4LfL8WRhx66pr/PZWBw7dD4+Pi/6FcWbwh5jBTTMJPf+PdlJm5HRLyGwkBC71hIE+MHVAwMDAwMDAz+ZiSK5QExf0Hgh+NlGZa9Ygv9Hm4juMEalzGBMPib8w+aRLhxD3xR48SgcLpbUkLx3PqVx6NHeLRnojGTNzAwMDAwMPjbkajO3vBS3LGH4mlh3heNz9o1XsOX8Xb8FGMxgcHfHcuNduBaUl51/wbocKP9MDAwMDAwMDD4MzRT3bENWt1oPwwM/lssIiKA+c477zSe1hsY/MPx8/PLs1qtFsBk9HkDA4Obnejo6BN2u90LI6cZGFw3WrRo4QQsFsCckpJCTk7OjfbJwMDgLyYuLs7N6XRi9HkDA4N/AiLik5OTY+Q0A4PrSHR0tAXAoqrOChUqWKZPn36jfTIwMLgOxMfH51eoUMFs9HkDA4N/ABofH+8ycpqBwfVl3rx5BWsi8vPzncBNujWagYHBf4FDVY0+b2Bg8E/ByGkGBtcfhfN3Z0oUU3+RT0XMeSKSLWI/KZZKv0rImN6y7M8swHYxSqShVDte9dr5+FfoNDAwOEuM2O4WGRAisskqckbEJ1OstRZKpW9buq58dvH0FWtFqdNDfsZ+rVy9st5chouMk1LTJlzpl1n/KtJEmorcu0lW4X8j7BsYGMBGkeZ+ImkSNvv1/BvtzGVRvhKpLlGb6xcd+UMkopz4rJC2fzQgUSy9RWZIxHevXOi/g5dEXpKAcV/LNdldU5kj0kLkjuUylLBiqw0We3uRFVIro/v/bvNqcDJO5BkJfPPLG2PfoDjO3YQnsCVDJar+/rCq2reSE9g3f3dC9NGhw7h/+gtX/KPc3WxfBIlEW3yvmXdXq7PgF1sMDAxKIlEs/fbwxjRzi0ePRrz2lLNbgt8YTlbo7tywyLr7yc/Nzfdf9W4hmZMpfZDggeTiealZMV3tBKUkvQYGBgYkimkS3JUV7TbR8/DkBpaZBN9oly4ljw1wNyZtqACJYhkOr6RGfTU3/4fSP18/P5Q3mrEykW+W8NG7LwqYr59tg38CZycRGW8QtIfIEGr5bgeIV82bpK75H8JADnzYi7cpS6KYBoj08xPZYRLZL6Yam+SWtS2OdBevtjP5YRGeTfimymRplNmiuLqXDu6VmSK3RIssFJGtVpE94tb9a7lfKl6iM17c7hN5xi6yxSSyXaT6WrllTXMF9oncKrb2a2uLvCOmrstNC6NDirUvYu8iMspNTHtEfLdIZO3/3CqyXOpldAOguVgeFnk0QGSTiOwWc8MVUn9nretyRQwMrhMpI6j1MXG30+Xr3rr/mR91RmLeENX06QmM6UTqIxzZk1bUj31FtovILpHoTRI1424B2Szyf+J118oGIi/aRBa5iTVJgsa/eF8bCekEM06zvDotqi2TTul11oh0Ed+uK9uIfDSC+1ebl0nQ4yIDvUV2F/TP+M0Su7TD2fyQKKaBIn39RXaLWI6Ite0CuVXqXqg3q85lA3NODaor8qW7yH6R+F1SZXmnwj/UpuJs7hcJrysyW8SUbBZJEWvrBdI2vRIAIh5dREbZRPaKSJJY234nHY/GABwRCWsgMkfEK0UkZnlVMy3/8gtnYGBQLMdHEPElLW4hseyUu1m4m5F72haVbRCJrCEyxyJySKRMqoROHFg0cC6u7FeR8reIzBGx7BGxJImt51R54HQYieLRWmSN1D/WtUC7g1dFEiR48icCQqK4txdZIqWDnw8Tme0tsk6kyVppv7Pq6+L+2Hh4jH3NnjYFjpm0eAQNpnBnNUa3+uTPv14QGS7Sy09km4jsEQndLaETBxfFs1Ukoo7ITBFLiog9STyfeFsS8WGw2NuKLJcQGVlKzLuWH9zb+3H4oELGKw25/3S1Ek3+XuOWKJHlbiJpYrltpXRKrwywRiSmqsj3IrJPxH2/ePT/QCbic9U+oswSqVdOZJ2YvHaJudU306Dcf3cnGFwXYmNjHV27dnXsh6ZwRxKLNFRVKZKT5QitgudebststR0aQN0k7jhQXRUZDU9jH7ac3btti6EbtqdWkKLuqkrxddV2vn59D+tdMIfyqwc6VdFaWLvC88Ss63ChTmQkDMet72IGa5BqHp9BT7h/Mys3+38A/aDufuqsb1qi/RTcX4NhuPVfzDD111pYH4S3oOFxhufEqWYzGgZi6rGKjn+UVc3mHXgEU7+fL/DbEENuTnEU9PkujrdgEPZnVhb12UvFxUpoDc120+1gnKqLOdDIi6op9D5VfQ+0g4qZNNzQ3qVKMlTzoU4qCTkV/4BG0G0bSzVIVdkF7aHcMSov6OFUJQXqQ71UHsioWtjHHoPem1mqfqrKGmgJLbZz9x+VtRmWITAKz4T570DL8/VeKDkMg3HQdB8ddtRSRcbDo9BzOz9qYLE2V87zfw2ew3fMl6xTq4JpEPQjdMoAFBkFz2DtvYoHT4ZqAqYXYTj2535gHR7DYAzeid8wQ+0K9rvgS+SBHaxU/7/BtTbEkH+DOIrGMapOJsEAQj6fiCI/wW1Yn/uWreqmCbjdBXMIm/IKS9WyDGLL455Ei8w2xZa1faRTN5hHyCejWaoWjcS9J0wlcPL73d7CqxWsoV561wI/8ngFEgh67xNURQdgux2W4PnMXD5TT03A1A8+IHTqO7Xew3ovzCZ64xAUGQ6jCfn0HVRFVdEELA/ADMrMe8V5Qax5vAgv4T/269m1KBVHqV3cm1ZPVVkHZUOo8QkJp8toAm494Gv8JrzLfLUpeHSB2ZSZM/LjBNw7wxLsjyxgWFZgoT3TI/ApZZc+n3+5Nh6EvSP8hO3BZTx6MkQrYOsNH+M3djpLcX8AphP00VuomtM8CWkAv1Fpx6OHyhF6NT7OKLC3gsi5z6IqWyCiNmwm8M1pf4P7zZAC0bi4OC2c9CoLoQoesX9QlswLZhmnoehLpljN/xkOVnN9VWYTuLQhJIMqPMEqqI5P3E6iyC257kX44wqEQ6RNaGuJeKeOrFPnLNWXdHe1787XeSqM4JlYe9Fk1Ks6lnSwchusLcUWL9btDNkGVQl+bD6/1FxZov3JeM+D7tR47h19leOscznugRUQfZhOtkMnK9mDZsDDNJ74is4N3w/udIMVfq6tQX/RPM7A4AagZEAA7oGZRJF3+ToOvoc2BPVYy4xSO0D4vwTWt2RLKj8dblhQp/E+Xq6xWoDyjTkQTXIuO3Mv6StmUGh0hI/aLDQDUbAWzFWdH/tvAXe6ws9WfvfEgQfkMRfaEtTjF74I38UydY6BFzhNj9soztfzCOiyhnmVfwPV++C7aJa7M+VMdLE2c6t5hMBhTsypRru+naTubq9xqu/ooXvf1ERsq6A95Z+foh94HSZRXU/A9PDs+RX4kZjNUI+yD8/VbmSjmv0UTENd/9NyEgMDg6vkPovnNOhCk47TFNWGDVld3/G6H6+fqZo5gvA1VKrK3d2/1OY4m2nejnBy6nLCd2lxZV8tmbxrLTHx3HnnF9ocJ6maMxSmceyn+jNDuOJn1gpKxONz9T5Ok+hwxcAu8o6Erfc/93n41kSsu6Eawa3WK3/+S+zDYeQEknaa75+5R0qNiauteuCwbnhAEz1+zxxB+M9EV+eeB9/TduSirjNDYAqHF7XqXR1PASgz6DvXqz7HAEh0umrABk78WtNc0lqLsk/N1ne9jpCkuYNgJpm/VcWmHpHQi/TeQxTyw05xtAZs4nRKRFpZcq/Gx1d/JOY3YiPo0mauglbRnANtYOGfbRuD60fhzZLPVqiGd+x2Yi78I73/CJW2UttCm6mpA8XcLZjfZ5vE/IuIaU0HeAOfyklxG3/QXRCHf8NNClrwKcLl616sn26anwBD2mRP/zH89/4fYq6xWSp+12H9ZDfr+TqzDlNhE+1NDPfdUnSqE3yOEgClu+cnQWVKt1txJfsbXiV8I40DeLDUhgItLpIhFO+YFBpw4vRuopOgDCvDJolIqoikhsCCTEJz/+JrYWBwHRECIIMzhwJZj/vl69jkaNCfXQAAIABJREFUBARgCTx23kGnN2SSm+afC4LZPQ8rBWv/AlHBpTjk8uunzD6ncOEAyAK/JqxOtIv8KiJrysGnDmyeRXazIBCL/7kHGqq5qokn3M//IztY7LeJLBWRdJGwNGmQ0gkAt+CjFNYLaMwpXzLyOZLnXaxNV4T2rsWnPXXl6FJHJz9m/iU+RdxunStN9sVxCnM2+JNU5aWifOAHSw6SZ2cbgWfAG0/3E0UuhUEWuP6eazkNDP7h/DqVBuugNrN954tIpqzmwC/k1WLhgh5HwPc4wRYauRX2VysrVY/rOhy54HO5soZ5uGcSaqal5/EiG8GQBVnugNufcsrNPbvon6aCecUF+THwFNYM8MfPfuTswXiUghx20YBecYEJRPvNS8h6Eu6KPfaZOfDQ0G8xV9grga8NkvVYc8HHQbIfk3y+LchbptSm8CaODBsmbAqKPej4OUdMVIQ0stMDScUtXaRSlEhyQW7tsFcaUNoFLrxCjp71G07CSTdyv3MzQYsw5FsR868i/DwV2oJLaizjqnw8mE3gCQLNtHDLKvLPFzL+VHsbXFcKblA9wR6Ixa/RpgtmwhFiT4BBBN655Ishj5edwC1jjjZeMsqp+XU1gcYd4Vd8G23YNgf3FEzliSm9DWDLCJoUV/dyM+0Q1VMLVMf+AdXHuza+StKHY2tD2fN1KriDtwOPgkEI5PMj1HG6106NmoZjL5HhNPTafiX7weB/ilAHlTkFQF+LdQm0xit+mxOcTrBn8UAyS/KrqWqUqka5VCNVZ1T5S6+EgcF1RWgHP3nnfh3Nf9IuWlsg8qTIoxIzpas3HMOZfv6bBctJ8Mc9/Jjtv3hqdiF5TITBK+2P13A8mHmbqtbfAw+ayC38Y5urvnAM59Gzdg+KeIh0r7Dz/IV/43Kz8+FOoAroLdja/giAM9OvqErGOryyCDETcfhEiTbXqWOq6qcHVVtvxRHVx7FkLxs/GyOxmOyQTnzy00X5oEC2ltZgfvaAM5zO8SmwpqRAEJiMxYkGBtedHD6Anqcq/PqCS9VPC+UPqEfapy0rtcQWQFo+i04HFNR30EMkQiK2BdjgxOXKBvti9SfNee44HAI/8M/GSa6A4ix6q6CcAY9rEko3XEFwhDPJkZYLdtG0WVIhBlupA5CoXVWTtqs+nq45Fd5wJd8TlfFSf57Nau4GWVbiMnj2zG1FOcupGqE6tYYu5ljxhgsIgj25UB+oAo769+4jTUA4c+Jsbs0Eb/DNZkzH0C/wePtQzcUfUjDeangXLAJwolfl4+ZkDniT4WJ5XmFudZNjEHJN2tbgmlJwc+ZlkkpAaSoHbQf4RMS9h0jzOr/z1SzzfcF07T48AMKQmpkMabHJjMjLI+iwgNBGlAtJyvqcoP3E+VDDehiUg1C6uLoXmnfymsj94vvuMAEzmq+RcAwsuUwl8JxO8IQ9Mcyz8tzW2gBrxVJuDPQlrueklV8Rtp2aDnp4/nEl+xZID2STnfEHK5IopoTJPDAfaUJQgy1mwAtSy7DczrikygCrRMqWlfAPpU9O+et3WQwM/nrKJ7DhPlJmsaDLRxKReLu0ecrzFZHQO4X/TCT+OSJaHOwIC0j/si490iqDi9kjqLuQWhG0DF9Rkm4FF5yysQ/bpaU2yQJ/7JX+4APfrEMingPgfhdOD1KxgZW2sJD0qfXpuLsazcXyDjyNveI7G8F8Tq8bi1SPqeoh1cOHddmugp+rTZ/bgHvTK0IuX+fQOpkmp+j9XnKxNvfd5/GgyBgpM/tJAVNl5VQdSAKXifrkNoEf2DWypwwmABy8K9JSpN8Y6YUpFtaROrmTzMR+RExeY+EeKOZNjIGBwV+GntrHXKo0pEvVH87vgGEDSOrEnOOcGlS1Dsnbmf1FL5mMdbm4xWyChZQvVd8vgYOXK/ui1uMR9Ujextdf3yNgJkLsY+BuQpqtqHCUYwGQwbFd0S7gpNiCl0FLTH9ue2kzuMg77PNbWZwBcJzM7PMGyap3wJdeGa82ofzYPtL9gH2ZiNdDI+j3CVUb0qDd1P0iVURafSf3Hy8LNv7Pk72BnDmBA/FPIK0+2zczeUofWY8VEfNAkcck7JP+iQGX88/FbiiFe3AGUeShmp+merQgty48MuUgLgFh/8TbJREfmotlInQmoPbmb77DkUmEhdr19ihOfX8EjZZAXZynPDeLVL8aHxcMIa0q29OYsaCzgOknofwCaPM/3SAGfw2xsbGOOxpHOfzhFJADZIP9OKbon/F8bABD1FNVyYLAZjAdCdgMpb6lcvkenWA+3L+KQVS4FZZD3RRuz6xVYt1vL1wQuQ0iq8E8cEsGtiJxq6i8qPXxSPzO16maxxjoGAqbENkFkesIf78Ximkm9MLjhR9Zp9Yr+jonJPQJeNoGvyNhvxHJcxUplcS9p+sV+JTNSOgaBFsR9kDZjYS/1wdV099gIYshhvyvct4iREXBrQcMCIXNZshB/I7g1mwGVVfXVFU0AdMAeMwbtgG7oeJ6oud0zldlD7TD3O9XVqm3qqKd8auJ3066nGh0wougprAKIn+n9rF2F9ddAdXKw3pMnrug6o/Uo3V7WAi9VvOjBmoCpv7Q3w/2gOkIllZLaHkw7mK9F8aWw1CYQHC7D2+Bae6wA6psp9qKtq4r2YyhSSX4EUz7BUnF1GgJDXbXKGwjj9thlBX2CKQg1X6h8qLWLlWSIKIW/AD2g1B5rZsHw+GujazWgL/BtTbEkH+DOGJjYx0tK3k58Xx+AVvV7cJyB2/CYDxf+L69F7HV4TsTHIaw/QSPfaZo3LASyl+ubA2Uqw5zwJQE1iTc+3xAfw1UzedTaBUIWzD7rIAGnzaAsQS8/RmFC6s7w2KqHb2vyI8J8BT+Y79GMb0BfWzIMbz7ze4ObxIy9W2KFlaroprDy9A6Epa5wQnwysRaZyGxC5q6VNFmWPrAM16wB0iBgCT8Xkwoin8LRNSEmYKkCKZUrG3n0uZwhUv90vMWVi95obiF1W1gJaHeI8JhsR32Ymm3lE6ZFTQBy4PwsgnrAcRzPZ5Pv/YQ9LTg+zsxzz7eC4b91z6qi6nQtCxsQTz2YWr9XT0YR8D4GX+D+82QAtG4uDiV2NhYR1xcHLNmzfqX/NKjoipnnxXuFWkSTdf3WDGrmTbhaMnnGhjc9Dji4uL4d/V5AwODfzA3fU7bJtK4Ct3f5KvprfSOK39udK055iGl62eXXrCn1+5e+onH+utt3+CmROPj46/FLx7eTOQxUkzDTH7j35eZuB0R8RoKAwm9YyFNSL/R3hkYGBgYGBj8u4hPYM19zNjG0KW9rv/WbiJvZfPQnoBnf+YTj43X3bzBTc2/bBLhxj3wRY0Tg8LpbkkJxXPrVx6PHuHRnon/zdZqBgYGBgYGBgbXhER1vgbPRibfcbu53e/1r59hZY7QPJHOLXm01wsKxs5yBv8VlhvtwPWmvOr+DdDhRvthYGBgYGBgYAAQrro/FZpeX6tCZ9WlCkuvr12DfwoWERHAfOeddxpP4g0M/uH4+fnlWa1WC2Ay+ryBgcHNTnR09Am73e6FkdMMDK4bLVq0cAIWC2Dev38/p0+fvtE+GRgY/MXUr1/fzel0YvR5AwODfwK+vr4+OTk5Rk4zMLiO1K9f3wJgUVVnuXLlLNOnT7/RPhkYGFwH4uPj88uVK2c2+ryBgcE/AI2Pj3cZOc3A4Pry8ccfF6yJyM/PdwI35dZoBgYG/xUOVTX6vIGBwT8FI6cZGFx/FC74OXUx9Rf5VMScJyI5IpItEpYm3kPGyBQ8SRS3O0V+kNiUh6/aZKK4dReZJ7F7H/rf/S/CxSiRhlLteNWr1bBeJLq8mBZIzZ/b3pwfVLr4WqSLSL+l8hPeN9obg5sIEc8eIq9YpdxxaZ/Z8uzxRDE9KfJgqMhuEXOWmCpvk3Iz7xL+3K+xFsfPIqVbiHwt0n2fLCb0XImLL0QeMokU5Z+CHBQw5iu5iXaRSxNpKnLvJlmF/432BXIZLjJOSk2bcOl1K6nsWug3MLj+nBQJairymZvIIRH/P8T72bEyF48La4lcNNbJEbFlS/n1Q/73v//5TBapFy+ySfxf+/5myl3ncDJO5BkJfPPLG92vj4hEh0v9ZJlG1NWU/6/6Da7MuRv8BLa9UJmqfzyiqu6qTvtnHG4df2pcZ0Zu7nVyHj57CIikWuCWq7a2AK89BEZRN2zznz5HteS9V7ub7YsgkWiL79W4lC4S3gempNRa9b5rQ4Mf/tIec6VYrhoTd3Tj+7a8a2JAqrHzlMGfY7DY28KM6WVwL8+xjPOL1o6g+URq/udIg8UPkeDyf0t3JZD65miez61wteaOilT8P3y/WmlnL+TlXljqIh38NOid6ajaC3KQ2jXjqS4K13/r9JsQEbkJBywGBteKXJ6Dl1b6jsQxRKN3klm95alXqzNwWf8LEkgi5hPgReXfHy/MM+6quXbdW2vs//b338WXYrmjLw3HCaxH9eZ8JnnDcCFyM066/t2cvWAZbxC0h/AQKnvsKjhi5r4EdsfBXnKOBR9dT7lNNIJHfFKIF7f7RJ6xi2wxiWwXqb5WblnTXAHixe1+ked8RFJFrOnidud30js7AuDgGqJ+o7HykEcKMWLrIzJe3B6dJ08QfL5T+0RuFVv7tbVF3hFT1+WmhdEhA0T6+YnsMInsF1ONTXLL2hZHuotX25n8sAjPJnxTZbI0ymxBc7E8LPJogMgmEdkt5oYrpP7OWpeNPlEsz8Arm0M/+4V1Db+SRDFd1k5/8WomslGaZbQvOvWgSOVQKZck3bPqlmTzkliWEUQxdhRAxN5FZJSbmPaI+G6RyNr/uVVkudTL6FZibDPyspvAUg78YEwiDP4cp3Eu4P3hO+4mIYDsnHMFynpIw6NzP1a3XKmJ6urfmUW1+C2HjXnhV2suHzLT49fd+Xs208F10cRAOQ6+mHwyS9aiTBWpHymyWkySLOKRIh79JstEfAAQ8egiMsomsldEksTa9jvpeDSmsMyzs8gb7iIHRHwOieeA92QUvgDpIt4dRMZbRJLMIklibrhU6m6pDXk8J/K6hNzxflWRyR4iK0UidkrlJd0UOCIS1kBkjohXikjM8qpmCt/mZJXs5wXk8ozIRAlu82llkS/cRX4SqbhZqizrqCXGlMuzIm9IaLMPaousIHDCB5d9cuicGlRX5Et3kf0i8bukyvJOgvsF9YqPv+R2O5+TIkGNRZZJ1BfP3pxPYA1uavIOsZzgptwx6E0dw+lK6kofBpP5fV4n88/Yz6tpOgle2G0nrq0DwjrYxtCn2w6EDVeoK8NFevmJbBORPSKhuyV04mAB81aRiDoiM0UsKSL2JPF84m1JPJc3NohE1hCZYxE5JFImVUInDhQw/ypS/haROSKWPSKWJLH1nCoPnA4jUdzbiyyR0sHPh4nM9hZZJ9JkrbQv+npDmSVSr5zIOjF57RJzq2+mQblCP03F+XlBOIPFfpvISgn2eiVQ5DtPkXVibrNUOp+oBFBsTIPF3lZkuYTIyFJi3kVMyoOXtmquMFC6+4lsMontsHgM+OzS/HOIN0VaRoj8LCZTkojfLvEbMUK24VZQns9kkWaRIr+YRA6L+ZbNEr+obc4FOnJ5Q6SXSPsN0jOn/JWvtwEAsbGxjq5duzr2Q1PosI+FGq4FT8ytQ+EuE9V30fVIjdlwPx7PLWE3tpEwHLe+ixmsQap5fAY94f7NrB4bMBqewq33Eu44UkrLYO8Gsyg1cyyKfAf34DXie582BNwBn+H57Ge8pV6qyjlx8gH0g7r7qbO+qaqyHRpA3STuOFBdFRkNT2Mftpzdu22LoRu2p1aQou6q2YyGgZh6rKLjH2VVs3kHHsHU72dWqfeFdpSN0Bha7eKlM5El2lmK190wh4q7+6kqOgNzf5hEyMdvo5iLt7nK++JYSrSTgvtrMAy3/osZpv5aC+uD8BY0PM5/1saXHJuLH+Eu3IasujhOQww5TxxFff7ssaF418eyjXbHW17+HBffw23QZTOfacj/6kMa1IVOO1mkoeeO5zAU3sRW9tcg2AjWNCxNv6fezmoXnJ+AW3eYS8zaJ/JVUfBoBeOontZCNYdR8AzW3qt48GSoJmB6EYZjf+4HVte3vwbDcR/8Pc+obwb4toUfKftDAoq8As/j/uQiEtRPFRkLTyAP/8q693xfgFeh424eyYxWdTINemN9Yi1b8RoGY/BO/IYZalew3wVfIg/sYA6hxft5cZvkMAzGQbtU+mVXUHUyA3rA3dtY+nlQ8TF1sz8Pr0GL3bRPuaV4vU330WFHLVVkPDwKPbez9POgYTCOsC8noJiKj/8135LarUjHB5Xw/j+YTcg7o1iqlr/BfW7Iv0ccsbGxji4tKzrcab2L5VqqqKwg13TezgoNPlt/EPbbYA3ulkVesAd8f8e91/s8okHXxh8n78Pj+L4yH1XT5eqcLEdoHKV2cW9aPVVlHZQNocYnJFC+B3yN34R3ma82BY8uMJsyc0Y6VdEE3O6COYRNeYWlalkGseVxT6Ldox27wTxCPhnNUrVoJO49YSqBk9+v9R4et8MSPJ+Zy2fqqQmY+sEHhE59B1XRQdg7wgoi5z6LqmyBiNqwmcA3p82LI+zyfp4uc0FMBTp+wj50YZGNQTAev7EzmIG9uJg+TsC9MyzB/sgChmUFXtxOhyE6Bg4TOGECM9QtGUIbwDoq/PKkq7C8FPWSuY/GcVh2UXd1t3xVdkB4HdhA3NbeLlWOQng81m3UWXkHinwCd0LH3bSkSSnqJfNlWtSn0B7qbaZDWpW/wT19M4jGxcVp4SSii6NgsGvJAzKBTDPkIrX2Ueu3FqrI0zCesGkTfi5HaHWsO7k1s9V5F7pCKWrspS+NaiLbaJ3epqhsKHgTmeKums2zMIbQuya1hG8IfH0sW9XtUseQQfAuwR9PQlUKjuUDZewuVVRdrIKu2J9Zxu62thEwkuCPJqMqJyoSVBu20fRI+yJ9R6GyH02TWKSlL2PnrT9lJyXS/VkYVzAZUtkBtUw03s5T2dEl2lz+dsSlsZRgZzjBjWED9Q521cKyxdAd7tvJYCpeKbYt0AlTv1//BjeXIX9f+S8nEfl8AfVC8dhMjV86ua6BD5efRCD94SHMXUfQbG3YarA/Bi/DA5v4QQPO1puB+VH4CHv3+QQPbky383JIAu6dYDmV9vYtOpYJ5cOpsYfRVOsEy4jf/1BR2VDwpswMe+F5K6i895GisgyILEe5vTy0o9YL8CpB706hsA//AU3grm18SUR7WEn8Hw8WnfcrdIb7t7GC4GL9vEQKB/uBb06jcNBx2k7pipRO5qGIJsXGNGZjxRfgVfzHz+Syg5VCvQHjpxeVH4OIaMrs5f6tdYsmAGPHYi82/r7BjYpttyL94YMn3QuT8Xt98uVzuiGG/KXiiI2NddzRtLwDOm3jp3MPOg5DdQutd58/sdAB2G6Fl/EZ+ij3pnkugtA2MI+ANz9D1fy/+3PlSYTWwrcJbCDw/gmEvR5HYW45DlGRRO+l36nChwIufoLbsQ5Yw0b1LCivtJdBuVULyvNoDP6z3IgpS0zKufOUjdARem1hNqU6w2IqHyjs3w7egKH4j/sKVdNhiC5NbMo5nTkFY7XAN6d93gH/y/l5iQzC3gFWUTGpf9GxJLgN7t1GW2oUG9NXBN4OS4jZ8cTl/rYchugIIvdx/+m6BcdyeQFeJXDCDFSlaBIRHEh/6L2JpepXVO95eI3At79AVX6B/4OHf2ON+qgqCiboFvAzxJSiTjLV6GEneiOtUur/De7nm0U0Li5OC18557MVqhHy3hRU/VXVbxN4D9P1L7P+uXflJSrshniCG/8WkUL0JtqbGO57dm2EE3yOEoB5IeEb6GDjycCzax5Gq57U1KgcEu1uSVCNw3PuWkLpxlS9Z6HGk3fJq5FEbElQmdLtVigoiWIaKOZuwfw+2yTmX0RMazrAG/hUTorb+IPugjj8G25S0NO7iU6CMqwMmyQiqSKSGgILMgnNxe0iW0/hsRnqEdFhyZXsELUvtzLsJDu1PN+L2yswxBX5n8/zX3dPLtFmRn8uiAUoyc6GVwnfSOMAHixV+CrURTKE4h2TMmMcISXH5mIP+GH1yr5276kM/t2IjBTz3fdQ8YPDNX4Y5NpQZ+6F38rk865IH3PBZzapl4j389Nk/Z/dLUX1LdUP1DkrQZfVPdRANXt0CBPjmOvJpJNxZ6t10/xXYXCT7BmrQ46OG8/M4N/F8+G3ZTj+nMKcDf4kVXmpyAc/WHKQPDubCToFvnh6ZhWpGq16Ug90y+YU5lPgjafv8aIy/8ac8OdwPofET0ER9/M3oHcVLtMwnwFvPN3PfhYRBlngykfUWayfxWENSKcwT3jU4owXx10czfQrNqZf3AIUFItfRtF5l8Ut+GhReUBjTvmSkc8RObsBQ8SJEuI/mhNQbLsVkTax+xe43YV3ZBrxOIr1w8DgL0SsFuxkW3Ce+9TGBe5OvJwIzrMVJ2ruItXnNGv0JJ0SdvpW1cNvwngyVtZl2Xn9c6aYe4u8c9ncJtYUifhu6FUv1lrnynoS7oo99pk58NDQbzFX2CuBrw2aBYEOkv2Y5PNtgR1TalN4E0eGjTPYcsHnOMEWGrkV5hwrK1WPN87DnkmomZaeZ/twMGRBljv5hTnYzf1snzWBghalc68TBJpp4ZZVVOoLGQA955F5OT8vl9cVFI+As2vrPOAMnLTxRwkxmbApKPag48WtR3ES5KSZR3qRb35wHOcZb85+uqm45+KHLeAUNnKL6vlDBs4sPxBJhQBsPmdwFeYnVZfqjIzy4PLkV0+2MSGbSp7EhB358xfRAIq+W9UTJEMcfo02FA1241XzhrrzfQzrbKymShKlIqjjv1XBHbwdeBT9scjnR6jjdK+dOjaFbPDPwbfwQtYWq8hDsTITM9Px3oM9krqfPzyBP0awesJQWX/xrglw6jN89xIZTkOv7QBbRtBkAreMOdp4ySin5tfVBBp3hF/xbbRh2xzcUzCVJ6b0NgAn2LN4IJkl+dVUNUpVo1yqkaozqmgTjp5v58wn+B4gyp/aHnuuZEdRbQp7yEoJuacTrafQLYYXbptsuoLNk4PJOz+WK9kJBv9ThDqozCkA+lqsS6A1XvHbqoK15NgcbIBYvKP2XdtbxODficjrQq/naT2INku76YYmiy9N8mYeU/0oX7V80T15gZx8qYfW+pODykQxdRC5RaqfCik6ZDqJ2Ymb4KnO86v6qWauUB15WF21vyS9VvMzH8TxxeIBy7zIt0M68clPX+jL1tIazWovOEHW8cAiPZNFgsQ+NiLVi3wvOMGprICissxV+GZQykyk6zjFk+8BZzidU/i9spICQWAyl+RnsQMPR+ZZ+8fX4Z1JiJkw/4xiY5oevabQbskLOJ2ZfkX/zFiHVxYhZiJcZyc+B3xKiL8U6cW129l1FZ7/WdnTJ+/WUgce7kGTXbeV6IuBwV+EePpSmXUO3j4RWXDExTqogHvMYSI4ea6i2MtIXD1ZhnvRIQdYwOLCed5kvJvmf6za77K5TR3l9ECH169+4Y/QVTVpu+rj6ZpT4Q1X8j1RGS/1f7geVa3EZfDsmduKbDlVI1Sn1tAGZNjgRABp+Sw6HVDkeQ+RiP6+mP1Jc547DofAD/yz4TIPay/ktDcZLpbnFeYxNzkGhXlYL+snz2Y1vzQihDPncs0x8AG/HMJILzamxRy7UkuZOWHm19OFayBcZIEfFq8szj44Ec7YOE5uhje52AqO5ZMBgVj9MkA1CjIuKBcxxYtvhfH+2PMonUfrV+4bxPy5fPrqeLlw/YzBFSjoA3mZpOAfTuXwwrcLLj4SCR6Qw8AkbjtVay2526ifzwMe+zxhTwzzrDy3tTbAWrGUGwN9ies56U5ICmGlB6P2xtNdzInreQyxv0sw9rSdlP+NdjmM6rKsVxk+b5A32o9HdnW82KFTKURtp6aDHp5/gHIQSiM1MxnSYpMZkZdH0GEBoY0oF5KU9TlB+4nzoYb1MIAXpJZhuZ1xSZUBVomULSvhH0qfSxfJnDqG/SSBJmp5Zl3JDoAHHPDUBR7L8nmKqs++7epTMCkpyeaFscCV7FggPZBNdsYfrEiimBIm88B8pAlBDbaEQUqJsXV3t6+DxoS2Xn7tbg+DfytbhJrDqDeEnrPu0wXhO6+DSVMwDCPl5belZ5Z/qoj7U9kM2G36vwwe8NlxtlaM+NQV0xxpvrG5IvSI43BZOAguaZFIbhP4gV0je8pgAsDBuyItRfqNkU61TPXhR1LG9JDHCUwX8Z4HnxBUqW+5RHIbwUL2Tegmo/AlUUzvQZdUU9s07p6bVKzHZe/NjYV1pE7uJDOxHxGT11i4B0RYJL7F+VmsvmNz6tMjrTLkMiuH1ntpeppeY3YUG9P6AZc8hLks6XMbcG96Rcjl6xxaJ9PkFL3XJBcVDxlMTvHxd9taXLud1e9VKXVKFutfJOslVg19XZ7MLvun/DIwuJZYw2hB5mK+H/ukPJ3u/ZOYw1+DvpTtPMsV5cp5TaSG+I667bcwvEqz40PufX+wTMa6WiRkMDxBcLNVtKKkhwbXjAMiVUVafSf3Hy8LNv7Pk72BnDlBwND0+mzfzOQpfWQ9VkTMA0Uek7BP+guIXwIH65C8ndlf9JLJWJeLW8wmWDi73pOR9Ujextdf3yNgJkLsY+BuQpqt6HaArJJ8CXmEg1XZnsaMBZ0FTD8J5RdAG4CVItUu66fj0g0cBIQDE2+XUfjSXCxvwe0E1NrEw+wqLqbEgCtvIWsnyc43X90pYM4SW8BSuJXABitd5719PdaRTXF8auWZta1cwEZxLz0f2lCm1XwFLQ8b4vjExsClHQSRKdBhO/Xnv1qdQAdlHPQavvsFX15sceZFP+7+euCN3tr2piI2NtZxR+Mohz+cAnIK5Qz4H8Lt1i9puj52OvSJZ0kCAAAgAElEQVTBK3EB69SqmscY6BgKmxDZBZHrCH+/F6omTcA0HB70h70FCyNv+45WR2JU8/kG7scjYWGBDiefQG9Mj61hfuE3aqqo5jMTeuHxwo8F9ZQsCGwG05GAzVDqWyqX79EJ5sP9qxhEhVthOdRN4fbMWqrZjISuQbAVYQ+U3Uj4e324zHeJx9yJKE+lPQzJrXJFO99qkPbBuznswjZkBevU45yu4mxiujiWK9qZExL6BDxtg9+RsN+I5LmKlEri3tP1So7NxU/QEjrs4M3ChfGGGHJ5Obsm4ndo6AfHgRyBfJBcsGVTOemhETASxHFeTsgB2xni0ntfnV0HE2CgCc4I5ILkF+ise4y+p6qrnl0M94UNjoH7Mayt5tMyNe5CPbm8Cp1D4Tcw7QO3FGz3TeHRkwXfQYPH7TDKCnsEUpBqv1B5UevCxXXe7eFNG/wBHoewP/oxw9S/8DyvjjDeDEkmSMLSfCFNk6sWflv7yvnrmv6ARtBtG0s1KAkiasEPYD8Ilde6eTAc7trI2q8CS/TzAilaE3HbtOowzR12QJXtVFvR1lViTJf6drHeoTCB4HYf3nKR3vMXRaMqxcdfUrsV+l2kIwHLYzAJz5Ez2a22v8G9bsi/Q87mtEwIaA4f2eAohBzEN/Glgnsxj1cgAb9Xv0cTTB9D/WhYIZAJ/ofwePhdBp239upqJAFLL5hemE/zwOQEcjA9+Nu5b/ULpRmWPvBMwcJuUiAgCb8XE9iqblsgoibMFCRFMKVibTuXNocrFJ27EspXh+9McBjC9hM89hnWqXUNlKsOc8CUBNYk3Pt8QH8N1AHYOsNiqh29r0CHgwnwFP5jv6Zw/DAVmpaFLYjHPkytv6tXsJZqBgm4FefnBfEMwt4OVhBSenQ4LLbDXiztltIps4KqUmxMl/h2oRyBmEDq7CaQp71grQXzAewDP+SDgo1yzi6s/jIt6m1oUQbWIOyCoJ0Evjbs3NjLwXi4NQLWA0eQuK1U+v7/9p09X6NUlV+gRiCl9tAitZhNRgw5TzQuLk4lNjbWERcXx6xZs/5dv/T4lHjeOpalSxpmvKw/+c+50e4UoKgKUjgH3ivSJJqu77FiVrOLP8e6gOri2WEzX82PXrgwf0/rscbeigYl4IiLi+Nf2ef/tuQyXNzHvRY2zUzaXQO1pPUNBgYGF2PktBvNYLG3f4MF39c89pauD5hxo90xuC5ofHz8v3gv7zGcaQBLSPq27d/j1VUeI8U0zOQ3/n2ZidsREa+hMJDQOxbShPRiT0sU0/DNPD3f/kImU1q/8++9oAYGNzvG3MHAwMDA4ObhXzzmVH0C3g86+loDHjwVf6O9ATfugS9qnBgUTndLSiieW7/yePQIj/ZMLPbJZKKYnh3BgNfMAyrw9Ii+2gBjZyYDAwMDAwMDA4O/HImLi3PGxsaar1zVwMDgZsfX1zdn3bp1bjExMf/iBwgGBgb/FMqVK5exZMkSv3Llyhk5zcDgOtGsWbOcSZMmuVsA8/79+zl9+vQVTzIwMLi5qV+/vrvT6cTo8wYGBv8EfH19A3JycoycZmBwHalfv747gOX/2Tvv8KiKroH/zu5ms5veE0IgCRAICT30XgVBRMAgTaUoIE0EC4ia8OqrwAsoKl1ERZGmiFKkV2kC0kJLQug1gQQCabs73x8pJCEbiijot7/nOc+T3Dv3nDNnyt47986MUsoUHBysW7BgwaP2yYYNG38D4eHh5uDgYK2tzduwYeNfgAoPD7fY+jQbNv5e5syZgw7AbDab4F53lrVhw8Y/mCyllK3N27Bh49+CrU+zYePvR8H/64nVNmzYsGHDhg0bNmzYeBBuP0REi2aQyNci2kwRSRMx3hBdhd/FZ0Jv2Zj9xqJYokUfKbJCKib0I1r0z4r8KhUTXr43N8zMFBmoE8kUEVO2aMx5f2t7x8hW3B80k389FsaJ1Jcq1yoDBWNho0j2iJQtI5pVUmvTk9NFGpQT2aoTSRFN0Gnx+3yIQN5k/40iQREi8+1FLoiUPCclpr8moAELM0XqF3ctAE+KfS+Rr0VePCbbz3gsEekkMnCD/Ibz357xxw0Rx64iH9pJ8DVpm9z8YajcLlKymcgSkS6nZB2+xdl+WmS8s8h5Ef1V0TXaJPWO1AAL80Re0mT3B+k5kiYeE36UPzXwkcEokUlSYv5kQeTufz+8pZ8viviIvP+M+WEp/Iso6Gf+eD0Oy2A/PC6INBbpuf/x/l2xcb/cEPFqLPKNXuSiiPs5cX57ovxCoZ3dRfLd6+T0L/ZpUmbPiD+/yLKZmSJ1wkX2i/vYlX+uv8phuBjbimyWiKtd8v5u0KPXHccirnb507byyKSfyJPyTFqph6fzr6Kgr5dFyvpL3XiZT9AjduzhMVPsuov8JBVODXrUrhTmdgW/jn08VKDy2ZeVUsZDpHv2Nx+PKnvljZG8sOC9u/6IRGdmXoQeaIK/YgHOcXgEUsXz4L25oaWfUlNNSumVSte9DZ/g+ekClLJTSumUeU64aphvO3qlHq8V1btojWshmrI6V6BgLP4J/M3xTBTx7wNzEyK2zrqwu+mRCehmx5eb+6V5A57fqlM9fS6NHUmHGw0Arot4jobv95acsS8z6lDgOs4/Ufpi9AC6XK+TLNqg8ei+tHYtANGieeNX3pkHHXEtf4J6pa53jGRlG6ZpGHKy3d+Y7ceP4WJsAwsXBGAoQ9LVh6Hyikj5p3H9cYuRE5CZYT1lJuNg6C/6no1S256op8jyHW7e+ht7Z30q+79zTAQ35TV1AUoZlVIGpZRRXX29kwLLg3tnjxmiyDK+o0i3UuVVvjQPr1mcgTq4ODyvK3RTISKP1dvggn7a/yWx+Kt53GJq4+8ig9Hw/hbXD8gaocoeJblq89SPqjJs46ACnUY02uvgROjZwTl9i0GpDKM6ETHxzz0pW/hedB37U3+SwB6UejhtZlJmmhme4bpH0Zvi3u38gxBtbzgNw9CaSt9xTpkReYwGFQr56gMJYKrDUU4/atfuicctnvdJXmd79WO84gj0IcL1MEC4UpnTlWXFbBjGmdkvMoXSRItmiMhAN5EjGpHToqm+X6rtbKaAeNE330qv9UzB4cJRyuynAXRwvdxUZLc0udo2185lkXIB4h8nT19tUIQ/EG3Qx0E4rrX3W/L9cJ0SaSH2bXfWFJkqms6bNKvL+ljzBSBepIXo2/1eXuQ/DiLrteKcIKXnvSqILBKpVlZktYgcshOJE32XJdL3ln9x+SNc9C+IjHYROSlilyj6Z5dL77RSdBGnNov4dS2Ojfip0kxpkNwsLxaDxe15kbeMIgc1IodFqu6Uajua3t3HIiqUFd8uDxKnJiL78sf4vEiorwTHyrMT678sMsBDZL+IHBdt/c1S92hEkfHciFex+RcxdhIZpxdNnIjrQQms+U4LkU1S52okTUVnzU4R+dC9BR8e8P1mF7vr/5gCqfF0e5VZPb9RTZWpxwj2hHPuMuczvcHM99B9m3H0Dbb2+0RFh2c2j+JYEy4d5MD1KpeKvRYgnUlj6DtB07VuXViJY6UDJjCxMDOtEWzgzK//vx8ibmJaxaxRR7oR5UFa+sNQaYbkxPDdz55NYwFYirnht5dY2I7nwEFqefAplMoaAcvJPOnFzbKO18AVjUvy3S1mMlrkf+L95JfhIl87i+wWab1dykirciLzXET2iqbzBhl6KwAy0MIY7NI+EAxWOm3JS/Otp7i0E/lEJxKrFYkVbf0NUvtgzQJ2fTrOqiwy00Fki0ipoxK6PrLwncMZkdrtYBo3/tMK6bi2lsjX4tvki5oim/Gc/MUnQeLWRmSqnchJrcgZsXtijbRJrHB3O4pvReoGimwTjcSLOCSIw8CZ8ikuSSIu1nUCIo4dRD42iJwRcbkojkNm9BV54raf3dfI9i88bscLSRRxLjoeD+ZjwShl8JbIp+L9xNehIvMMIr+JlD8glTY+ldP/OHQSGWcvckJEYsWuzXJ56kpI7rVvi3ycP6aF+9DLIn71RJaKOCWIhGyqrCXvrZu1WB0UaSLS7rhMp2R2Sgs/i3QT3ZAdd6+XNv52Mi+yCe/GdHztMzWBmxWUJXEkzOTssvba7RjzpdTcACeM9tcfrgPCbojhjTfbDIO9xSaNFkNbkfXi5/Yfb5GlLiKHxWHo93V18rSbyDInkSPi8t4s2YiB4XqjFn7C5WqHInUVOv+7SJlqIktFdHEiulix7/Gt9Lrpl2ezpPe7fiI/ZPeVjXZK25wvKG77pnt+DJ9tQNOEnwK+kzJ7XjojUs5b6hwxuMgY0VSPp9ep6p+LtC4pskdETon4nhDfySMEtMkiwX5S64j4yjAHkRUuIofFMOAHmZbz1i9IDF1ExulF4jQi8aIJ3ytha9oqTFjTmfOGp0mgyC6NyCXRVjsg4Wvb7JkpdoV9PQ3BoNtJ6MXSn4k0LyWyXTSaWBG3Y+I2ZozEoAco1k+rPhbkikiIt9SMFU95Ry+y1lEkRhyGfJXdv1n4QqRBsMhWEW28iO9h8ftsqID2skjZAvF8/ma1QnVJokRedBOJE43zQRne8NPT4HT7vJVYbRRDd5GfJHBNVN6P7/Pi+ITIdql2qkexdfJBqVixYlbnzp2zTkNj6BjLWuWrlCJXbgTjWwnHE7RObnkY6kHtWDqeqaoUMh7exDhyEwlzDDNgKK7jfkJFan+AF3AYvZ7dOPSG+ZTdN8KiFCoKzXCYjOfUL1FKm99OnjTBrTYcoXFS29vHTXwBA6H2aWrtaayUwqovx5W9UiZmwGCIuEDtrc0sysIW6AgvHmQVPs/BUspsG2ZSChWBXWd4l5A/2lnPH4bx8Dr63uvpeLmECsAYCYspsWgiClkHkdi/vpkEZcixPRT30UtHwDvo+69juPJSKpNvoAe8cIAtyr1YH7co98JxserbBpy6wVLKHx+olEItRDsIpuP76dSRMBxN1608da60UmlMhX5oBm5n61bnwvEs1kYChrEwEv2gdYxU7ioCu77wOdS/xjs7w8fDsKLtKOfC+dgHDaHlMd6/FXhn+VtYCS2h7SEmqpIqCv0zsJqwI/0tuWmi0PWEH6lwdkCx1yoz38KT0Ho7A6jwFKyn6sWeuWnXwHPoR2wtsg7+uyUrt83nHXsD57roYnjyWvOHZecC1Ib2Rwv3J9YF+QDexWXsYg6hfwM+w770716wD+wuoGu8kjpHq9x5XQbvwUdouhxiyM0A1Q+7bvALuhf2MlT5qiHYPwurCDkwFIWMhEn4fT/5rn/7z/g0Ct7D8OpaopSbUshEGIq8/Ds7lEueXZ46Tr/kskqZmA+9sRu6k33KsaCPWUyG13GfuASF5l0YC82O0zahmlImpsGr6AdtZ6xyVRHY9YGv8Zr6LUppirWzDPcu8AshO4ealUKBQ0uYRI245sXrTGcsjMIwfCVvKder4NoG1lD6p6gJeX5mp8sXF82H8G6R8dg9w/W+fax6oVnBGOXY4smTDEwrp5SJhdAVusWw4TuvcfAWdr230veGr4pC8x8YhXH0r2xQBqUyKBjTO+vWSJiAc/RPLFRGBcbn4Huk1xG2HfKwFqs33sC5FWwj/PBLOb9fuhdhAYGbRj0G7dgmtyWrYsWKWZ2al88y0OoYm1SJgv1Qh8NsVt556V/D2Bp2YNCtdYI4cD2L4cVZ9FNeD8cfE7NgMK4frshuR0WkGYL9M7Ae5/cXsEEZUr3xqwEJuI77ikNKn2ikZHn8Yul5s456DeOTsJkaSV3y/q7fvdcdx2okdVFR6CNhGT5fjWeD0qlADD3gWzxnzoqYgcMzsB7Ht37hG+WootAMhC/w/XYqSkkB/zrgVgO3o3S63kApxVUoHQrn8PtsHDOUXUoonrUghqq7elqUhfVQx43QM/RKrXHVQOkwOE/AwvdQSqMicG0Cu6l2pbtSigRoBl33MVl5K2XiW2iGDP7E2IMAazqvgH84djHU2tIRhXwFz8JTx5mmShb29RKULUGdeLrRMAzdMWpvizQrxRHwrwV7CTvU26IUxflpzcfs/uZ2nC5B2RC4hP/8/6KURnni/ARsodyOYZehRBU4QsVf+qCU/AFBYXCAxpfbFo5n4fpxCcoG4HOClkdbKGVmMTTzgyTKnxyklMJq/F+6ErEUuiEv7c3+nVLEQj1oH8NC5feQ250KCwtTOW8iFKuhEg4Vz1GagqN/NyF3UKeiMm+H81UsPwbsB4uqD/GgFNrechAq41L1ICyy7IQauFQ+SARpoXCI67+HaUBOj6HiLKo/wbN9Jigo8vPgy5sIjKGukc4ex24f1UkMVMb7lRXsqrGlWF/yp/cb9gM7G2wUBGfIQuOQgZ5MT7jIhcltdKWm1pLdyrRYqffV8WrLreksNxyv+UhvmvxvrPrR+wJnVFoQ9EZfc7QiU22FqriEHSWIDNBlx8Lxh4ursX+eRuM+UhNJBDtaw84SHHRiZ4Z3sT4Kpjse9qzlNyjQFAzx3NhfVkCOdqHaNBo2ptnQr9dCXxp++qH6xf80GIiEzW6WQ16Y97sVjmexNmbivAy6UH30VPUR19htyeoOm6HsJW7VyVoILxdpJ73waKPI19AV7x4beMd4uvC590TTsRP+E4kY85plOOdSv8H9OKUDaVxqV75hRf0FKIGnw4Xirt0o2mr9Kf8+T88deGM1105QqiR1nA7npMcPbmFKsy+qDtr4m4kWzRih1zs060i7V0apcLJuwX5MtVYkNtnZZhtZZV4xbd7LzrFzZRUeRerwaLmLTx3OMSM9KwBO4NlqB5O5zKdkBkACaWetz80oCt1q+13QiqBXF6pokkGp3rA0WK315ItbIXnpvNrtZIbrCdDSCOLIuuTEtQKjnncgoHDvsJ/lQQdASyhMITOopXqLFHabs1rAFm6dL0FMvrloRdkxoPeAK5yd2EbrM6KhRCrTGqWGqz1l1xerM9pg+A1aU3bYD2osKe5KpVSGTnh/8T9rS9tMnIT9dmvxmN643H37uM9vQ5GGPNvuYIrhBGhpZ2RLeTYbmDs6bCu0pcy7c9UXTpeIVpahsMA/bUU5dmWUujOmhRiO4QDUofTLv6hI0lAq7XWYj7JYMIcra7H634uRGW1hCQnzumhisb82Bv/1VKxCx7o/F195bDwKlMlEOgYTutv3FhrI0HFLh8rXlkxYTLAO/WuLU3teqLqWlIgn0r8uweLPJ90xn+6v9BcUgS+tUk1Jd+xJii9cILjPahVOpudAkkty8SqnMrzuR2fyGPx3EhLOs8/OU00xcVKlvwHzSfqt7h4vXBUoSg3+RT3PTaKzLCFwjMzLftzlc3UFykRAJk37/Kj6keVyxJwUBHUoX+t7QWg2gkNVOHqV+MwSKh2VTtk0nm77swILT3EzAM6QeslXAQ5wzZEtbozt003KryzZXakNyvLZsFvfms9a05kANWPolclnDdcplHoRfgRjXS5ywZrPbquIOMzz6Yyrt0YDhKqM821gNZc2tdKAFOennRUfVVPueGOfRpk02rRfosBCYuaNBrCJazvr74U6B+iTxdSnflSgqqm0kx1gDcdWt0twQ/LHs3C046HKWemQwgcVfgcNnaPYXhsO56awGv9jWr/mvqyrpr4w8uaVBpDOXHgK705biOTS/dSleyXnIcLMIaiCc8XDhJCZP8Hpy1Q4RE0dT3x7cphoI705+4NGtLtENDvawce4hMZGzUbioQLetQ6qoeiPQzjeDf9QKNUMDpByrCyrxWEsDL3h/84SptsfKdodxWEIuSlVrlGHK3mHo7GPhVBKPrlZgSJaNNZ8IYRMorGPgwr4tf4t+1teE2uhEq4VEmiqrkfBiCfSFqzxPztoNtrqB6T88nbRxehctITAvbSz51XPvB+o8UrdUCeD0onW645BGO719ytQDMcQDxW4fjTtIG2EUa5580JM4HIFD6hgf7NYHxtQcMec4vIbdCojFI6SdrIMK0X/IYywBL7zXcJ8JBYC2OI3XUROishJH1iVjG8GVwdRIJ53sbH3I/z30dCDviVyXtFaiAdfnEMSFk7Cx6odfcG6xOs4HIA6lGq3Pv831ntESjQX5r6vaz8wrcn659TummsESE/A/TQhim6OF3PTJo6h9B7qePGM+yFr1yaIlO6HTL1Zd+E7lqXef6SeIOgwESZ6Op7J9T8O3LBzSiu2dfy/x8w0kT7a7E9ITt4hzu/Olz1/cknFELHvO4YPoqVjb9r/2FnNc4kFpT5X6gtlWhylNta+WE+ptPE+fBrGL45MvxFWWIUChdYhryy1YEZjyPk/XWnBApb7++ZUc0l3E1xwdM2bi+XekOvuXDJzLtM1z64Y8rdVy71M2VCg0LldJacN3ISQcrwxS0S7W0S7YyC8heb2p6ZW7WiV+SMY3iht4TafK5M+YZH3WXF8eYqMwr1YnaloU8EVR8eUXIXjlbqhdi+5Zc3nUtfRpoJzkfG4KG4P4mORhuw8EnPj4hDBLSeuWUhMcksDd2IrvZ9b99xg/XkyjezK8CgqpgXQoLkFzjga8j5f8YMUsJiLj/9CesBSv1sLQphwPnwtND/j+Fw8L+ljrcXJxqND7HQYSdNhuv0gYAGDCSdTgYG5T1XGWqVGq5Tx09Vcv5stlLr0GXzC1S212ZivXi4SbW+RqUX2fWKXIKWWv/EnJmjl1Fl9Wr7/s7CX7HlkTigBM+r+vpXPAJdkfLU0d8xrp96QAikGzDl9td6QZ1OT7cY92TDhZqKyNrvPaKrVGaC3yyLZLBrtLu0kNuzAq3SuvxaMFgJ1eXYELCiTBsBHpe97nXO9Ai/MaeAc236Pxq76Hgn5+amZ/bV2RevMkJPggb3LLSw5N9xKWZRaeFVFW+twLUgWHth7pGJPRm5u3eEqphQ3KN7PAMX+onwsypgZdzN1HK7lanCG65huOMeDJ8wvRzPZl11njCfHQzeyLrslF45nARRnwQ19vvxewOxAvgH+YuLvdJErLWE1MYu79u9vdN0ALajRcfFfNa8t+0dFXScOKuLWYH8BQ6XEGAWv4fns+nkjBpeeTLUJVxquH2dS5toqioZPwe+4Ntj7xhRc4ynnRxOnIzdW4hJLiVLUyr7JKwOxmswYV+0QGk2jTW0GdppiPTMmtkBV3CrGU4fU3KOp3+B6gkB/6mePJB8cQyNrvihQqdNwTSCwBPUdsh9WFtlpj0ElnKvvN4PFR6nUVUpNPAdVP7Hs+4jY2RPnzKCzNZ3eYAD3dFxzKmNNsRN5qaIsQkscDgloyhBSMgbg5lzc4innp9GRAM5ZOOQ+ZZpZA7VMhponqUTS3XzMH5Xi86tUY4gjJcGne3tazSUyhPdaz9SBIYVe8aw3V1FKBSmlgixKBSq1sNKN4WTmj+fdbHiDeyq+WYTmlEl/nd16aIVTeExlsLNmRzXK9yAI3PoK1zMEuVPTIS77iGKeSL12aH/dUOLjXez4ua3aWOFobnqVfeeXLxYZfA1PJzt3OETzPaeLvjaL7+D5WHTl2FFtukbkZDAsh9VBNO65RLbjAVnshYo4B50qrnHY0PKKUl+alSqTW7YF5Mb7XVVE4VGU+6Cm2L0cx4QvjSPK8d6PT6uf3RIAiBZNO5FqUjXVJzep5gZaE3rBUd3xlu4vwVLC5AgppKbkvflI3orrVUpoCbS7Vtyl94bKfXjXfwmT47y/PM8Mcz2lTHUnwSQs6p46fDelkjcr9cElZan5PYkRTW99EcbiAa9/AZ9a1emE2Qmuk3LNM1fPTBEv8RhR2trqUWdccq4pMh6WYuNRpI/z1g0p8tc/KzlP/7XdOCfjo8XP+6oREgmPf7NgHTxUUi122Xn7Yisxs2BxgFvcTM95M6pIAC/QaEkR++Li7x3FiVbE7mHdlI6LoAPB3X9Q4YUGR2w8FoijK6HszmLK9cDsIxZ2QzkMIZcoxY3bCcUYIGF1ZCOG3ENZoAOdBVO+e5NIZZ6j1MAi+z6VFazOtPvf4zaD3x6uu3PBxNqbee3oIriBexo8hHqry47P75toNZemw653PNxfWcy1zb1pUZPEc/fqZbRSG08q9dx1CHjPtO9z4mZ9PG4BPYvWaU8QXCXjqjMZZH89IKIJF9dy0sXaW18NJjuSClyDmavgiZ2VwYZ8WFCqKB+1y/ErnFZLspbfb7nlXpkM7uhcU8pDIvJ8DFtV5dx6Y1LKXyW91qNacs59ja4oPwR/uE7mDQc0OQ9+juiuQ15/XXz8leoFi0haXveXn2i3hb6Kd1133mnn4ZDdBjKTOYlHSUK9DgN8JWLoKtK01ll+XKx93pvOXUZ5gB9SI5kRzfZrEfnvGNqtwrcBwT6xyYkEHycig7b68zfjKBNDXTO9HE4BePbgXG1+FU0sUYS8/aV5NNYrWvaofiWcaxS4kU5NIOgwNbLo6ngOFOehpDVfAFIvE3SEiCwiHc8CEIP9CQjBPzhmvMgL4jptpIAWZVaBkAS6zOCL1vOnhzM+bHFg3Ilwuog2eg+vIMZpeGNM+Q6v04S5UN3uEkBuLCy12RzCMjtGH6oJsFN0wROgP2E9pluCSLfuY5WYgh3T3fPrAGcc1SqHjWZep/LbUyx9uOIEJwPYZGRSbCjAVpHSpcV/tvRJL1Mwnne3oYNET/Yb+eR8eaJFEzWTXiuQRnjVO+gHCdbsFC7e1CSMN/DUEJE9ArpXNFUGUXLmpXo7X7OcH/Zp4RtS71acq8W6ZAasbCvRovlYDC3fp3Qf6vcfv6dmzYpFX2vHu0r9V6lMn+yGmxY0DObiN3s26ttGqh5X6WIw7oaG+LbadJf2YeMhkijiL/Jsl+wfbxPT99DrC92rFfh+Qt/sT2Ty0HjDSBL+O0V6pLifFDG8nsaQ45qnr9LLxcpbzIeM6YmMurCaU5MjZRyuRItmBnQ6qWlzgZ6OcferTgtmslKcCnyiBHAd7U1wxb1GvKUfWVtFV/or6IQ5zUD6XZbW3iqutUWzVJrua6oQuoZxqTV1kvQAACAASURBVDScR87pUsHFqs7otPS6sIaECV1lMJ6JIs7L4CscG/UTsJCV4sSegp91jBhOegNr8ej2i/WReWs+WnszlLS0Ll0vhEIGi9NpdYLGN+k19nAj+JVjH/SQ4dmDANNEmosMnCDbi/90DIBJpFeE3Zyc2V4WYbwsGqeJ0B1EuHWX+EdbTN1hAacm9lpEmzAGhay+qz0bjwY7P5qRvI6VE1+VNxOdfxOt/1joT+kOiy1BlvSxItXFdVzrP/xwKsmR2fScNVxmYrdNxGc4DMW7yVZa8hAGCB4dblGcr0N8DEuWdBfQUkqME6AbPk02R56hiFFvKzhh0XFDQ1JWEcugK66BKxJ8k24Vz9NFtKO+pNsh7HzIMDncmT4/ZmaI9BTjqJkSjQPKYmoBxzRkmvWZuFnTWQb2hvGVPcM2tBNE5kK7w9RdQR28rPl6ox17w/jajrd2trQA+8RQcgU8QUDLFcWPymcwrUgfTWa0d74ZMhJvZNmiZwW018Xecz00x7PelqoO7KqkZhoZuv5JM5Ao4txEZLxUi2tWfIyECnDITy3z4O2DdcDENx/T7HcIvdf4h/djb2uWX754hf9Squsqc4N8D9EPm4oVK2Z1bBiU5Q6pQDqQBsZraMpux/GVIYzIniSYAp5NYAHicQBK/Exoma7tYQX03FoPRuIU/SsqSrcA+uAUvYrdOZNFotD1gJ/QDdjDEuVW7ESNHrg0hIPUu/bM7eNmFsGLOLy3JlendV9e2MrP57wWQy8c3ludm/4aBAVQOY6o9NAYCKwCy0AfDxxCwrYSurbV2eJ0/jDAZxT0dYcT2ZM8Wy+n5eUQpRTKHdcWsAlqJ/DM+YhvoW92LLCbAE/5wn5EjkHgbvxnvZg90cpMcT4Wjkvx+VVeqg/OTeEY9iM2s1s5ZF+XxgfQ2QsOIcRB6X34z+iDQlM4nne1sdTHdyi8aQ9nEb8/CGR0eUpkT/qyaufOCWVJBkqVoUIcIzIqqYVoX4ZvQWPKqXc5UjaZltdaZF9j4VtoEAQHQJ+MNmIbFVe3WHhP1+ZIFPrO8CuhJ1/K1fkbNId2R/hM+T/kiUb/BMmbWH0W6rvBNSBdwAySAfZphF586cF0ZzEZhmnglkAGiDm7XGon0T+16lloAZ1OsFb5qij0nWAtaDILlmH9JIZmVMqZBDfPHpLAkIRdyxU0Pxl2p80M3oUP8f12CkpJ3gTdEosm5v4/AqYSsOzD+5pY7ff95J88cX4KPtFCrAZi0TVdTeP4ygXses+ZTs6kxHPQACJj2HDnBM09EBEAp6H14VJavrl9XSbj4Dk3OIEYD6DtMM/Xl+ZBcAyPD6dzCL1VO5tXeH8EHXzhD9CcAn0C9s/PZcAqn2J17lZ2V8C5LXxmD+fA4SLGAXMYqdxv+9k+hh82BNyOixIFTkXHo5hYWPXxhk/BGOWUm2fr+VVhvgGOQKXDVNncxqIUChyegXF2ECeQgFTZRejaVhYrZVFYYqFUBPwKxvMQulPvwCh4bh8713jeLVbXS+BVF47jNWNOUf2aTR655PVpyeDRFL60hyvgcx7X6PezF1vJ5EOIwu2jlagozRyoWxY2CySD+0UcXp7Ga8rjT/mRO/E+uz/NzPt90vT9gw2F7n2GYP80rKVaUjelFOo1jG1gE3USO+focmgO22h49an7mlitFDsguCosBU0s2MVi6PMFg5SnGoJ9B1hHlSvPZ/uRf8GHQvU6Cl0fmArOSfjPf+eQgdJBVIplXHoFpRTJ4NEMloDzSfDeRvBbfV6BsVA1jnCey582ZzGUH3IX2Mkpo9laOAkkQNl9BC3qshM8repsnFDvE2hRCvYAl5GwQ1RY+bSlKF+hXAnqxPP9haAp0CwAdiAcA6+jeI4dmXvfkwSlrPl52oqPpkJlfgnK+lP5BD6MdoKdOrRnMA6bzRfKWSkzs6FhIGwFToBjAg5DPmOccr7D9p11SfMGDHCGU4hTLI5Pz2gKPxNybOhd4984pZ5SWXwOr0Gda/RPrfoXtTsVFhamuGOlloctYTi1hPXUOdL5MehsbPJAYsFiuf1/PDSCzgVXvLgXGYFjc9hF/asdHllequDYFlZRdvUI8yOP6yORO1dnsolNHrnkrgQ1P/uB5ZH7k09a4dgMNtMyqfUj98UmRYmtT7PJI5G8laC+V0GP2peCYuYX6Irh3eXZD9F/iZ38qzP9RYSLftBh3lnrNPY8s0N/+Utt2fiLyOQD0YzUuH0ySxahvyzi9AYMw7fjahqReF+qJnCrHqwn9uc2j2QH3GjRjDrAmyuM7yUzt9XUx+17Vhs2bDxme9pFi2bsGnpt0A3LZKzHlrtfYMOGDRuPlqOi9R8Dr1L1xdkqJHdi+V/DX3Qfpdgg0s5wWE5ONb5SisFvDbFNRvunoqc7zKt+/TV/uugSfHE89KPDgMsM6BF9/7P9lRoKs7yujK1H39Twv8ZfK0SL5u0xDBmrHVKON8f0V/Wwrcxkw4YNq6Q6iW/NMewbpWnah6YjX1MRWF29yoYNGzYePVl8IPJ6RVz27vb+eA1Tyv7lg/cSFhZmqlix4t+2NrINGzYeHa6urum7d+/Wh4SE2F7E2LBh4x9PcHDw1fXr17sFBwfb+jQbNv4mmjRpkj59+nSDDtCePn2amzdv3vUiGzZs/LOpW7euwWQyYWvzNmzY+Dfg6urqkZ6ebuvTbNj4G6lbt64BQKeUMgUHB+sWLFjwqH2yYcPG30B4eLg5ODhYa2vzNmzY+BegwsPDLbY+zYaNv5c5c+Zkr0NuNptN8Cd3nrVhw8Y/gSyllK3N27Bh49+CrU+zYePvR8FfNrHahg0bNmzYsGHDhg0b/1aKeIhQ/CrS2kPknJT8+SPz3+/TwyNaNENF2geKrHQQSRKxyxBtQLw4DflA3qSInRj/Nr/0kSIrpGJCv0fmwz1hYZxIfalyrfKj9uTu5PP1HxPfR8sVkeolRJJFJP22dDsmW/B+kHS5xIp4NxKZ4C4SrxVJE3G5JnYRq6XCLy0sRV3wQGQwSmSSlJg/ucjlguuJ8VmR76TCqlfu2ofVFLsXRd5xFjklYrgs+k5LpGtaqaKSJom4tBH51FHkkoj+qtg1XScNE6oCXBZxai/ysaPIORHHRDH0+k6G5sZI8bNIlQoi6/UiiSL6VJFSCeI/c/BsowSWFact0uxUgz8VEhs2bFjlhohXY5Fv9CIXRdzPifPbE+UXitxhubi0D3ruz1y7VaRMNZGlItrjInbHxdj3SxmMZwGno0U3QGS2aF+KkY24ZR8UGSTytYg283bfbZ8mZfaMEETeF+nkJ3JAL5IiYkgRTfU/pMq2Fo/ZQss2Hmfu2KSlDK5Vcf+5hCNDMI75BaV0D21zCosFy9+12UY/7AbARKTWUXwG9yT0M89+YDcA6taA3XjPmsHfvftoXv4zaQjuhCn9o9uM5B7KJhJjS1jNM9cbPtKyvBcp4OtjGN/HR/I2ZsreVfj53XfsplpI7jWdUorr4NUYtuPw/BJCp1YiEu1k8I6E4XaUOU+LC00fVl7eAGc8f3K+81wGk2EIDv9dyKG71QEz38ELSOQuIs+VVqAfDBNxHrs4/47u2YK8Ax9hHLCK9hd9FdgPhIkY39zI7giH9+E99C9toutF3+PgEgnf4TlzFkppcnboXknw8uHboDaGiVM/g3reBJwgMqnecngSem1lyd1jbBOb2KSA3H2zuSg0Q2Aarh98wwjleBS8msNaymx4445NR4tJG7kQ7YOcM/8JvQuj0HeFn/Bb8CFKaVQAxkhYTIn5k8jbmNHMPHhWC8fhhds7ZOfuwhx6vl/hmCRCQBn8D9P2t8azoD+hu18eD/2h+yHWKM/HoFxt8nhLUTtWpzMehuG/bHQMhNjRfhcblJcaiFNj2EfjpLa5Cs5BqA9BsUQm11ZN0L0EA9xhP3AcTb3N1DkSoZTiJLRA/+TOCJgKHTexqozPYBjoCkcETiPV9lN1RzOLUigwdoRxdkgcuBykdMQ7zWETtZMilVIUZ6egmFkA3aBlLL1SQgqfnwgeVDiSffMRhaZofywshGplYDVwSAdx2EUuoc9N/8L6DkA77FvuKQsf62G94HKMgLkDUUruyP8G5RUHzaHXH0zF53kY7QwnQZeIXefl9LpV6v7yWrz9+yqbDcorT28kTq1hEzimQenD1L/W7H7KMg5aYNf29xD4jxHWa3BKoNR3r6KUqOJia7U8FCoMfZHxKuSr1p73oVd2RxqGvie8ZYCDAoehyk6qbm+a+wBkzc/HoIH+VZL3g3sCWqMduo3dyqG4a+41nVImpsGraPr8wXfKveC5NELwKEnUBt166IzhrfXZO2lmMRFGQeczLFN+Sin2QRtk0G/sU44KHDrCOD2cAGLRtV5Ou8sht3c4/v6OHY5v+OJTFYf9dLre4K7xiELXA34g5NDg3DpxGcp7UO84n6rgQmk1kdCcClcq5B47A02hawwLKdkB1lHxbJ/cc+ehJrSPYbPyViNwbAa7aHS13XmIQD95CgvR1oLyRCgHFYW+Mywj7EC/x+rh3CY2efzlrg8R18vjVQXvGHrdrJV9zMJq6IJ+xGa2KeO9pjU8T+kHOcc2ZXxQvczGuzH8cfv+K4vJ8Dqu45aRMxCaBKUCCNiGDy9D9135HiL0HWAV1ZO6Fo7JBQg30OwIc88EfAn9qZDYR4EeelRgodI+BuVqk8db7nyIOA3l4Mk1zMh+cKiH2+8MSK2uZmDXDZZS/vhApRRqIdpBMB2fOVNQaMfDMDRdt/LUudJKpTEV+qEZuJ2tW52/gIFQ+zS19jRWSnEY6kHtWDqeqaoUMh7exDhyEwkYxsJI9IPWMVK5qwjs+sLnUP8ao9LDlErDuh1VcDQy+wd5DaXWRN8xylBIrPqzAafnYClltg0zKYWKwK4zvEvIH+0K6sjiMxgOjc7x5JGaSil2Qgtom8DC0yUL518pEzNgKO7vLR0Jb6HvvZ6Ol0vcHl1YNBGF5p7zWpz9H1YE3E/ZFBQL6yAS+9c3k6AMSpm497KcY5gBgyHiArW3NrMoC1ugI7x4kC3KXc3Azlpsi6sf4+F1K/GS277OMcyAobiO+wmF7gMYhb7/OoYrL6Uy+QZ6wAsH2KLcc8qiSD8fgwb6V0neD+56eA5duQQf2KyBC2jC9lDmh46mQvXg3tIpVBS6F2ERJX/83x3n8sk1CPKmwUG+V6VUP+yegUUa2MYTya2UyuA/8H5uuY6Dt7DrvZW+N3xVFJr/wCiMo39lW11j0Q8RFrZCBzSDdrBPOd41HiNwbAq/0yS5Td6xPjjXxT6GdjeaWr/WwkLw7gRf4fH5LL7BsQOsI/z0S7lpzkOYJ1VO805GuMp+ixGFVD/qquUTjBO+pMCbUBPfQD+c/rPizjcgNrGJTYqRuz5EXIBKBlodY5Mqke9YbehwmM3K+57TVqXZA53brLwfWO+m0iWGwBQ8PpvCZGWfCC7t4BfKrns95w2H7kX4knJrXz0GdQo8RLyGsTXswKBb6wRx4HoWw4uz6Ke8VCTGTrAMQ9MNleFbyiW88hiUpU3+OaLCwsLU7TkR0aKLgjep+uHXln4k4k16MMmn2Ha9Ev3Ss4Ihnhv7ywrI0S5Um0bDxrzQddL1CrgvhJdp+OmH6hf/02AgEja7WQ55Yd7vFgOV8X5lBbtqbAGoqMzb4XwVy48B+8Gi6kM8KMVMnJdBF6qPnqo+4hq7LVndYTOUvUR7+4s3Khi9rNpJxyX/J1qpc3GLw64MZWrtyM3gFZHyQSLHROSiiOaCeH02S0Cs+uOMxRMucmFyG12pqbVktzItVup9dbza8oIfhNnJUQin5GvzTCtCdwOUgbM+nBdO73IunH/QyUGojPNPF1YiL9Dkf2PVj94XOKPSgqA3+pqjr1fA417zWqz91W0D76dsCmJiK1TFJewoQWSATu65LOlNDFTGb9gP7GywURCcIQuNQwaCCXfrsbWms9xwvOYjvYuKlyJT3fa1d9ZBqIxL1YPxZfBchN2LNBr3kZpIItjRGnaW4KATOzO88/JUlJ//D7gMFzA5/XK50orBlkgCPrAcHmt/YvSnuudu1XqQdIAmFdywK3Ult91dFilXVuRodruTC+I16atn5nCxHr+dYeq1KjeX4LmWJ92bw88c/qPuxmh7wy6oSbkW61U09luhLWXenau+cLpEtLIMhQX+aSvKsW1ykXMWwMRGqIFHlSNUzdlhOFp0fUXedhA5IppSe8WhbbQE9gx7TqSqfEPbdHQGnLTpeSrcsejJyOSGxVikiWgxPCOadV3QX/hR370kT/WOVs+n3awFGzk+so+0Oxw4T8R9BAxIws6VxCw9KPV+JB+8rP54099MWbu013uirXBcPD8aLHuwAy1PwAFS9wdyA9cHKU8bNv5fk3mZJiJzdCJxoq2wQVy7vyKBgcE9RVrUNhCRjsGEjrwpUhrI0HFLh8pepTIXBQaraTNwfKBzCt0D6+UUb8CHta8OieA1h7Ml4dRyw2ANLzWfrcHM3DE8+7XmTQ++aTHTJWfFnDxMWEywDv1ri1N7Xqi6lpSIJ9K/LsHizyfJQpU5BZ5rmb5xwS0IJa7ip6KvtUPK/djmHz0X1sbfSt5DxKoxNPsRurC/+ucakWQZQ+ICaMuV36oJBgmFo6SdLMNK0X8IIyyB73xn/p8h/uZxysZCAFv8povISRE56QOrkvHN4OogYiGUkk9uVqCIFs0w0UZ6c/YHjWh3iWh2tIOPcQmN3fsR/vto6EHfEnuzPbIQD744hyRQj+vF2tGTmT9TmeexT8NFm//GwBsSEqGRgwPVe6I24FjpLNEi1vwhQqVFwYgn0has8T87aDba6gek/PJ2d0w4Go4hHsoR2HRL7rbfGeB5GX8LpZ/NKJD/2+krkHIgfT/t7HnV80CuqvFK3VAng9LvJ6/F2Xf6FZ97LpvCROt1xyAM9/r7s8sO+3sty9d+ROKgAn6tf8vWbWItVMK1QgINuEmkMhcV2+hidC5aQuBeK/Eq4Otw9PFQAe9aB+0TKLufthpGuR7MvcYELlfwgAr2N4nG3qqf/w94TqnNSv0xVB188oBaqMyjo1jagaMH2XOsye0KIfeYDgjH7ALXSD9ZQpMz2dkHEm5BI6BaFHyMBddNvcisB9s4saPOwStUTnVqc/ZdWM/5NdWWzsN/B028Gea+l1S0aeBObKX3c+uvG6w/T6aRXQaPonOll0TwxeB/0ZRbry8g39FpT9qQFdVmqLPP1EtbKR6nv5u/kEpfEUymEVN6gQeGi2gzMOhxkVtFmohW6T8p1WIFmR79M+et55tXlsg3Bs/+8Em7rHm77VeE/9ZDU27T9yU5Vwp1mUqONwBYqMwzlfp5HURnGUZ+1dNyfHDZq28Ppc/xbgAauOrJJXsyKPrhxYYNG1ZRZthsmPaFOZIKIy3HX690/fvqDqdPr/lO1/bNJB+SjKTpMJH7M4kFDCacTAim/HoE0q2mtSf1gc4JpgfWu18M/eCrXaW+/ol1t0rEgn+/9M9jGfu/qW9660LeoNxQurw7WtUj7Y6gfKoy1io1WqWMn67m+t1sodSlz+ATrm6pzUbc/ZS6uUaZpo+GWQTNHNE7a/fX2vgPZ+peSa30UArFxr+e7IcI02U+glEpzS9GKqXcssXitgr6kHKwCnuUrjHEkZLg0709reYSGcJ7rWdqABMYU+gVz3pzFaVUkFIqyKJUoFILK90YTuYJAv2p73QY4OAYGk2m2oQrDdePMylzbRVFw6fgd1wb7PUG91R8swglFYD+Orv10Aqn8BgTmIqzoxpxJX+mPNpzLYCkZI7FVMu7yVEqK1Wpyzf7k3wV/PGrEnOgGH8UKB+lUlcpNfEcVP3Esu8jYmdP1BRakebmt7iewrMkfrqk7CMmlkBdHGrEN/gGc/78A9yci1s85fz0Wk6BezquZI961xQ7kZcqyiK095PX4uyPP8Wtey2bO4jDIQFNGUJKxgCkfoPrvZblf8bhkkBgCeo7HAFgkZ32GFTCufp+M1gAiortnBl0LqZ+GKzFK7+vufGlidMRBQZwzsKBrOxMmVkDtUyGmiepRFLqNFyt+Vl8s/k3oHhDpKx4zy+f/0HADDrEPiv/kXtLB0SazA1gPZeWtGZCTjtRynxBqStKmS6Whhu5tjvBZi6vrTEbmuHfemfllhwLsfzqsewCzRIdWp2iE5dxwmyERMLj38ytv9lyqKRaUGHHPWd1hspKVz+sUp8+mdFPqdPblIpKUqqKUgerqydZHgAnOX+yQm7+kr6jZAy17HjG+WQBPdGiayXSSeokBwM8qdT1iYHMqcgqD5ZdL++l1I1lSg1NVypAmWOr7DvH72eokkJdrlwW8RPp3kNi0ANgKZH1rWL1c7CUK4eq2Eb+bNj4c4jRB5U24De1UJk/UmrPQaX63VSqnMpa3vqmE9tC2Z3FlOuB2akt7IZyGEIuUSq3X8rGL4zz1tIaIzj+IOcoxY0H1TvkXdx+p04I0S8sVE0xlVIqLRqWkLKz+rartL3EqbLMd14uIicD4Sf4sQrN6u2QQZnhiBgDJKyObMSQm78s0IHOQk+pLK4z2uStmGffNvXLKOa0YU8ce0whf0ER2fgXogFF8vEDsskhKpXpvptvnxIqwUluHQjgFm4OcMZRrXLYaOZ1Kr89xdIn+2bWCU4GsMnIpNhQgK0ipUuL/2zpk14mNYGgw9TIoqvjOVCch5JIjWRGNNuvReS/Y2i3Ct8GBPvE6iDRk/1GPjlfnmjRRM2k1wqkEV71DmrvYueOXC3MSH0aZhLX93VN4Ac9pP15h0Ui+udF6jT4mC9X0MGdmprfrftjHztW5AVxnTZSQIsyq0BIAl0GGRRYpfLGFQLPcN2DnWsbC2gOiV2pL+AFynf/cvEyStzOfzbJiQQfJyIjsww7fdjiwLgT4XQRbfQeXkGM0/DGeD95Lc5+Nzh2b2VzJynf4XWaMBeq210CuJ+yTL1M0BEisoh0PAtADPYnIAT/KjEaTFiJbWbwRfys6dTDGWvxyu9rbnxpqz/vCHEhLLNj9KGaADtFFzwB+hPWY7oliPTi/Ly35vPPJgjacfX7xZo2ByogIuPH0PEnqofSKHCjlBJjmDh1kQ77/YtNV0Cjls6uzG+l5l3ivS7fSblpEdKli/ZzEc+nRdcrCt7A0fcwoMqHcahi1mfec3FrQdOAne79SK3D3jMJt+iLX9tNFjATnZHeCH7l2Ac9ZDgekMU0keYiAyfInmeLXJoRMpUXXCL9vJ+uqKVfCxNtNrWHH4iLel7T+XSZMyLGN2BoqnvnXfTlHECiiL/Is12kOsaS8BxH/jdWeiW7IaL9+BQdjlBTaHr57CSRweIwYqEMxeUPEe8R8Caln/3JFEGKHdiXY2kU3X559mzO4M1ngt8mqIdn6GENYAGPJHwycCC9WJ9t2LBxf0SS3Izkdayc+Kq8mej8m2j9x0J/SndYbAmypI8VqS6u41qb75L2zVJcfJBzliDSH1TvSF/OlGVnKuNWthEQmoruE3gCY8j537aqmUpl+uYOsJyCZ6DTATZsr6um6GNu+OFUkiOz6TlruMzEbpuIz3AYinfjrd+cw4nr8yZrW26onj2IcYvvx1B1FxUCqGF34pGWl41/DqFlfbK87VwttLzSovDEiSQoVZaAE7xws7bqg3NTOIb9iM0FV2lJ4wPo7AWHEOKg9D78Z/RBoVkEL+Lw3prciYIp4NkEFiAeB6DEz4SW6doeVsALW1nq4zsU3rSHs4jfHwQyujwlYul5s07xdqws0xqFZhB0LwE77CAVDKloSv+Bw4ujiUz2uKs/tahZBZaBPh44hIRtJXRtq4Irp5j5AV7Ao+ev7WCSFo6ARyzeH7+BitIVzr9SZr6FvjhF/8oh9KOgrzucALsL6Fovp+XlkPvLa3H2lfZ+yuYOcce1BWyC2gk8cz7i3suy59ZG8AYO763OTXsNggKoHEdUeqhSihgILCq2Z4srjx8G+FiNV56vNRO8tUzDKfpXlNIplckEeMoX9iNyDAJ34z/rxew4mlkMvYrz818qtychZk9O/8AVzoE2GU3l3ZRb+pRZKVK98QvH+QRPXmteXLqibJwC96bwkTvEaSADcU1EF76CEp90zKvDC9H2hXlo+sZkTwLMWdmJWtfpk1o9Tx84PAPj7CBOIAGpsovQta1QSPETqwdvu6eJ1UqhmqDrCyNd4Aw4JGLfYz59b/jmnj8LLaDTCdYq3/0QUBPm2cMV0F5DW3UXoauesKjs5W0bwQIdJIHHOZxHjmNh7sovWUyC5qVhhw6ugv4m+JzC9Z332ZC9cEH2xOoxK20Tq21ik/uSuy/xqhTJ4NEUvsxuuz7ncY1+P3uFuEw+hCjcPlpJTv9kPe2Dn3vwa83MggbBsAk0JwQ5ga75MhonVCycx+zJ2PkmVisLc6BuWdgskAzuF3F4eRqvKQ8VhWYgvOIBx3SQgtinIOVjKP1dDwqteGcTmxQhRS3x+ijFgsVy+/94aASd/6+d+3llMI7jAP5+trWMWYuyJvVcFvYcxEUczMFfoMVhDsLBSg0HYgeNHB2c1PLj6EAckePuxkEoioODlhJzMDNfJyPGpuj5PvN+1fv2re/n9Hx7fr0/NSfIlQeEgTm4v2+jKd79GQOmoAPXyEm6UNWA8gN03bbqPUuuZCte3x/UrxWvdfuDrHhlmB+l6K9pf5snZCtedZ+FMVA+tDPp6hGzimnC5JxfVNZhTSiKfQwYgatzF2241nu6L0VKrGdAPZzNx+b8q4tvfyIJ2a9SiQEkl7G9MJz9B0EibiH2RCo09FZoILA1jY4N9FZgqnEt/zdYRES/xYw+IaLipHJF70nIeCS5ibAiAKw23Y1Wo9ty7kLZ4WZpMIFgTyRnc5AsjmC7gE1FreP0X+5PJCUrQi1Y8t9PZuDf6Zf9p+VLxVQTgi2M9plxEcCN3vMQEREVQtE09qd+gQAAAE9JREFULe31ei35lxKR0TkcDhGPx589Hg9fXhGR4amqmo7FYmZVVSV5KEpU/Hw+XyYajZoVTdPkfdJPRERERESyyShCCN5EEBERERFRwV4ANROjnuIaZZoAAAAASUVORK5CYII=;" vertex="1" parent="1">
          <mxGeometry x="40" y="90" width="785" height="324" as="geometry" />
        </mxCell>
      </root>
    </mxGraphModel>
  </diagram>
</mxfile>
